<svg width="400" height="400" viewBox="0 0 400 400" fill="none" xmlns="http://www.w3.org/2000/svg">
<rect width="400" height="400" fill="black"/>
<path d="M195.429 41.9835C198.559 40.142 202.441 40.142 205.571 41.9835L331.97 116.35C335.024 118.147 336.899 121.426 336.899 124.969V274.031C336.899 277.574 335.024 280.853 331.97 282.65L205.571 357.017C202.441 358.858 198.559 358.858 195.429 357.017L69.0301 282.65C65.9761 280.853 64.101 277.574 64.101 274.031V124.969C64.101 121.426 65.9761 118.147 69.0301 116.35L195.429 41.9835Z" fill="#EEEEEE"/>
<path d="M199 69L286.558 118.135C289.712 119.904 291.664 123.239 291.664 126.855V232.089C291.664 235.735 289.68 239.092 286.486 240.85L199 289L111.513 240.85C108.319 239.092 106.335 235.735 106.335 232.089V176.5V126.855C106.335 123.239 108.287 119.904 111.441 118.135L199 69Z" fill="#C9CACC"/>
<path d="M195.93 204.117C198.131 202.812 200.869 202.812 203.07 204.117L288.846 254.979C293.419 257.691 293.419 264.309 288.846 267.021L203.07 317.883C200.869 319.188 198.131 319.188 195.93 317.883L110.154 267.021C105.581 264.309 105.581 257.691 110.154 254.979L195.93 204.117Z" fill="#93969A"/>
<path d="M199 69L292 120V237.5L199 289V69Z" fill="#ABADB1"/>
<path d="M199 203L275 247L199 289L199 203Z" fill="#71757B"/>
<path d="M198.874 202.931L199 289L123 247.5L198.874 202.931Z" fill="#808489"/>
</svg>
