<svg width="399" height="399" viewBox="0 0 399 399" fill="none" xmlns="http://www.w3.org/2000/svg">
<rect width="399" height="399" fill="white"/>
<path d="M194.429 41.9835C197.559 40.142 201.441 40.142 204.571 41.9835L330.97 116.35C334.024 118.147 335.899 121.426 335.899 124.969V274.031C335.899 277.574 334.024 280.853 330.97 282.65L204.571 357.017C201.441 358.858 197.559 358.858 194.429 357.017L68.0301 282.65C64.9761 280.853 63.101 277.574 63.101 274.031V124.969C63.101 121.426 64.9761 118.147 68.0301 116.35L194.429 41.9835Z" fill="#111111"/>
<path d="M198.001 69L285.559 118.135C288.713 119.904 290.665 123.239 290.665 126.855V232.089C290.665 235.735 288.681 239.092 285.487 240.85L198.001 289L110.514 240.85C107.32 239.092 105.336 235.735 105.336 232.089V176.5V126.855C105.336 123.239 107.288 119.904 110.442 118.135L198.001 69Z" fill="#363533"/>
<path d="M194.93 204.117C197.131 202.812 199.869 202.812 202.07 204.117L287.846 254.979C292.419 257.691 292.419 264.309 287.846 267.021L202.07 317.883C199.869 319.188 197.131 319.188 194.93 317.883L109.154 267.021C104.581 264.309 104.581 257.691 109.154 254.979L194.93 204.117Z" fill="#6C6965"/>
<path d="M198 69L291 120V237.5L198 289V69Z" fill="#54524E"/>
<path d="M197.999 203L273.999 247L197.999 289L197.999 203Z" fill="#8E8A84"/>
<path d="M197.874 202.931L198 289L122 247.5L197.874 202.931Z" fill="#7F7B76"/>
</svg>
