<svg width="1572" height="540" viewBox="0 0 1572 540" fill="none" xmlns="http://www.w3.org/2000/svg">
<rect width="1572" height="540" fill="black"/>
<path d="M293.429 108.983C296.559 107.142 300.441 107.142 303.571 108.983L429.97 183.35C433.024 185.147 434.899 188.426 434.899 191.969V341.031C434.899 344.574 433.024 347.853 429.97 349.65L303.571 424.017C300.441 425.858 296.559 425.858 293.429 424.017L167.03 349.65C163.976 347.853 162.101 344.574 162.101 341.031V191.969C162.101 188.426 163.976 185.147 167.03 183.35L293.429 108.983Z" fill="#EEEEEE"/>
<path d="M297 136L384.558 185.135C387.712 186.904 389.664 190.239 389.664 193.855V299.089C389.664 302.735 387.68 306.092 384.486 307.85L297 356L209.513 307.85C206.319 306.092 204.335 302.735 204.335 299.089V243.5V193.855C204.335 190.239 206.287 186.904 209.441 185.135L297 136Z" fill="#C9CACC"/>
<path d="M293.93 271.117C296.131 269.812 298.869 269.812 301.07 271.117L386.846 321.979C391.419 324.691 391.419 331.309 386.846 334.021L301.07 384.883C298.869 386.188 296.131 386.188 293.93 384.883L208.154 334.021C203.581 331.309 203.581 324.691 208.154 321.979L293.93 271.117Z" fill="#93969A"/>
<path d="M297 136L390 187V304.5L297 356V136Z" fill="#ABADB1"/>
<path d="M537.401 310.31C533.796 311.781 529.106 313.216 523.331 314.614C517.592 316.012 511.928 316.71 506.337 316.71C493.425 316.71 483.126 312.995 475.438 305.565C467.787 298.098 463.962 287.522 463.962 273.839C463.962 260.965 467.787 250.647 475.438 242.885C483.126 235.124 493.628 231.243 506.943 231.243C513.822 231.243 519.413 231.905 523.717 233.229C528.021 234.517 532.471 236.283 537.069 238.526V257.783H535.193C534.2 257.01 532.766 255.925 530.89 254.527C529.051 253.093 527.248 251.879 525.483 250.886C523.423 249.709 521.032 248.697 518.31 247.851C515.624 247.005 512.774 246.582 509.757 246.582C506.226 246.582 503.008 247.134 500.102 248.237C497.196 249.341 494.602 251.033 492.322 253.313C490.152 255.521 488.423 258.316 487.135 261.7C485.885 265.084 485.259 269.02 485.259 273.508C485.259 283.108 487.669 290.189 492.487 294.75C497.306 299.312 503.89 301.592 512.24 301.592C512.976 301.592 513.84 301.574 514.834 301.537C515.827 301.5 516.691 301.445 517.427 301.372V285.26H501.481V269.866H537.401V310.31ZM561.082 315L588.835 232.843H611.347L639.101 315H617.858L612.726 298.227H586.904L581.773 315H561.082ZM608.202 283.329L599.815 256.238L591.429 283.329H608.202ZM748.139 315H727.613V260.542L712.661 295.688H698.591L683.638 260.542V315H664.217V232.843H687.997L706.205 273.397L724.358 232.843H748.139V315ZM823.079 315H778.828V300.654H790.635V247.189H778.828V232.843H823.079V247.189H811.271V300.654H823.079V315ZM924.117 315H904.253L872.582 257.728V315H853.712V232.843H879.038L905.246 279.908V232.843H924.117V315ZM1026.37 310.31C1022.76 311.781 1018.07 313.216 1012.3 314.614C1006.56 316.012 1000.9 316.71 995.304 316.71C982.393 316.71 972.094 312.995 964.406 305.565C956.755 298.098 952.929 287.522 952.929 273.839C952.929 260.965 956.755 250.647 964.406 242.885C972.094 235.124 982.595 231.243 995.911 231.243C1002.79 231.243 1008.38 231.905 1012.68 233.229C1016.99 234.517 1021.44 236.283 1026.04 238.526V257.783H1024.16C1023.17 257.01 1021.73 255.925 1019.86 254.527C1018.02 253.093 1016.22 251.879 1014.45 250.886C1012.39 249.709 1010 248.697 1007.28 247.851C1004.59 247.005 1001.74 246.582 998.725 246.582C995.194 246.582 991.975 247.134 989.069 248.237C986.164 249.341 983.57 251.033 981.29 253.313C979.119 255.521 977.391 258.316 976.103 261.7C974.852 265.084 974.227 269.02 974.227 273.508C974.227 283.108 976.637 290.189 981.455 294.75C986.274 299.312 992.858 301.592 1001.21 301.592C1001.94 301.592 1002.81 301.574 1003.8 301.537C1004.79 301.5 1005.66 301.445 1006.39 301.372V285.26H990.449V269.866H1026.37V310.31ZM1134.31 316.49C1128.02 316.49 1122.49 315.883 1117.71 314.669C1112.96 313.455 1108.55 311.947 1104.46 310.145V290.612H1106.34C1110.46 294.107 1115 296.792 1119.97 298.668C1124.93 300.544 1129.75 301.482 1134.42 301.482C1135.6 301.482 1137.15 301.353 1139.06 301.096C1141.01 300.838 1142.57 300.434 1143.75 299.882C1145.18 299.257 1146.4 298.392 1147.39 297.289C1148.38 296.148 1148.88 294.659 1148.88 292.819C1148.88 290.759 1148.07 289.086 1146.45 287.798C1144.83 286.511 1142.9 285.573 1140.66 284.984C1137.86 284.249 1134.87 283.55 1131.67 282.888C1128.5 282.226 1125.54 281.416 1122.78 280.46C1116.42 278.216 1111.86 275.2 1109.1 271.411C1106.34 267.622 1104.96 262.877 1104.96 257.176C1104.96 249.488 1108.22 243.271 1114.73 238.526C1121.24 233.744 1129.37 231.354 1139.11 231.354C1144.01 231.354 1148.86 231.85 1153.68 232.843C1158.54 233.836 1162.88 235.179 1166.7 236.871V255.631H1164.88C1161.83 253.019 1158.09 250.812 1153.68 249.01C1149.3 247.207 1144.8 246.306 1140.16 246.306C1138.36 246.306 1136.74 246.435 1135.31 246.692C1133.87 246.95 1132.36 247.446 1130.78 248.182C1129.5 248.771 1128.37 249.653 1127.42 250.831C1126.5 251.971 1126.04 253.258 1126.04 254.693C1126.04 256.79 1126.77 258.463 1128.24 259.714C1129.75 260.928 1132.64 262.031 1136.91 263.024C1139.67 263.65 1142.31 264.257 1144.85 264.845C1147.43 265.434 1150.17 266.243 1153.07 267.273C1158.78 269.333 1163.01 272.11 1165.76 275.604C1168.56 279.062 1169.96 283.642 1169.96 289.343C1169.96 297.509 1166.74 304.075 1160.3 309.041C1153.9 314.007 1145.24 316.49 1134.31 316.49ZM1213.28 315V248.513H1189V232.843H1258.19V248.513H1233.92V315H1213.28ZM1358.46 273.949C1358.46 287.228 1354.91 297.675 1347.81 305.289C1340.71 312.903 1330.98 316.71 1318.62 316.71C1306.23 316.71 1296.5 312.867 1289.44 305.179C1282.37 297.454 1278.84 287.044 1278.84 273.949C1278.84 260.744 1282.37 250.316 1289.44 242.665C1296.5 234.977 1306.23 231.133 1318.62 231.133C1330.98 231.133 1340.71 234.958 1347.81 242.609C1354.91 250.224 1358.46 260.67 1358.46 273.949ZM1337.16 273.894C1337.16 269.002 1336.65 264.845 1335.62 261.424C1334.62 257.967 1333.28 255.134 1331.59 252.927C1329.82 250.683 1327.82 249.083 1325.58 248.127C1323.37 247.134 1321.07 246.637 1318.68 246.637C1316.14 246.637 1313.84 247.097 1311.78 248.017C1309.72 248.899 1307.74 250.5 1305.82 252.817C1304.13 254.95 1302.75 257.783 1301.68 261.314C1300.65 264.845 1300.14 269.057 1300.14 273.949C1300.14 278.989 1300.64 283.182 1301.63 286.529C1302.62 289.84 1303.98 292.617 1305.71 294.861C1307.48 297.141 1309.48 298.778 1311.73 299.771C1313.97 300.728 1316.29 301.206 1318.68 301.206C1321.11 301.206 1323.46 300.691 1325.74 299.661C1328.02 298.594 1329.99 296.958 1331.64 294.75C1333.41 292.36 1334.77 289.582 1335.73 286.419C1336.68 283.219 1337.16 279.044 1337.16 273.894ZM1463.64 315H1438.48L1415.58 284.874H1408.18V315H1387.66V232.843H1420.71C1425.27 232.843 1429.24 233.138 1432.63 233.726C1436.01 234.278 1439.14 235.455 1442.01 237.257C1444.95 239.133 1447.29 241.524 1449.01 244.43C1450.74 247.299 1451.61 250.959 1451.61 255.41C1451.61 261.7 1450.19 266.813 1447.36 270.749C1444.53 274.648 1440.74 277.756 1435.99 280.074L1463.64 315ZM1430.42 258.003C1430.42 255.944 1430.02 254.178 1429.21 252.707C1428.43 251.198 1427.13 250.04 1425.29 249.23C1424 248.679 1422.57 248.329 1420.99 248.182C1419.4 248.035 1417.44 247.961 1415.08 247.961H1408.18V270.087H1414.09C1416.96 270.087 1419.39 269.921 1421.37 269.59C1423.39 269.222 1425.11 268.468 1426.5 267.328C1427.83 266.298 1428.8 265.066 1429.43 263.631C1430.09 262.197 1430.42 260.321 1430.42 258.003ZM1486.71 315V232.843H1542.27V248.513H1507.24V262.914H1539.51V278.584H1507.24V299.33H1542.27V315H1486.71Z" fill="white"/>
<path d="M297 270L373 314L297 356L297 270Z" fill="#71757B"/>
<path d="M296.874 269.931L297 356L221 314.5L296.874 269.931Z" fill="#808489"/>
</svg>
