<svg width="1714" height="540" viewBox="0 0 1714 540" fill="none" xmlns="http://www.w3.org/2000/svg">
<rect width="1714" height="540" fill="#212529"/>
<path d="M291.893 109.034C295.041 107.164 298.959 107.164 302.107 109.034L427.207 183.344C430.241 185.145 432.1 188.413 432.1 191.941V341.059C432.1 344.587 430.241 347.855 427.207 349.656L302.107 423.966C298.959 425.836 295.041 425.836 291.893 423.966L166.793 349.656C163.759 347.855 161.9 344.587 161.9 341.059V191.941C161.9 188.413 163.759 185.145 166.793 183.344L291.893 109.034Z" fill="#EEEEEE"/>
<path d="M297 136L384.558 185.135C387.712 186.904 389.664 190.239 389.664 193.855V299.089C389.664 302.735 387.68 306.092 384.486 307.85L297 356L209.513 307.85C206.319 306.092 204.335 302.735 204.335 299.089V243.5V193.855C204.335 190.239 206.287 186.904 209.441 185.135L297 136Z" fill="#C9CACC"/>
<path d="M293.93 271.117C296.131 269.812 298.869 269.812 301.07 271.117L386.846 321.979C391.419 324.691 391.419 331.309 386.846 334.021L301.07 384.883C298.869 386.188 296.131 386.188 293.93 384.883L208.154 334.021C203.581 331.309 203.581 324.691 208.154 321.979L293.93 271.117Z" fill="#93969A"/>
<path d="M297 136L390 187V304.5L297 356V136Z" fill="#ABADB1"/>
<path d="M642.401 310.31C638.796 311.781 634.106 313.216 628.331 314.614C622.592 316.012 616.928 316.71 611.337 316.71C598.425 316.71 588.126 312.995 580.438 305.565C572.787 298.098 568.962 287.522 568.962 273.839C568.962 260.965 572.787 250.647 580.438 242.885C588.126 235.124 598.628 231.243 611.943 231.243C618.822 231.243 624.413 231.905 628.717 233.229C633.021 234.517 637.471 236.283 642.069 238.526V257.783H640.193C639.2 257.01 637.766 255.925 635.89 254.527C634.051 253.093 632.248 251.879 630.483 250.886C628.423 249.709 626.032 248.697 623.31 247.851C620.624 247.005 617.774 246.582 614.757 246.582C611.226 246.582 608.008 247.134 605.102 248.237C602.196 249.341 599.602 251.033 597.322 253.313C595.152 255.521 593.423 258.316 592.135 261.7C590.885 265.084 590.259 269.02 590.259 273.508C590.259 283.108 592.669 290.189 597.487 294.75C602.306 299.312 608.89 301.592 617.24 301.592C617.976 301.592 618.84 301.574 619.834 301.537C620.827 301.5 621.691 301.445 622.427 301.372V285.26H606.481V269.866H642.401V310.31ZM666.082 315L693.835 232.843H716.347L744.101 315H722.858L717.726 298.227H691.904L686.773 315H666.082ZM713.202 283.329L704.815 256.238L696.429 283.329H713.202ZM853.139 315H832.613V260.542L817.661 295.688H803.591L788.638 260.542V315H769.217V232.843H792.997L811.205 273.397L829.358 232.843H853.139V315ZM928.079 315H883.828V300.654H895.635V247.189H883.828V232.843H928.079V247.189H916.271V300.654H928.079V315ZM1029.12 315H1009.25L977.582 257.728V315H958.712V232.843H984.038L1010.25 279.908V232.843H1029.12V315ZM1131.37 310.31C1127.76 311.781 1123.07 313.216 1117.3 314.614C1111.56 316.012 1105.9 316.71 1100.3 316.71C1087.39 316.71 1077.09 312.995 1069.41 305.565C1061.75 298.098 1057.93 287.522 1057.93 273.839C1057.93 260.965 1061.75 250.647 1069.41 242.885C1077.09 235.124 1087.6 231.243 1100.91 231.243C1107.79 231.243 1113.38 231.905 1117.68 233.229C1121.99 234.517 1126.44 236.283 1131.04 238.526V257.783H1129.16C1128.17 257.01 1126.73 255.925 1124.86 254.527C1123.02 253.093 1121.22 251.879 1119.45 250.886C1117.39 249.709 1115 248.697 1112.28 247.851C1109.59 247.005 1106.74 246.582 1103.73 246.582C1100.19 246.582 1096.98 247.134 1094.07 248.237C1091.16 249.341 1088.57 251.033 1086.29 253.313C1084.12 255.521 1082.39 258.316 1081.1 261.7C1079.85 265.084 1079.23 269.02 1079.23 273.508C1079.23 283.108 1081.64 290.189 1086.46 294.75C1091.27 299.312 1097.86 301.592 1106.21 301.592C1106.94 301.592 1107.81 301.574 1108.8 301.537C1109.79 301.5 1110.66 301.445 1111.39 301.372V285.26H1095.45V269.866H1131.37V310.31ZM1239.31 316.49C1233.02 316.49 1227.49 315.883 1222.71 314.669C1217.96 313.455 1213.55 311.947 1209.46 310.145V290.612H1211.34C1215.46 294.107 1220 296.792 1224.97 298.668C1229.93 300.544 1234.75 301.482 1239.42 301.482C1240.6 301.482 1242.15 301.353 1244.06 301.096C1246.01 300.838 1247.57 300.434 1248.75 299.882C1250.18 299.257 1251.4 298.392 1252.39 297.289C1253.38 296.148 1253.88 294.659 1253.88 292.819C1253.88 290.759 1253.07 289.086 1251.45 287.798C1249.83 286.511 1247.9 285.573 1245.66 284.984C1242.86 284.249 1239.87 283.55 1236.67 282.888C1233.5 282.226 1230.54 281.416 1227.78 280.46C1221.42 278.216 1216.86 275.2 1214.1 271.411C1211.34 267.622 1209.96 262.877 1209.96 257.176C1209.96 249.488 1213.22 243.271 1219.73 238.526C1226.24 233.744 1234.37 231.354 1244.11 231.354C1249.01 231.354 1253.86 231.85 1258.68 232.843C1263.54 233.836 1267.88 235.179 1271.7 236.871V255.631H1269.88C1266.83 253.019 1263.09 250.812 1258.68 249.01C1254.3 247.207 1249.8 246.306 1245.16 246.306C1243.36 246.306 1241.74 246.435 1240.31 246.692C1238.87 246.95 1237.36 247.446 1235.78 248.182C1234.5 248.771 1233.37 249.653 1232.42 250.831C1231.5 251.971 1231.04 253.258 1231.04 254.693C1231.04 256.79 1231.77 258.463 1233.24 259.714C1234.75 260.928 1237.64 262.031 1241.91 263.024C1244.67 263.65 1247.31 264.257 1249.85 264.845C1252.43 265.434 1255.17 266.243 1258.07 267.273C1263.78 269.333 1268.01 272.11 1270.76 275.604C1273.56 279.062 1274.96 283.642 1274.96 289.343C1274.96 297.509 1271.74 304.075 1265.3 309.041C1258.9 314.007 1250.24 316.49 1239.31 316.49ZM1318.28 315V248.513H1294V232.843H1363.19V248.513H1338.92V315H1318.28ZM1463.46 273.949C1463.46 287.228 1459.91 297.675 1452.81 305.289C1445.71 312.903 1435.98 316.71 1423.62 316.71C1411.23 316.71 1401.5 312.867 1394.44 305.179C1387.37 297.454 1383.84 287.044 1383.84 273.949C1383.84 260.744 1387.37 250.316 1394.44 242.665C1401.5 234.977 1411.23 231.133 1423.62 231.133C1435.98 231.133 1445.71 234.958 1452.81 242.609C1459.91 250.224 1463.46 260.67 1463.46 273.949ZM1442.16 273.894C1442.16 269.002 1441.65 264.845 1440.62 261.424C1439.62 257.967 1438.28 255.134 1436.59 252.927C1434.82 250.683 1432.82 249.083 1430.58 248.127C1428.37 247.134 1426.07 246.637 1423.68 246.637C1421.14 246.637 1418.84 247.097 1416.78 248.017C1414.72 248.899 1412.74 250.5 1410.82 252.817C1409.13 254.95 1407.75 257.783 1406.68 261.314C1405.65 264.845 1405.14 269.057 1405.14 273.949C1405.14 278.989 1405.64 283.182 1406.63 286.529C1407.62 289.84 1408.98 292.617 1410.71 294.861C1412.48 297.141 1414.48 298.778 1416.73 299.771C1418.97 300.728 1421.29 301.206 1423.68 301.206C1426.11 301.206 1428.46 300.691 1430.74 299.661C1433.02 298.594 1434.99 296.958 1436.64 294.75C1438.41 292.36 1439.77 289.582 1440.73 286.419C1441.68 283.219 1442.16 279.044 1442.16 273.894ZM1568.64 315H1543.48L1520.58 284.874H1513.18V315H1492.66V232.843H1525.71C1530.27 232.843 1534.24 233.138 1537.63 233.726C1541.01 234.278 1544.14 235.455 1547.01 237.257C1549.95 239.133 1552.29 241.524 1554.01 244.43C1555.74 247.299 1556.61 250.959 1556.61 255.41C1556.61 261.7 1555.19 266.813 1552.36 270.749C1549.53 274.648 1545.74 277.756 1540.99 280.074L1568.64 315ZM1535.42 258.003C1535.42 255.944 1535.02 254.178 1534.21 252.707C1533.43 251.198 1532.13 250.04 1530.29 249.23C1529 248.679 1527.57 248.329 1525.99 248.182C1524.4 248.035 1522.44 247.961 1520.08 247.961H1513.18V270.087H1519.09C1521.96 270.087 1524.39 269.921 1526.37 269.59C1528.39 269.222 1530.11 268.468 1531.5 267.328C1532.83 266.298 1533.8 265.066 1534.43 263.631C1535.09 262.197 1535.42 260.321 1535.42 258.003ZM1591.71 315V232.843H1647.27V248.513H1612.24V262.914H1644.51V278.584H1612.24V299.33H1647.27V315H1591.71Z" fill="white"/>
<path d="M297 270L373 314L297 356L297 270Z" fill="#71757B"/>
<path d="M296.874 269.931L297 356L221 314.5L296.874 269.931Z" fill="#808489"/>
</svg>
