<svg version="1.0" xmlns="http://www.w3.org/2000/svg"
 width="2226.000000pt" height="2051.000000pt" viewBox="0 0 2226.000000 2051.000000"
 preserveAspectRatio="xMidYMid meet">

    <g transform="translate(0.000000,2051.000000) scale(0.100000,-0.100000)"
fill="#ffab00" stroke="none">

        <path d="M3625 20493 c-90 -6 -350 -43 -456 -63 -469 -93 -926 -270 -1322
-513 -424 -260 -803 -604 -1099 -998 -413 -550 -664 -1192 -733 -1873 -14
-134 -15 -894 -12 -6866 3 -6287 4 -6722 20 -6825 60 -385 122 -628 234 -910
285 -722 772 -1325 1423 -1759 519 -347 1116 -561 1780 -638 95 -11 1441 -13
7685 -13 l7570 0 165 23 c326 45 632 120 906 222 1274 478 2187 1564 2418
2880 60 341 56 -177 56 7097 0 4565 -3 6694 -11 6773 -84 921 -472 1742 -1125
2380 -560 547 -1258 900 -2042 1035 -340 59 215 55 -7931 53 -4112 -1 -7498
-3 -7526 -5z m15170 -446 c356 -47 611 -110 900 -224 1055 -414 1822 -1317
2054 -2418 39 -181 59 -332 71 -530 14 -217 14 -12924 0 -13090 -5 -66 -14
-181 -20 -255 -13 -160 -39 -319 -80 -490 -229 -948 -865 -1742 -1748 -2183
-476 -237 -922 -351 -1474 -377 -271 -13 -14481 -13 -14758 0 -113 5 -259 16
-325 25 -1537 199 -2715 1339 -2934 2840 -12 77 -26 221 -31 320 -8 124 -10
2207 -8 6725 4 6099 5 6554 21 6670 110 806 419 1444 961 1985 214 214 433
383 690 534 472 277 1041 448 1604 480 76 5 3469 7 7542 7 6927 -2 7413 -3
7535 -19z"/>

        <path d="M7936 16778 c-18 -92 -1738 -8226 -1742 -8240 -5 -17 52 -18 1095
-18 1039 0 1100 1 1105 18 2 9 145 681 316 1492 171 811 313 1483 316 1493 5
16 52 17 795 17 810 0 910 -4 1067 -41 384 -89 594 -320 679 -744 27 -137 24
-652 -7 -1090 -32 -450 -33 -821 -2 -987 27 -145 66 -267 102 -317 16 -21 382
-412 814 -870 l786 -832 -14 -32 c-7 -18 -300 -646 -651 -1397 -350 -751 -652
-1398 -671 -1438 l-34 -74 48 28 c26 15 685 407 1464 871 l1418 843 1087 -836
c848 -652 1089 -833 1091 -818 1 10 -85 624 -193 1364 -107 740 -195 1355
-195 1366 0 18 248 196 1231 885 678 475 1241 871 1253 881 20 17 -40 17
-1374 18 l-1395 0 -220 1385 c-121 762 -223 1384 -228 1382 -4 -1 -371 -619
-815 -1372 l-807 -1370 -156 -3 -156 -2 -41 84 c-83 169 -148 395 -189 651
-22 141 -24 548 -4 1314 14 558 11 762 -14 956 -69 522 -305 829 -744 965 -56
17 -101 35 -101 39 0 4 39 14 88 21 367 53 769 215 1042 419 97 72 256 225
333 321 191 236 340 563 411 897 49 231 60 355 60 663 0 308 -11 427 -60 650
-185 835 -761 1299 -1789 1439 -332 45 -278 45 -2686 48 l-2306 4 -7 -33z
m3697 -1698 c554 -40 863 -231 969 -597 20 -69 23 -99 22 -268 0 -157 -4 -206
-21 -281 -98 -419 -380 -676 -859 -783 -242 -54 -244 -54 -1332 -58 -974 -4
-1013 -3 -1008 14 7 26 416 1964 416 1974 0 12 1649 11 1813 -1z m4192 -6174
c85 -539 155 -983 155 -988 0 -4 411 -8 914 -8 503 0 917 -4 920 -8 4 -6
-1524 -1083 -1637 -1154 -7 -4 40 -348 137 -1012 81 -553 146 -1010 144 -1015
-1 -6 -360 267 -796 606 -518 401 -799 613 -810 610 -9 -2 -467 -272 -1017
-600 -549 -328 -1001 -595 -1003 -593 -3 3 855 1841 909 1948 l19 37 -567 598
-568 598 935 5 935 5 502 850 c276 468 539 913 585 990 45 77 84 133 85 125 1
-8 72 -456 158 -994z"/>

        <path d="M21665 1018 c-152 -14 -292 -111 -368 -255 -48 -92 -58 -137 -58
-251 0 -193 73 -328 236 -439 145 -98 385 -100 533 -4 81 52 168 151 210 238
34 72 37 86 40 184 6 154 -23 241 -113 349 -114 136 -276 196 -480 178z m206
-94 c70 -21 113 -46 172 -103 87 -83 127 -180 127 -308 0 -168 -103 -329 -258
-401 -50 -24 -69 -27 -162 -27 -97 0 -110 2 -173 32 -75 36 -164 114 -201 177
-62 106 -73 268 -27 389 37 94 140 194 246 239 53 23 202 24 276 2z"/>

        <path d="M21638 803 l-108 -4 0 -284 0 -285 60 0 60 0 0 111 0 112 74 -6 c41
-3 84 -10 95 -16 34 -19 51 -64 51 -136 l0 -65 55 0 55 0 0 73 c0 88 -28 153
-76 177 l-31 16 39 16 c53 23 83 88 73 159 -16 116 -81 141 -347 132z m150
-82 c63 -12 94 -45 90 -95 -2 -33 -9 -44 -37 -63 -28 -19 -47 -23 -112 -23
l-79 0 0 95 0 95 48 0 c26 -1 66 -5 90 -9z"/>

    </g>
</svg>
