<svg version="1.0" xmlns="http://www.w3.org/2000/svg" width="860.000000pt" height="680.000000pt" viewBox="0 0 860.000000 680.000000" preserveAspectRatio="xMidYMid meet">

    <g transform="translate(0.000000,680.000000) scale(0.100000,-0.100000)"
fill="#0070b2" stroke="none">
        
        <path fill="#0070b2" d="M3653 6273 c0 -8 6 -12 13 -9 8 3 11 0 7 -10 -3 -9 1 -14 12 -14 9 0
14 -4 11 -8 -3 -5 19 -20 48 -34 l53 -26 99 19 c55 10 100 19 102 19 1 0 2 4
2 9 0 6 -8 10 -17 10 -10 -1 -38 7 -62 15 -42 16 -84 26 -128 29 -11 1 -19 5
-16 10 7 12 -12 8 -26 -5 -8 -7 -11 -8 -8 -2 4 6 -11 10 -42 11 -34 0 -48 -4
-48 -14z"/>

        <path fill="#0070b2" d="M3900 6175 c-248 -45 -610 -143 -1160 -313 l-255 -78 -3 -48 c-3 -40
1 -53 21 -75 14 -14 39 -54 56 -89 18 -35 38 -65 46 -69 17 -6 21 -63 4 -63
-6 0 -42 24 -81 54 l-70 55 -76 -33 c-269 -115 -251 -106 -258 -140 -11 -61
-2 -90 34 -107 18 -9 46 -35 63 -58 16 -23 34 -39 39 -36 6 4 10 -16 10 -49 0
-31 -2 -56 -5 -56 -3 0 -39 25 -79 55 -40 30 -77 55 -82 55 -11 0 -297 -126
-363 -159 l-44 -23 6 -156 c11 -286 79 -620 183 -901 95 -253 318 -656 495
-891 48 -63 136 -169 196 -235 360 -395 756 -680 1433 -1031 l55 -29 3 -92 3
-92 -53 22 c-107 43 -425 209 -572 297 -290 175 -527 354 -720 543 -67 65
-115 115 -107 111 21 -11 61 -13 61 -4 0 4 7 11 16 14 9 4 13 2 8 -5 -4 -8 0
-7 15 0 17 10 21 9 21 -4 0 -8 4 -15 10 -15 5 0 6 7 3 17 -4 11 -3 14 5 9 7
-4 12 -2 12 5 0 9 4 8 15 -1 12 -10 12 -7 -1 19 -17 35 -29 41 -19 11 5 -16 3
-19 -12 -13 -10 3 -22 12 -26 19 -5 10 -15 11 -32 4 -14 -5 -41 -9 -62 -8 -21
1 -39 -4 -41 -11 -5 -14 -122 98 -212 204 -76 90 -180 226 -180 237 0 3 8 5
18 3 9 -1 23 2 29 7 7 6 22 8 33 5 13 -3 18 -1 13 6 -4 6 2 8 15 5 12 -4 22
-2 22 4 0 5 5 6 12 2 13 -9 9 0 -44 78 -45 67 -51 72 -77 58 -11 -5 -31 -11
-45 -12 -15 -1 -26 -5 -26 -9 0 -9 -21 -6 -37 4 -7 5 -13 5 -13 0 -1 -21 -136
204 -212 354 -93 181 -139 289 -183 423 -15 47 -31 89 -36 95 -5 5 -8 -752 -7
-1780 l3 -1790 2418 -2 2417 -2 1 392 c2 614 1 2267 0 2747 l-2 435 -53 -140
c-63 -167 -115 -281 -199 -432 -76 -138 -93 -145 -92 -37 1 58 -3 77 -15 84
-8 5 -10 10 -4 10 12 0 15 30 3 30 -5 0 -30 -42 -56 -92 -26 -51 -46 -93 -43
-93 3 0 -5 -16 -16 -35 -17 -28 -34 -85 -36 -120 0 -3 -4 -16 -9 -28 -5 -13
-12 -52 -15 -85 -4 -34 -7 -69 -8 -79 -4 -37 -77 -132 -252 -329 -317 -356
-784 -708 -1245 -940 -186 -93 -168 -93 -166 9 l2 87 135 75 c458 255 802 509
1080 797 264 272 445 531 626 893 209 418 325 856 336 1269 l3 94 -70 29 c-38
16 -134 57 -213 90 l-142 60 -70 -51 c-73 -53 -97 -62 -86 -35 3 9 6 37 6 64
0 43 3 49 28 59 34 14 112 128 112 163 0 22 -15 30 -146 84 -80 32 -156 63
-168 68 -19 7 -36 0 -98 -42 -42 -28 -78 -48 -82 -45 -3 4 -6 27 -6 53 0 43 3
48 35 65 21 12 44 38 60 67 14 26 33 48 41 48 10 0 14 13 14 49 0 28 -4 53
-10 56 -31 19 -657 222 -830 270 -219 59 -655 152 -755 160 -39 3 -107 -4
-195 -20z m340 -43 c62 -19 179 -69 190 -82 3 -4 34 -17 70 -30 70 -25 99 -41
143 -77 19 -15 23 -23 13 -23 -16 0 -382 75 -513 105 -79 18 -78 17 -67 87 9
53 38 57 164 20z m-1021 -276 c-2 -2 -136 -43 -297 -90 l-293 -87 -60 42 c-33
23 -56 45 -52 49 4 4 33 12 63 18 30 6 97 21 149 32 52 11 133 20 180 21 47 0
104 4 126 8 41 9 192 14 184 7z m1971 -17 c0 -5 10 -5 23 0 22 8 149 8 177 0
8 -3 22 -9 30 -14 40 -26 105 -52 117 -48 7 3 13 0 13 -6 0 -6 8 -11 19 -11
10 0 30 -6 45 -13 l26 -14 -47 -34 c-26 -19 -52 -37 -58 -41 -6 -4 -131 34
-276 84 -145 49 -275 94 -289 98 -15 5 23 8 98 8 67 0 122 -4 122 -9z m-1330
-1858 l0 -1770 -87 92 c-116 121 -195 219 -281 347 -88 132 -232 417 -297 588
-15 41 -31 70 -35 65 -4 -4 -55 -72 -114 -151 -125 -167 -105 -165 -215 -17
-131 175 -210 316 -351 625 -132 288 -226 584 -330 1033 -11 49 -20 96 -20
105 0 13 33 27 143 60 79 23 150 42 158 42 11 0 21 -36 38 -152 63 -418 220
-874 419 -1220 31 -54 60 -98 64 -98 9 0 108 149 108 162 0 4 -5 19 -12 35 -6
15 -10 32 -9 36 1 4 -6 35 -14 69 -29 110 -84 396 -110 569 -34 229 -75 676
-75 820 0 103 2 118 18 123 9 2 64 12 122 21 58 8 117 18 131 21 l25 5 12
-223 c31 -562 102 -1021 218 -1391 57 -184 156 -415 185 -433 9 -5 11 40 5
194 -4 111 -9 209 -12 217 -4 8 -14 15 -24 15 -21 0 -75 53 -96 93 -8 15 -23
36 -33 46 -17 17 -45 173 -38 212 5 28 41 68 67 74 25 6 26 5 59 -135 18 -77
41 -164 51 -193 18 -51 19 -41 19 895 l1 946 73 12 c112 20 169 27 205 29 l32
1 0 -1769z m680 1733 c164 -36 405 -117 518 -174 163 -82 339 -230 432 -364
75 -110 129 -284 130 -418 0 -169 -77 -358 -202 -494 l-38 -41 71 -74 c156
-163 217 -405 159 -635 -34 -134 -152 -348 -257 -467 -23 -26 -40 -36 -57 -35
-13 1 -22 6 -19 11 3 6 -8 8 -26 5 -17 -2 -31 -1 -31 2 0 4 -12 6 -26 4 -30
-3 -76 15 -69 27 8 11 -25 18 -69 14 -51 -5 -64 -18 -36 -38 15 -10 17 -16 9
-19 -9 -3 -6 -11 10 -24 13 -10 34 -29 47 -42 13 -13 24 -19 25 -15 1 4 4 -2
7 -15 4 -13 12 -24 17 -24 15 -1 34 -32 31 -51 -5 -36 -156 -169 -401 -354
-175 -132 -439 -302 -451 -291 -2 3 -7 2706 -5 3367 l1 184 58 -7 c31 -4 109
-18 172 -32z m-2159 -300 c92 -27 91 -33 -7 -81 l-87 -44 -69 46 c-37 25 -68
49 -68 53 0 18 68 41 121 41 30 1 80 -6 110 -15z m3606 -23 l33 -13 -62 -50
c-49 -39 -67 -48 -86 -43 -33 8 -175 76 -170 81 2 2 39 12 82 21 92 21 159 23
203 4z m-1793 -121 c14 0 58 -45 74 -77 7 -12 9 -77 7 -169 -3 -82 -4 -173 -4
-202 0 -33 -9 -71 -24 -105 -13 -28 -27 -64 -31 -80 -3 -15 -15 -42 -26 -60
l-20 -32 1 375 c0 206 3 369 6 363 2 -7 10 -13 17 -13z m-204 -363 c0 -188 -4
-348 -8 -355 -10 -15 -43 27 -61 78 -19 57 -23 310 -5 420 16 99 53 212 66
204 4 -3 8 -159 8 -347z m-1906 127 l50 -23 -139 -66 -138 -65 -68 52 c-38 28
-69 53 -69 55 0 9 75 38 149 58 98 27 141 25 215 -11z m1285 -214 c7 -74 19
-197 27 -273 9 -75 14 -144 11 -152 -3 -7 -23 -17 -43 -21 -30 -5 -40 -3 -51
11 -14 20 -52 116 -59 148 -2 10 -6 27 -9 38 -9 27 -9 177 0 230 7 45 44 123
80 171 20 26 20 26 27 5 3 -12 11 -83 17 -157z m2995 164 c27 -7 53 -17 58
-22 4 -4 -17 -30 -48 -57 l-57 -49 -103 53 c-57 29 -104 56 -104 61 0 5 10 12
23 14 12 3 31 7 42 10 37 8 140 3 189 -10z m-4543 -177 c35 -35 38 -43 53
-150 9 -61 25 -158 35 -214 10 -57 15 -103 10 -103 -5 0 -26 16 -46 35 -20 19
-40 35 -43 35 -4 0 -16 19 -27 43 -27 54 -50 167 -58 282 -3 50 -8 110 -11
135 l-5 45 28 -35 c15 -19 44 -52 64 -73z m4606 -182 c-6 -106 -41 -285 -65
-335 -9 -19 -30 -42 -47 -50 -16 -8 -36 -23 -43 -32 -7 -10 -20 -18 -28 -18
-8 0 -14 -4 -14 -9 0 -9 -30 -24 -36 -18 -2 2 10 50 27 108 17 57 45 176 63
264 28 133 37 161 52 164 11 2 21 7 24 11 13 19 45 28 59 17 11 -9 12 -32 8
-102z m-3667 -175 c34 -111 58 -206 53 -210 -19 -17 -69 -18 -90 -2 -47 37
-99 209 -89 301 5 54 47 146 58 127 4 -7 35 -104 68 -216z m1228 -595 c1 -154
0 -291 -3 -303 l-6 -24 -19 25 c-11 14 -20 29 -20 35 0 5 -9 17 -20 27 -11 10
-20 28 -20 41 0 13 -4 25 -8 28 -5 3 -10 38 -11 78 -1 40 -4 111 -7 158 -3 47
-3 126 1 176 l7 91 51 -26 52 -26 3 -280z m287 292 c13 -20 15 -62 14 -263 -1
-183 -5 -244 -15 -260 -8 -11 -11 -24 -7 -29 5 -4 2 -5 -4 -1 -7 4 -13 2 -13
-3 0 -16 -69 -86 -77 -78 -8 9 -10 616 -1 637 4 10 21 17 46 18 34 2 44 -2 57
-21z m-1315 -227 c41 -82 72 -151 69 -154 -8 -8 -49 5 -49 15 0 5 -8 9 -19 9
-10 0 -24 7 -31 15 -7 8 -17 15 -22 15 -27 0 -98 124 -98 172 0 35 38 86 61
81 8 -3 48 -71 89 -153z m-920 -127 c16 -9 30 -20 30 -24 0 -4 18 -14 40 -23
30 -12 49 -30 75 -70 19 -30 35 -57 35 -60 0 -5 61 -114 92 -163 20 -33 11
-45 -14 -20 -15 15 -49 31 -60 29 -5 -1 -8 2 -8 7 0 5 -11 12 -25 15 -14 4
-25 13 -25 21 0 8 -4 15 -9 15 -5 0 -31 28 -58 61 -26 34 -56 69 -66 78 -22
19 -77 124 -77 145 0 18 28 14 70 -11z m3855 -413 c4 -58 7 -110 8 -115 1 -15
-87 -144 -160 -236 -115 -144 -209 -229 -253 -229 -11 0 -20 -5 -20 -11 0 -8
-4 -8 -14 0 -11 9 -20 9 -35 2 -13 -7 -22 -8 -26 -1 -3 5 -15 10 -26 10 -18 0
-15 7 21 48 180 206 329 395 440 559 30 45 56 81 57 80 0 -1 4 -49 8 -107z
m-1911 -261 c8 -41 6 -327 -2 -357 -7 -23 -7 -23 -25 7 -10 17 -22 31 -26 31
-10 0 -20 29 -28 80 -3 19 -8 43 -12 54 -17 45 41 216 73 216 8 0 16 -14 20
-31z m246 -57 c28 -58 38 -164 20 -227 -7 -25 -17 -45 -23 -45 -6 0 -8 -3 -4
-6 3 -3 1 -11 -4 -18 -5 -6 -18 -21 -28 -33 -18 -23 -18 -23 -25 39 -8 77 -8
174 0 270 6 64 9 75 24 71 9 -2 27 -26 40 -51z m-1344 -306 l119 -114 -20 -22
c-38 -42 -74 -62 -101 -56 -26 7 -160 126 -206 184 -42 52 -37 75 20 100 26
12 52 21 58 22 7 0 65 -51 130 -114z m415 -348 c109 -83 155 -124 147 -130
-27 -17 -142 -8 -213 17 -87 30 -135 79 -135 138 0 34 23 97 36 97 3 0 77 -55
165 -122z m1347 -180 c-25 -42 -143 -169 -194 -208 -11 -8 -44 -35 -74 -60
-30 -25 -71 -57 -90 -71 -39 -28 -202 -119 -215 -119 -9 0 -1 122 9 138 3 5
70 46 148 90 79 45 204 119 278 166 74 47 138 85 143 85 4 1 2 -9 -5 -21z
m-898 -124 c80 -49 110 -72 110 -85 0 -14 -58 -39 -90 -39 -50 0 -143 30 -162
52 -10 11 -18 28 -18 38 0 17 62 80 78 80 4 0 41 -21 82 -46z m-1365 -569 c85
-18 158 -54 214 -105 l43 -39 -43 -51 c-23 -27 -44 -50 -46 -50 -2 0 -28 18
-57 40 -68 51 -125 72 -206 73 -54 1 -74 -4 -119 -28 -112 -62 -170 -201 -141
-341 16 -75 38 -119 85 -166 74 -73 176 -100 282 -74 103 25 110 32 115 118 3
40 3 76 1 81 -2 4 -42 7 -88 7 -115 0 -115 0 -115 77 l0 64 58 -6 c31 -3 106
-10 165 -15 60 -4 111 -11 114 -14 4 -3 1 -64 -5 -135 -10 -127 -12 -132 -49
-186 -48 -70 -124 -111 -232 -124 -283 -36 -512 167 -511 452 1 100 44 220 86
239 13 6 21 14 19 18 -3 5 5 10 18 14 12 3 39 21 60 40 21 19 41 34 45 33 4
-1 11 8 17 21 5 12 15 22 21 22 6 0 17 7 24 15 29 35 133 44 245 20z m3648 0
c66 -17 147 -53 147 -66 0 -5 -30 -28 -66 -53 l-65 -44 -62 20 c-72 23 -186
27 -239 9 -46 -15 -88 -63 -88 -100 0 -67 54 -95 265 -140 222 -48 319 -138
301 -285 -29 -245 -414 -304 -701 -106 -26 18 -45 35 -43 40 2 4 21 27 42 50
27 30 43 40 51 34 97 -73 183 -104 286 -104 81 0 127 16 158 56 17 22 21 37
17 62 -10 66 -50 88 -247 137 -163 39 -222 70 -256 130 -27 47 -31 137 -9 189
32 77 116 143 216 170 72 19 221 20 293 1z m-627 -243 c-10 -9 -283 -60 -418
-78 l-128 -17 0 -85 0 -85 78 7 c42 4 127 14 187 22 61 8 136 17 168 21 l57 6
0 -57 c0 -31 -4 -56 -9 -56 -5 0 -71 -6 -147 -14 -77 -8 -183 -18 -237 -21
l-98 -7 3 -87 c2 -50 7 -85 13 -85 6 1 128 5 273 9 l262 8 0 -57 0 -56 -362 0
-361 0 6 150 6 150 36 35 c20 20 35 46 35 59 0 20 26 68 81 148 11 15 19 31
19 35 1 4 9 19 20 31 16 20 55 32 232 72 117 26 229 52 248 57 l35 9 3 -54 c2
-30 1 -57 -2 -60z m-2269 -8 l52 -6 132 -217 c72 -119 157 -252 188 -296 32
-44 61 -86 65 -92 5 -10 -11 -13 -72 -13 l-80 0 -41 69 -41 69 -82 6 c-46 3
-144 7 -218 10 l-136 5 -44 -79 -45 -80 -57 0 c-32 0 -58 3 -58 8 0 4 9 22 20
40 12 19 27 57 34 86 21 78 76 178 229 414 50 78 63 93 81 88 12 -3 44 -8 73
-12z m1292 -115 c-22 -33 -52 -84 -65 -112 -22 -49 -57 -87 -204 -224 l-45
-42 -145 129 -145 130 -5 -198 -5 -197 -79 0 -80 0 -2 283 -2 282 89 0 88 0
131 -122 c73 -68 139 -127 146 -131 18 -10 73 35 204 167 82 83 99 96 128 96
l33 0 -42 -61z m151 -394 l0 -115 -79 0 c-78 0 -79 1 -73 23 7 21 139 207 148
207 2 0 4 -52 4 -115z"/>
        
        <path d="M4620 5358 c0 -2 -3 -276 -7 -610 -5 -551 -4 -608 10 -608 22 0 318
149 392 197 268 175 362 376 268 575 -79 167 -239 290 -525 402 -105 41 -137
51 -138 44z m329 -205 c108 -45 141 -113 79 -161 -14 -11 -25 -7 -75 25 -50
32 -136 72 -207 97 -17 6 -16 9 15 30 19 13 43 26 54 29 28 7 91 -2 134 -20z
m334 -309 c13 -33 16 -60 12 -84 -4 -19 -8 -42 -9 -50 -5 -34 -41 -93 -65
-108 -14 -9 -32 -23 -39 -30 -16 -14 -72 -45 -72 -38 0 2 7 20 15 39 22 52 19
171 -4 240 l-20 57 37 10 c102 27 124 22 145 -36z"/>
        
        <path d="M4990 3974 c-103 -27 -174 -70 -277 -168 l-97 -93 -4 -481 c-3 -265
-1 -482 2 -482 31 0 283 228 401 361 149 169 254 334 299 472 36 109 12 236
-61 317 -77 85 -147 105 -263 74z m232 -371 c14 -18 4 -103 -21 -178 -11 -33
-20 -57 -20 -54 -1 3 -25 -18 -53 -46 -29 -28 -75 -61 -103 -74 -27 -13 -66
-36 -86 -52 -20 -16 -41 -29 -47 -29 -5 0 -15 -7 -22 -15 -7 -8 -17 -15 -22
-15 -6 0 12 26 40 58 97 112 201 280 231 374 7 20 20 39 29 41 30 8 63 3 74
-10z"/>

        <path d="M3041 1040 c-39 -60 -71 -114 -71 -120 0 -5 19 -10 43 -11 23 0 89
-4 147 -8 58 -5 106 -7 108 -5 4 2 -148 254 -153 254 -2 0 -35 -49 -74 -110z"/>

        <path d="M1625 5169 c-38 -16 -76 -36 -83 -43 -9 -9 -12 -41 -10 -111 l3 -99
38 52 c20 29 37 55 37 60 0 4 12 21 26 37 14 17 33 43 41 60 9 16 22 35 29 43
17 17 18 32 2 32 -7 -1 -44 -14 -83 -31z"/>
        
        <path d="M6850 519 c0 -92 3 -120 13 -117 8 3 14 35 17 94 l5 89 28 -82 c16
-45 35 -87 42 -93 16 -14 21 -6 61 105 l29 80 5 -95 c7 -133 24 -117 28 25 3
114 2 115 -20 115 -21 0 -28 -12 -57 -96 -19 -52 -37 -92 -41 -87 -4 4 -19 40
-33 78 -38 105 -38 105 -58 105 -18 0 -19 -9 -19 -121z"/>
    </g>
</svg>
