<?xml version="1.0" standalone="no"?>
<!DOCTYPE svg PUBLIC "-//W3C//DTD SVG 20010904//EN"
 "http://www.w3.org/TR/2001/REC-SVG-20010904/DTD/svg10.dtd">
<svg version="1.0" xmlns="http://www.w3.org/2000/svg"
 width="1905.000000pt" height="2048.000000pt" viewBox="0 0 1905.000000 2048.000000"
 preserveAspectRatio="xMidYMid meet">
<metadata>
Created by potrace 1.16, written by Peter Selinger 2001-2019
</metadata>
<g transform="translate(0.000000,2048.000000) scale(0.100000,-0.100000)"
fill="#000000" stroke="none">
<path d="M8290 20000 c-14 -5 -70 -23 -125 -40 -125 -40 -185 -72 -235 -126
-62 -68 -73 -144 -45 -310 18 -104 33 -157 125 -439 84 -261 95 -317 95 -525
0 -182 -12 -268 -56 -403 -16 -49 -29 -98 -29 -109 0 -19 -4 -20 -57 -13 -151
19 -268 80 -399 210 -109 109 -166 184 -319 425 -217 341 -318 472 -439 567
-147 115 -248 148 -436 140 -145 -5 -243 -33 -400 -112 -115 -58 -270 -153
-276 -169 -10 -26 26 -156 62 -227 71 -142 140 -233 396 -526 275 -314 359
-425 436 -579 122 -243 100 -439 -69 -605 -166 -164 -361 -198 -557 -98 -160
81 -278 203 -540 559 -282 384 -395 509 -550 611 -89 59 -163 87 -263 102
-160 23 -301 -24 -403 -134 -99 -107 -124 -197 -88 -316 40 -132 132 -251 421
-548 307 -316 377 -405 421 -535 30 -87 30 -223 1 -385 -31 -173 -22 -158
-100 -150 -169 18 -322 76 -707 266 -477 236 -614 282 -834 283 -114 0 -132
-3 -211 -30 -112 -40 -207 -104 -302 -203 -157 -165 -190 -324 -90 -441 47
-55 96 -82 283 -155 231 -91 296 -138 347 -253 75 -170 70 -373 -16 -586 -16
-39 -76 -170 -134 -291 -147 -310 -174 -401 -164 -573 4 -85 11 -115 58 -242
50 -138 53 -150 53 -245 0 -91 -3 -108 -35 -190 -60 -156 -135 -247 -245 -297
-42 -20 -65 -23 -159 -22 -125 1 -165 10 -455 103 -217 69 -314 91 -408 91
-123 0 -214 -39 -290 -125 -91 -103 -127 -232 -119 -420 6 -146 36 -289 123
-593 133 -466 134 -515 25 -882 -99 -334 -93 -410 49 -711 115 -240 123 -278
150 -681 12 -179 34 -276 83 -374 46 -90 92 -143 158 -179 46 -25 65 -30 124
-30 142 1 272 88 584 390 285 275 394 359 500 385 96 23 187 -31 249 -147 120
-226 61 -399 -184 -546 -74 -44 -140 -74 -524 -236 -249 -106 -382 -199 -434
-303 -22 -43 -26 -66 -26 -133 0 -97 18 -165 71 -264 104 -194 282 -361 799
-752 304 -229 463 -390 612 -619 175 -268 260 -528 260 -793 -1 -222 -34 -378
-171 -801 -50 -154 -90 -280 -89 -281 2 -2 72 -12 156 -25 124 -17 165 -20
211 -12 147 26 330 127 475 263 153 143 270 308 387 544 179 364 269 761 256
1130 -9 253 -56 442 -230 940 -216 615 -263 814 -261 1105 1 181 15 270 104
649 115 497 136 635 127 861 -6 162 -20 227 -73 338 -40 83 -140 196 -209 236
l-43 26 -30 -29 c-38 -38 -98 -55 -202 -55 -101 0 -162 18 -249 74 -177 115
-240 264 -166 398 47 87 111 131 290 202 168 67 239 114 283 188 25 44 27 55
27 157 0 108 -1 113 -37 185 -52 106 -112 173 -307 348 -258 232 -317 323
-308 477 7 129 61 227 210 382 273 283 508 334 962 207 397 -111 694 -292 786
-479 60 -123 55 -203 -25 -425 -64 -175 -81 -249 -74 -328 15 -159 65 -218
277 -327 169 -86 229 -133 265 -208 64 -133 58 -233 -30 -497 -63 -189 -84
-308 -65 -378 21 -75 68 -115 238 -199 125 -62 162 -85 197 -124 83 -92 97
-219 56 -494 -36 -242 -17 -350 81 -445 37 -36 188 -120 216 -120 6 0 9 80 9
223 -1 229 5 281 45 374 17 40 93 133 109 133 4 0 12 -10 18 -22 5 -13 46 -62
89 -109 50 -56 101 -127 143 -200 172 -300 263 -402 434 -479 34 -16 79 -32
100 -36 l39 -7 -7 99 c-21 306 -103 586 -233 803 -35 58 -63 110 -63 117 0 19
64 7 136 -26 34 -15 116 -65 182 -109 154 -104 216 -133 302 -139 178 -12 279
70 250 205 -14 66 -34 110 -107 239 -130 229 -144 341 -83 669 30 160 35 284
16 373 -21 99 -49 152 -118 222 -116 116 -267 208 -683 411 -289 141 -443 225
-530 289 -82 61 -174 167 -211 243 -47 98 -52 156 -21 244 59 172 171 270 351
311 57 12 113 15 281 11 572 -11 640 -5 810 75 116 55 224 138 356 273 122
125 179 202 242 328 72 142 99 246 105 402 6 185 -7 236 -118 457 -104 207
-126 286 -116 401 37 408 351 705 867 818 445 99 1027 55 1469 -110 391 -146
663 -408 749 -723 53 -191 3 -424 -115 -542 -95 -95 -170 -116 -459 -128 -242
-9 -328 -20 -409 -51 -196 -73 -505 -424 -704 -799 -106 -198 -137 -320 -121
-466 11 -103 48 -202 164 -444 148 -308 156 -341 156 -615 0 -418 -68 -758
-300 -1496 -181 -578 -241 -802 -241 -904 0 -36 9 -107 21 -157 38 -174 22
-260 -64 -333 -59 -51 -127 -72 -304 -95 -262 -35 -304 -53 -483 -213 -90 -81
-152 -122 -336 -223 -190 -104 -253 -146 -333 -219 -98 -92 -163 -215 -177
-341 l-7 -56 64 7 c35 4 116 23 179 42 257 79 300 87 300 53 0 -14 7 -20 21
-20 20 0 21 -3 15 -57 -3 -32 -31 -130 -62 -218 -114 -329 -133 -394 -145
-483 -14 -103 -4 -198 29 -294 18 -50 20 -53 51 -50 71 5 123 51 246 216 138
185 216 245 330 253 59 5 179 -17 197 -35 5 -5 37 -109 72 -233 74 -260 122
-393 180 -501 l41 -78 68 0 c54 0 67 3 67 15 0 9 12 26 26 38 l25 22 -11 316
c-20 531 9 662 200 889 39 47 82 103 95 125 39 66 57 153 53 265 l-3 99 30 14
c17 8 56 36 88 62 38 31 99 64 170 95 149 63 174 76 374 197 282 170 409 219
633 244 192 20 501 -5 623 -51 63 -24 107 -26 107 -5 0 8 9 24 20 35 42 42 32
85 -150 670 -207 665 -254 839 -319 1165 -59 294 -100 647 -101 863 l0 52 58
0 58 0 13 -37 c21 -60 131 -240 290 -473 165 -241 187 -277 296 -475 159 -290
302 -473 412 -529 65 -32 143 -35 189 -7 67 41 115 212 199 711 68 403 91 502
144 616 221 471 653 682 1053 515 258 -109 493 -387 597 -708 175 -538 92
-1343 -201 -1953 -130 -273 -298 -486 -454 -579 -39 -23 -160 -77 -268 -120
-218 -87 -308 -136 -378 -205 -112 -111 -128 -223 -78 -559 36 -247 23 -375
-55 -543 -84 -184 -258 -395 -454 -553 -150 -120 -263 -195 -561 -373 -583
-348 -696 -440 -860 -699 -139 -218 -203 -274 -354 -306 -62 -13 -98 -13 -276
-2 -299 18 -277 24 -589 -170 -182 -113 -387 -227 -709 -395 -249 -130 -462
-236 -473 -236 -17 0 -19 -5 -13 -42 23 -143 101 -228 263 -284 245 -85 692
-68 1166 46 163 38 335 95 419 137 92 46 149 102 271 263 223 295 312 330 605
240 164 -51 259 -60 345 -35 120 35 251 111 543 318 106 75 322 218 480 319
546 346 703 457 963 681 207 178 277 261 311 369 23 77 23 150 -3 268 -62 290
-61 285 -49 343 14 67 55 127 117 170 26 18 56 41 67 52 26 25 85 25 206 0
248 -51 424 17 661 254 183 184 343 416 503 729 88 173 180 390 209 492 8 30
59 273 112 539 l97 485 124 299 c132 319 151 385 141 495 -11 115 -48 176
-200 326 -156 155 -191 212 -209 348 -16 119 2 224 69 417 140 401 162 490
149 624 -3 38 -18 103 -31 143 -71 212 -196 304 -665 489 -433 172 -558 251
-637 406 -24 47 -27 66 -28 144 0 196 84 299 277 339 139 29 283 21 643 -33
105 -16 219 -32 254 -36 l64 -6 -7 138 c-32 640 -198 1040 -494 1196 -227 120
-528 76 -882 -127 l-75 -43 -94 8 c-204 17 -337 85 -396 199 -75 146 -72 274
9 395 50 76 121 142 291 273 286 221 364 321 373 478 8 145 -30 217 -229 435
-214 236 -232 284 -204 560 17 168 17 172 -2 198 -43 58 -213 75 -418 41 -276
-45 -359 -20 -617 187 -108 86 -205 153 -222 153 -3 0 -6 -9 -6 -19 0 -23 -53
-96 -125 -171 -29 -30 -87 -102 -131 -160 -274 -365 -523 -576 -716 -605 -105
-16 -222 53 -272 160 -51 106 -53 212 -10 515 26 181 26 572 1 690 -75 343
-267 525 -684 650 -128 38 -281 71 -538 115 -116 20 -304 54 -420 75 -377 71
-481 84 -690 84 -233 1 -345 -10 -345 -33 0 -9 9 -95 20 -191 94 -853 73
-1246 -74 -1393 -41 -42 -80 -52 -172 -44 -142 11 -239 119 -314 348 -17 52
-60 209 -95 349 -76 303 -103 393 -160 522 -97 220 -242 375 -409 436 -72 27
-97 31 -126 22z m-2252 -4775 c168 -156 274 -391 274 -610 1 -153 -31 -236
-137 -359 l-41 -47 -134 67 c-216 106 -308 184 -357 304 -29 72 -25 204 11
310 26 79 134 307 192 406 l26 44 51 -27 c28 -16 80 -55 115 -88z m7889 -350
c83 -103 216 -302 287 -432 230 -417 335 -870 275 -1179 l-10 -51 -252 -7
c-534 -14 -810 48 -963 217 -86 96 -120 207 -111 362 15 237 123 502 421 1030
75 132 139 248 142 259 5 15 17 8 76 -50 38 -38 99 -105 135 -149z m-2824
-2161 c68 -196 94 -359 127 -816 33 -448 48 -541 134 -847 64 -223 86 -343 86
-460 -1 -174 -49 -305 -162 -438 l-61 -73 -56 6 c-142 16 -283 87 -352 179
-88 117 -105 245 -70 540 11 99 30 295 41 435 56 695 123 1109 237 1468 19 62
37 112 38 110 2 -2 19 -48 38 -104z m-3911 -366 c218 -150 376 -326 468 -520
76 -160 92 -293 50 -412 -29 -79 -53 -96 -141 -96 -185 0 -398 134 -477 300
-64 137 -82 264 -82 596 l0 242 53 -28 c28 -16 87 -53 129 -82z m-4307 -433
c97 -10 220 -42 284 -74 73 -37 167 -123 217 -198 113 -171 118 -385 13 -570
-103 -180 -313 -303 -519 -303 -138 0 -252 50 -361 159 -186 186 -231 448
-116 666 37 69 121 163 186 208 102 71 197 125 216 121 11 -1 47 -6 80 -9z"/>
<path d="M12260 3839 l0 -391 -56 51 c-69 63 -189 123 -309 153 -80 20 -114
23 -305 22 -202 0 -221 -2 -315 -27 -342 -92 -558 -303 -637 -624 -28 -113
-31 -368 -6 -478 54 -238 183 -423 376 -539 355 -212 955 -191 1213 42 l59 54
0 -86 0 -86 380 0 380 0 0 1150 0 1150 -390 0 -390 0 0 -391z m-227 -719 c121
-46 186 -122 213 -250 27 -130 2 -262 -66 -349 -79 -99 -245 -147 -426 -123
-152 20 -241 77 -296 189 -28 57 -33 79 -36 158 -4 77 0 105 18 159 38 115
134 199 265 233 77 20 256 11 328 -17z"/>
<path d="M4030 3690 c-454 -42 -672 -167 -765 -437 -13 -37 -27 -85 -30 -105
l-7 -38 396 0 c379 0 396 1 396 18 0 33 58 101 108 126 75 38 155 49 309 44
148 -6 213 -21 270 -64 57 -43 61 -136 9 -181 -40 -34 -103 -41 -546 -63 -524
-25 -642 -44 -807 -125 -179 -88 -263 -228 -263 -435 1 -308 161 -476 525
-547 112 -22 533 -25 660 -5 196 32 361 92 460 168 26 19 48 34 49 32 2 -2 9
-34 17 -73 l14 -70 403 -3 c221 -1 402 1 402 6 0 4 -6 16 -14 27 -7 11 -22 43
-32 70 -17 45 -19 100 -25 600 -5 467 -8 558 -22 605 -58 196 -191 321 -412
389 -169 53 -266 63 -645 66 -195 2 -398 -1 -450 -5z m740 -1058 c0 -168 -87
-267 -285 -323 -66 -19 -106 -23 -225 -23 -142 -1 -146 0 -205 29 -84 42 -108
80 -103 164 4 56 8 67 36 92 46 41 110 55 372 79 190 18 320 33 403 49 4 0 7
-30 7 -67z"/>
<path d="M8772 3689 c-501 -45 -718 -195 -796 -551 l-6 -28 394 0 394 0 12 34
c16 48 74 102 139 128 50 20 74 22 226 23 197 0 262 -14 323 -70 33 -30 37
-38 37 -85 0 -45 -4 -55 -32 -80 -20 -18 -51 -32 -85 -39 -29 -6 -238 -19
-464 -31 -456 -22 -589 -39 -732 -93 -209 -78 -311 -199 -335 -393 -22 -177
36 -361 145 -459 150 -135 413 -195 798 -182 326 11 543 68 702 184 53 38 52
38 63 -41 4 -27 9 -55 12 -62 4 -12 76 -14 409 -14 l403 0 -18 32 c-52 90 -54
105 -60 693 l-6 550 -27 74 c-90 249 -303 369 -727 411 -120 12 -633 11 -769
-1z m746 -1061 c-8 -130 -68 -222 -180 -279 -93 -47 -175 -63 -338 -63 -139
-1 -147 0 -202 27 -67 33 -99 78 -105 146 -6 62 21 109 78 138 45 23 70 27
395 58 88 9 198 22 245 29 46 7 90 14 98 15 11 1 13 -14 9 -71z"/>
<path d="M14290 3689 c-527 -64 -801 -251 -902 -615 -19 -69 -22 -105 -22
-289 0 -186 2 -219 22 -290 89 -324 314 -509 715 -590 331 -66 825 -57 1123
21 462 120 675 421 651 923 -23 478 -265 725 -807 823 -96 17 -164 21 -410 24
-162 1 -329 -2 -370 -7z m472 -510 c119 -25 216 -98 259 -193 73 -165 32 -422
-83 -521 -83 -71 -248 -107 -401 -87 -232 30 -340 141 -354 364 -15 234 80
385 272 432 73 17 235 20 307 5z"/>
<path d="M1712 3669 c-166 -21 -323 -87 -421 -176 l-61 -55 0 101 0 101 -380
0 -380 0 0 -1160 0 -1160 395 0 395 0 0 386 0 386 48 -46 c55 -55 195 -126
292 -150 227 -54 520 -44 725 26 259 89 443 269 524 513 41 125 54 232 49 388
-10 265 -89 451 -257 609 -126 119 -292 197 -495 233 -95 16 -324 19 -434 4z
m106 -534 c155 -37 244 -130 272 -285 52 -288 -175 -495 -495 -452 -236 31
-344 162 -333 403 4 85 9 107 37 163 61 124 180 183 371 185 47 0 113 -6 148
-14z"/>
<path d="M7255 3664 c-170 -38 -301 -112 -437 -245 l-98 -97 0 159 0 159 -380
0 -380 0 0 -855 0 -855 395 0 395 0 0 363 c0 305 3 372 16 418 44 147 144 235
324 285 50 14 101 18 220 18 134 0 171 -4 270 -27 63 -15 118 -27 122 -27 13
0 10 698 -3 706 -6 4 -93 8 -193 10 -138 3 -198 0 -251 -12z"/>
<path d="M16042 3631 c2 -5 162 -188 356 -407 194 -219 351 -402 350 -406 -2
-5 -174 -202 -383 -439 -209 -237 -381 -435 -383 -440 -2 -5 213 -9 495 -9
l498 0 164 235 c90 129 164 235 165 235 1 0 76 -106 166 -235 l164 -235 498 0
c274 0 498 2 498 5 0 2 -178 203 -395 445 l-394 441 357 397 c197 218 361 403
366 410 6 9 -91 12 -473 12 l-480 0 -147 -217 c-81 -120 -150 -222 -154 -226
-4 -5 -76 93 -159 217 l-152 226 -480 0 c-278 0 -479 -4 -477 -9z"/>
<path d="M11295 1115 c-233 -50 -349 -234 -315 -500 31 -241 187 -358 480
-358 292 -1 446 97 494 316 l6 27 -129 0 -129 0 -7 -27 c-20 -81 -91 -138
-187 -149 -116 -14 -212 36 -260 134 -34 70 -33 195 4 273 42 91 109 131 218
132 109 0 207 -62 225 -142 l7 -31 128 0 128 0 -12 53 c-18 75 -48 127 -101
176 -55 50 -110 77 -203 96 -83 18 -266 18 -347 0z"/>
<path d="M490 695 l0 -415 115 0 115 0 0 415 0 415 -115 0 -115 0 0 -415z"/>
<path d="M1770 695 l0 -415 115 0 115 0 2 275 3 275 214 -275 215 -275 128 0
128 0 0 415 0 415 -115 0 -115 0 -2 -277 -3 -276 -209 276 -209 277 -134 0
-133 0 0 -415z"/>
<path d="M3660 1025 l0 -85 150 0 150 0 0 -330 0 -330 120 0 120 0 0 330 0
330 150 0 150 0 0 85 0 85 -420 0 -420 0 0 -85z"/>
<path d="M5470 695 l0 -415 390 0 390 0 0 80 0 80 -275 0 -275 0 0 90 0 90
260 0 260 0 0 80 0 80 -260 0 -260 0 0 80 0 80 275 0 275 0 0 85 0 85 -390 0
-390 0 0 -415z"/>
<path d="M7270 696 l0 -416 115 0 115 0 0 150 0 150 144 0 c79 0 157 -5 175
-11 43 -15 60 -53 67 -146 3 -43 7 -93 10 -110 l5 -33 129 0 c72 0 130 2 130
3 0 2 -7 19 -16 36 -10 20 -20 77 -25 142 -9 122 -32 186 -74 209 l-25 13 28
18 c40 24 70 65 83 113 23 85 -10 204 -68 243 -71 48 -70 48 -440 51 l-353 3
0 -415z m591 215 c54 -55 29 -139 -49 -161 -20 -5 -99 -10 -174 -10 l-138 0 0
100 0 100 166 0 166 0 29 -29z"/>
<path d="M9258 753 c-86 -197 -168 -384 -182 -415 l-26 -58 128 0 127 0 33 85
34 85 183 0 184 0 32 -85 32 -85 128 0 128 0 -65 148 c-36 81 -118 267 -182
414 l-117 268 -140 0 -140 0 -157 -357z m408 -125 c5 -17 -4 -18 -111 -18
-107 0 -117 1 -111 18 4 9 30 77 58 150 l51 133 54 -133 c29 -73 56 -140 59
-150z"/>
<path d="M12870 1025 l0 -85 155 0 155 0 0 -330 0 -330 115 0 115 0 0 330 0
330 155 0 155 0 0 85 0 85 -425 0 -425 0 0 -85z"/>
<path d="M14690 695 l0 -415 115 0 115 0 0 415 0 415 -115 0 -115 0 0 -415z"/>
<path d="M15872 1080 c7 -16 90 -203 183 -414 l170 -385 126 -1 126 0 181 409
c100 225 182 412 182 415 0 3 -57 6 -127 6 l-128 0 -115 -304 c-63 -168 -118
-302 -121 -298 -3 4 -54 133 -112 287 -58 154 -109 288 -112 298 -6 15 -23 17
-136 17 l-129 0 12 -30z"/>
<path d="M17780 695 l0 -415 395 0 395 0 0 80 0 80 -275 0 -275 0 0 90 0 90
260 0 260 0 0 80 0 80 -260 0 -260 0 0 80 0 80 270 0 270 0 0 85 0 85 -390 0
-390 0 0 -415z"/>
</g>
</svg>
