<svg version="1.0" xmlns="http://www.w3.org/2000/svg"
 width="1000.000000pt" height="283.000000pt" viewBox="0 0 1000.000000 283.000000"
 preserveAspectRatio="xMidYMid meet">

    <g transform="translate(0.000000,283.000000) scale(0.100000,-0.100000)"
fill="#f84444" stroke="none">
        
        <path d="M0 1415 l0 -1415 5000 0 5000 0 0 1415 0 1415 -5000 0 -5000 0 0
-1415z m9710 -10 l0 -1115 -4710 0 -4710 0 0 1115 0 1115 4710 0 4710 0 0
-1115z"/>
    
        <path d="M870 2233 c0 -3 111 -379 247 -835 l247 -828 157 0 158 0 25 83 c14
45 124 410 246 811 121 402 223 740 226 753 l6 23 -178 -2 -178 -3 -151 -610
c-84 -335 -155 -603 -158 -595 -7 17 -307 1193 -307 1204 0 3 -76 6 -170 6
-93 0 -170 -3 -170 -7z"/>
        
        <path d="M2897 1413 c-129 -456 -233 -830 -230 -833 8 -9 327 -11 339 -3 7 4
34 96 61 203 l50 195 245 3 245 2 55 -202 54 -203 172 -3 c134 -2 172 0 172
10 0 7 -105 382 -233 833 l-233 820 -231 3 -230 2 -236 -827z m552 176 l88
-324 -170 -3 c-93 -1 -172 0 -175 2 -2 3 33 155 78 338 46 183 85 328 87 322
2 -6 43 -157 92 -335z"/>
        
        <path d="M4867 2103 c-4 -75 -7 -450 -7 -835 l0 -698 520 0 520 0 0 145 0 145
-350 0 -350 0 0 690 0 690 -163 0 -164 0 -6 -137z"/>
        
        <path d="M6290 2234 c0 -5 459 -1528 491 -1631 l11 -33 153 0 153 0 11 33 c25
79 480 1586 486 1610 l7 27 -174 0 -173 0 -150 -600 c-82 -330 -152 -600 -155
-600 -4 0 -76 270 -160 600 l-155 600 -172 0 c-95 0 -173 -3 -173 -6z"/>
        
        <path d="M8290 2053 c0 -104 -3 -360 -7 -570 l-6 -383 356 0 357 0 0 110 0
110 -225 0 -225 0 0 120 0 120 205 0 205 0 0 115 0 115 -205 0 -205 0 0 115 0
115 225 0 225 0 0 110 0 110 -350 0 -350 0 0 -187z"/>
    </g>
</svg>
