<svg version="1.0" xmlns="http://www.w3.org/2000/svg"
 width="525.000000pt" height="96.000000pt" viewBox="0 0 525.000000 96.000000"
 preserveAspectRatio="xMidYMid meet">

    <g transform="translate(0.000000,96.000000) scale(0.100000,-0.100000)"
fill="#000000" stroke="none">
        
        <path fill="blue" d="M3464 920 c-103 -15 -175 -47 -259 -116 l-57 -46 -45 47 c-87 88
-186 120 -354 113 -92 -3 -112 -7 -172 -36 -46 -21 -88 -51 -127 -91 -56 -58
-58 -58 -68 -36 -19 42 -77 98 -122 119 -42 19 -66 21 -332 24 l-288 3 0 -93
c0 -82 2 -95 20 -106 19 -12 20 -23 20 -232 0 -129 -4 -220 -9 -220 -14 0 -47
76 -162 377 l-104 273 -151 0 -150 0 -130 -337 -129 -338 -3 73 -3 72 -89 0
c-74 0 -91 -3 -102 -18 -52 -71 -158 -68 -221 7 -36 44 -61 130 -52 184 14 79
109 146 146 101 10 -12 10 -22 1 -47 -6 -17 -11 -31 -9 -32 1 -1 33 -24 71
-50 l70 -49 113 118 c62 66 113 123 113 129 0 21 -65 88 -121 126 -157 105
-376 109 -528 12 -151 -97 -232 -271 -204 -437 28 -165 133 -284 311 -353 l67
-26 833 -3 832 -3 0 89 c0 85 -1 89 -25 100 -44 20 -30 39 47 62 86 26 135 50
201 97 27 19 50 33 52 31 1 -2 10 -26 19 -54 44 -135 155 -242 306 -295 58
-20 88 -24 268 -27 l202 -4 0 76 0 76 53 -41 c65 -52 173 -105 245 -120 127
-26 275 4 383 77 28 19 52 34 53 34 0 0 -1 -22 -2 -50 l-4 -50 196 0 195 0 3
78 3 77 123 3 122 3 0 -81 0 -80 210 0 210 0 0 105 c0 86 -3 105 -15 105 -8 0
-19 9 -25 19 -13 26 -71 416 -64 435 3 8 12 17 20 20 11 4 14 27 14 96 l0 90
-209 0 -208 0 -15 -52 -14 -53 -23 53 -23 52 -199 0 -199 0 0 -95 c0 -57 -4
-95 -10 -95 -5 0 -10 4 -10 9 0 5 -23 34 -51 65 -101 111 -262 161 -435 136z
m157 -80 c174 -33 313 -179 326 -343 14 -174 -102 -334 -280 -389 -102 -31
-223 -22 -312 21 -83 41 -153 110 -191 186 -26 53 -29 71 -29 150 0 77 4 98
27 147 80 170 268 264 459 228z m-2975 -34 c34 -15 78 -44 98 -65 l36 -37 -70
-69 c-79 -78 -95 -78 -95 2 -1 56 -33 88 -98 98 -102 16 -195 -53 -217 -160
-19 -91 9 -199 70 -269 43 -48 78 -66 154 -77 73 -10 128 2 163 37 13 13 33
24 43 24 18 0 20 -7 20 -90 l0 -90 -143 0 c-208 0 -292 26 -394 123 -29 27
-65 75 -80 106 -24 49 -28 68 -28 146 0 106 19 157 86 230 84 91 171 126 304
122 74 -2 101 -7 151 -31z m2314 3 c60 -28 130 -83 130 -103 0 -6 -29 -40 -64
-75 -56 -56 -66 -62 -84 -52 -18 9 -20 16 -12 36 14 36 -6 82 -44 102 -44 24
-132 23 -174 -2 -99 -59 -129 -206 -68 -340 40 -88 96 -130 197 -146 72 -11
124 0 163 36 15 14 36 25 47 25 17 0 19 -7 19 -90 l0 -90 -140 0 c-76 0 -163
5 -192 11 -116 24 -232 111 -286 213 -24 46 -27 62 -27 151 0 89 3 106 27 150
44 85 135 159 233 192 66 22 209 12 275 -18z m-775 -1 c151 -29 203 -199 102
-331 -30 -40 -119 -89 -241 -132 l-91 -33 -3 -66 c-2 -52 0 -68 13 -72 9 -4
15 -18 15 -35 l0 -29 -130 0 -130 0 0 24 c0 13 9 30 20 37 19 13 20 26 21 293
0 245 -1 280 -15 288 -9 5 -16 22 -16 41 l0 32 197 -2 c109 -2 225 -8 258 -15z
m-714 -303 c89 -234 124 -315 144 -330 14 -12 25 -31 25 -43 0 -22 -2 -22
-140 -22 l-140 0 0 24 c0 13 10 30 22 38 l22 15 -30 79 -30 79 -114 0 -114 0
-23 -60 c-27 -68 -29 -110 -8 -119 8 -3 15 -17 15 -31 l0 -25 -110 0 -110 0 0
25 c0 15 11 35 25 48 19 16 53 97 130 307 58 157 110 295 115 308 9 22 14 23
106 20 l97 -3 118 -310z m2889 170 l46 -139 49 142 48 142 138 0 c129 0 139
-1 139 -19 0 -10 -7 -24 -15 -31 -21 -17 -20 -31 21 -325 22 -162 41 -266 50
-276 8 -8 14 -25 14 -37 0 -21 -3 -22 -130 -22 -125 0 -130 1 -130 21 0 11 9
28 21 38 l21 17 -32 209 c-18 116 -33 211 -34 212 -2 2 -27 -74 -56 -167 l-54
-170 -72 0 -72 0 -52 155 c-29 86 -55 154 -57 152 -6 -7 -53 -331 -53 -370 0
-31 4 -40 20 -44 13 -3 20 -14 20 -29 0 -24 -1 -24 -115 -24 l-115 0 0 25 c0
14 7 28 15 31 21 9 30 49 75 329 l41 250 -21 17 c-11 9 -20 26 -20 37 0 21 3
22 132 19 l131 -3 47 -140z"/>

        <path d="M3476 716 c-90 -34 -135 -101 -144 -214 -13 -194 70 -301 228 -290
110 8 178 89 187 226 6 89 -5 139 -45 203 -46 72 -145 105 -226 75z"/>
        
        <path d="M1957 713 c-10 -9 -9 -293 1 -293 22 0 115 65 151 106 33 38 41 54
41 86 0 52 -15 77 -55 94 -35 14 -126 19 -138 7z"/>
        
        <path d="M5041 913 c-48 -24 -78 -92 -62 -144 12 -41 58 -85 99 -96 40 -10
103 17 129 56 44 65 18 157 -52 187 -44 18 -72 17 -114 -3z m104 -7 c39 -17
75 -68 75 -107 0 -72 -89 -132 -154 -105 -118 49 -91 212 37 225 4 1 23 -5 42
-13z"/>

    </g>
</svg>
