<svg class="logo2_SEGA" version="1.0" xmlns="http://www.w3.org/2000/svg" width="1280.000000pt" height="427.000000pt" viewBox="0 0 1280.000000 427.000000" preserveAspectRatio="xMidYMid meet">

            <g transform="translate(0.000000,427.000000) scale(0.100000,-0.100000)"
fill="#0060a8" stroke="none">

                <path fill="black" d="M11920 4215 c-110 -31 -190 -99 -238 -204 -22 -47 -27 -70 -26 -142
0 -77 4 -94 32 -151 38 -78 101 -139 180 -176 47 -22 71 -27 142 -27 75 0 93
4 150 31 78 37 141 99 178 174 23 48 26 67 26 150 0 116 -20 165 -94 244 -90
95 -228 135 -350 101z m217 -77 c60 -28 119 -87 146 -147 31 -66 30 -179 -1
-242 -93 -190 -330 -233 -479 -87 -115 113 -118 295 -5 411 90 94 223 119 339
65z"/>

                <path fill="black" d="M11860 3870 l0 -200 35 0 35 0 0 85 0 85 43 0 42 0 54 -85 c50 -79
56 -85 87 -85 19 0 34 3 34 8 0 4 -22 42 -49 84 -43 67 -47 78 -32 83 57 18
87 105 56 164 -24 48 -66 61 -195 61 l-110 0 0 -200z m236 128 c22 -21 21 -64
-1 -88 -15 -16 -31 -20 -92 -20 l-73 0 0 66 0 66 75 -4 c52 -2 80 -8 91 -20z"/>
                
                <path d="M10432 3959 c-168 -29 -308 -103 -433 -228 -74 -73 -93 -100 -131
-181 -27 -55 -244 -678 -519 -1488 l-474 -1393 -3 1000 -2 1001 -710 0 -710 0
0 -245 0 -245 460 0 460 0 0 -680 0 -681 -637 3 -638 3 -57 23 c-126 51 -243
168 -288 289 -11 31 -25 88 -30 127 -12 94 -12 1620 0 1714 25 195 168 360
365 420 43 14 170 16 918 19 l867 4 0 244 0 245 -879 0 c-742 0 -891 -2 -958
-15 -395 -75 -690 -353 -796 -750 -21 -78 -21 -99 -25 -975 -2 -614 0 -921 8
-979 33 -248 169 -490 363 -646 98 -80 267 -165 387 -197 l85 -22 1115 -3
1115 -3 510 1502 c281 826 520 1522 531 1547 95 204 390 215 493 19 13 -24
216 -610 451 -1303 l427 -1260 -666 -5 -666 -5 -3 -248 -2 -247 1014 0 1015 0
-248 738 c-685 2031 -826 2442 -857 2503 -41 83 -117 175 -192 235 -69 55
-214 126 -302 149 -77 20 -282 28 -358 14z"/>

                <path d="M1266 3894 c-522 -94 -924 -536 -964 -1059 -46 -595 336 -1115 918
-1251 92 -21 273 -34 501 -34 177 0 198 -2 212 -18 23 -25 21 -55 -4 -78 -20
-18 -51 -19 -825 -22 l-804 -2 0 -245 0 -245 828 0 c794 0 832 1 906 20 103
26 177 69 257 150 207 209 213 544 14 759 -66 71 -133 115 -223 149 -64 23
-83 25 -377 33 -352 10 -406 18 -534 80 -111 54 -239 178 -294 286 -103 199
-103 437 0 636 26 51 62 97 122 157 99 98 186 149 307 180 74 19 114 20 921
20 l843 0 0 250 0 250 -862 -1 c-701 -1 -878 -3 -942 -15z"/>
                
                <path d="M4110 3890 c-380 -81 -662 -351 -767 -735 l-28 -100 0 -940 0 -940
28 -100 c80 -292 267 -521 532 -650 215 -106 133 -99 1203 -102 l932 -4 0 245
0 245 -892 3 c-988 4 -933 0 -1055 69 -116 66 -219 209 -243 338 -6 33 -10
381 -10 905 0 733 2 860 15 911 43 165 166 296 336 357 l64 23 898 3 897 3 0
244 0 245 -912 -1 c-843 0 -920 -2 -998 -19z"/>

                <path d="M10515 3396 c-53 -23 -81 -69 -128 -208 -122 -363 -957 -2817 -966
-2841 l-11 -27 297 2 296 3 178 525 178 525 0 -222 1 -223 585 0 c322 0 585 2
585 5 0 3 -182 543 -405 1202 -282 834 -411 1203 -427 1221 -45 49 -122 65
-183 38z m154 -1646 c44 -135 81 -248 81 -253 0 -4 -79 -7 -176 -7 -137 0
-175 3 -172 13 3 6 42 124 88 260 45 137 86 245 90 240 4 -4 44 -118 89 -253z"/>
                
                <path d="M1343 3276 c-95 -23 -183 -74 -259 -150 -118 -118 -171 -257 -161
-421 12 -194 114 -359 282 -455 98 -56 168 -67 493 -74 331 -8 389 -17 515
-83 99 -51 229 -181 280 -280 103 -199 103 -439 0 -636 -26 -49 -64 -99 -123
-158 -70 -71 -100 -94 -170 -127 -154 -74 -116 -72 -1057 -72 l-843 0 0 -256
0 -256 863 7 c794 6 870 8 959 26 236 47 434 153 604 323 229 229 344 508 344
831 0 507 -313 946 -792 1114 -148 51 -232 61 -538 61 -310 0 -320 2 -320 65
0 68 -46 65 847 65 l803 0 0 245 0 245 -837 -1 c-640 0 -850 -4 -890 -13z"/>

                <path d="M4179 3266 c-101 -41 -163 -99 -208 -196 l-26 -55 -3 -417 -3 -418
861 0 860 0 0 245 0 245 -609 0 c-377 0 -612 4 -616 10 -10 16 22 78 51 97 27
17 71 18 781 21 l753 3 0 244 0 245 -892 0 -893 0 -56 -24z"/>
                
                <path d="M7093 3271 c-101 -35 -179 -106 -225 -207 l-23 -49 0 -900 0 -900 29
-60 c38 -76 105 -143 181 -181 l60 -29 568 -3 567 -3 0 561 0 560 -397 -2
-398 -3 -3 -247 -2 -248 150 0 150 0 0 -60 0 -60 -171 0 -171 0 -33 33 c-24
24 -35 46 -40 78 -3 24 -5 297 -3 606 3 552 3 562 24 590 11 15 32 34 45 40
18 10 193 13 747 13 l722 0 0 245 0 245 -862 0 c-803 -1 -867 -2 -915 -19z"/>
                
                <path d="M3942 1633 l3 -418 27 -55 c43 -88 90 -135 176 -177 l76 -38 893 -3
893 -2 0 245 0 245 -732 1 c-541 0 -742 3 -768 12 -36 13 -80 66 -80 98 0 18
23 19 615 19 l615 0 0 245 0 245 -860 0 -861 0 3 -417z"/>
            </g>
</svg>
