<?xml version="1.0" standalone="no"?>
<!DOCTYPE svg PUBLIC "-//W3C//DTD SVG 20010904//EN"
 "http://www.w3.org/TR/2001/REC-SVG-20010904/DTD/svg10.dtd">
<svg version="1.0" xmlns="http://www.w3.org/2000/svg"
 width="1024.000000pt" height="724.000000pt" viewBox="0 0 1024.000000 724.000000"
 preserveAspectRatio="xMidYMid meet">
<metadata>
Created by potrace 1.16, written by Peter Selinger 2001-2019
</metadata>
<g transform="translate(0.000000,724.000000) scale(0.100000,-0.100000)"
fill="#000000" stroke="none">
<path fill="red" d="M7620 6513 c-54 -4 -256 -32 -288 -40 -19 -4 -8 -14 72 -63 118 -73
313 -204 388 -262 228 -174 428 -337 607 -497 147 -130 599 -587 756 -764
l130 -146 12 39 c24 80 44 230 50 365 12 303 -63 568 -234 822 -205 306 -567
493 -1052 542 -95 10 -334 12 -441 4z"/>
<path fill="red" d="M1200 4518 c-234 -158 -478 -379 -609 -550 -124 -163 -208 -338 -243
-507 -26 -125 -21 -326 11 -442 91 -333 358 -671 772 -977 214 -158 537 -329
823 -436 l69 -26 -144 147 c-292 300 -450 531 -609 893 -112 255 -176 546
-187 845 -5 153 -1 234 23 450 17 151 99 432 173 589 22 48 37 86 33 86 -4 -1
-54 -33 -112 -72z"/>
<path d="M9647 2606 c-146 -285 -431 -650 -758 -971 -269 -264 -565 -507 -864
-709 -196 -132 -387 -248 -451 -272 -24 -9 -44 -20 -44 -24 0 -13 395 -20 582
-10 555 29 951 147 1249 370 87 65 224 210 280 295 142 215 216 452 226 715 6
165 -7 260 -58 412 -33 97 -108 268 -118 268 -3 0 -23 -33 -44 -74z"/>
</g>
</svg>
