<?xml version="1.0" standalone="no"?>
<!DOCTYPE svg PUBLIC "-//W3C//DTD SVG 20010904//EN"
 "http://www.w3.org/TR/2001/REC-SVG-20010904/DTD/svg10.dtd">
<svg version="1.0" xmlns="http://www.w3.org/2000/svg"
 width="800.000000pt" height="246.000000pt" viewBox="0 0 800.000000 246.000000"
 preserveAspectRatio="xMidYMid meet">
<metadata>
Created by potrace 1.16, written by Peter Selinger 2001-2019
</metadata>
<g transform="translate(0.000000,246.000000) scale(0.100000,-0.100000)"
fill="#000000" stroke="none">
<path d="M1200 2011 c0 -6 11 -13 24 -17 20 -5 23 -9 16 -32 -4 -15 -12 -26
-19 -24 -6 1 -11 -2 -11 -8 0 -5 -18 -10 -40 -10 -38 0 -54 -13 -27 -23 6 -3
-1 -6 -17 -6 -20 -1 -27 -5 -23 -15 3 -8 1 -17 -6 -19 -8 -3 -5 -10 8 -21 11
-8 15 -16 9 -16 -16 0 -33 -47 -36 -97 -1 -28 -7 -43 -15 -43 -7 0 -13 -5 -13
-10 0 -6 -11 -15 -25 -20 -14 -5 -25 -15 -25 -21 0 -7 -9 -9 -25 -5 -25 6 -36
-8 -12 -17 6 -2 8 -8 4 -13 -5 -5 -15 -1 -23 10 -7 11 -17 16 -21 12 -4 -4 -1
-11 6 -16 8 -4 11 -15 8 -24 -8 -20 12 -21 38 -2 11 8 26 11 34 8 10 -4 13 -1
8 10 -5 16 45 68 66 68 12 0 5 -163 -8 -172 -6 -5 -5 -11 4 -17 18 -12 28
-451 10 -451 -7 0 -8 -7 -4 -17 12 -29 15 -193 4 -193 -6 0 -8 -4 -5 -9 5 -8
17 -77 19 -106 0 -5 -3 -20 -7 -32 -5 -15 -3 -23 4 -23 7 0 10 -7 6 -15 -3 -8
2 -34 10 -57 8 -24 13 -51 10 -60 -2 -10 0 -37 6 -60 5 -24 11 -47 12 -53 1
-5 5 -16 9 -22 5 -7 5 -13 0 -14 -4 0 2 -4 15 -9 24 -10 52 -4 52 12 0 5 -10
6 -21 3 -15 -5 -19 -4 -15 4 4 6 16 11 26 11 10 0 20 6 23 13 3 8 7 6 12 -7 5
-10 3 -21 -2 -25 -14 -8 -25 -59 -15 -65 17 -10 52 7 52 25 0 10 9 23 20 29
15 8 19 17 15 31 -4 11 -2 19 5 19 7 0 9 7 6 16 -3 8 -2 12 4 9 6 -3 7 -17 4
-31 -5 -21 -3 -24 20 -24 14 0 27 6 27 13 1 6 3 39 5 72 3 72 9 114 19 138 4
10 3 17 -4 17 -14 0 -3 51 13 63 8 6 7 10 -2 14 -10 4 -10 8 -1 20 10 12 10
16 -2 24 -12 7 -12 9 1 10 8 1 21 1 28 0 17 -3 15 10 -5 24 -15 12 -14 12 10
8 20 -4 32 0 43 13 9 11 13 13 9 7 -3 -7 -2 -13 4 -13 18 0 41 12 41 22 0 6
-6 8 -13 5 -16 -6 -41 20 -27 28 6 4 19 3 30 0 22 -7 28 10 8 18 -10 4 -10 6
0 6 6 1 12 8 12 17 0 10 6 14 15 10 10 -3 15 1 15 13 0 20 25 35 41 25 5 -3 7
-10 4 -15 -4 -5 1 -9 10 -9 11 0 15 5 12 15 -13 32 12 22 44 -18 18 -23 37
-43 41 -45 15 -7 8 -31 -7 -26 -34 13 -12 -17 28 -37 23 -12 36 -24 30 -26 -7
-3 -13 -9 -13 -15 0 -5 6 -8 13 -5 14 5 149 -132 141 -145 -3 -5 -1 -7 3 -6
11 4 103 -87 103 -101 0 -5 -8 -14 -17 -20 -23 -12 -13 -22 15 -14 15 3 22 13
22 29 0 18 7 25 28 30 15 3 33 7 40 10 6 2 12 -1 12 -7 0 -6 8 -8 18 -5 12 4
26 -2 38 -15 19 -22 19 -22 -4 -10 -13 7 -26 10 -29 7 -9 -9 6 -38 17 -31 5 3
26 1 47 -4 26 -8 39 -7 44 1 4 6 12 7 18 4 6 -4 9 -12 6 -17 -4 -5 -1 -9 6 -9
7 0 4 -6 -7 -14 -21 -16 -14 -32 11 -23 8 4 15 15 15 26 0 17 8 20 38 12 7 -2
-45 -48 -61 -54 -23 -9 -22 -27 3 -27 11 0 20 5 20 11 0 8 4 8 14 0 11 -9 15
-7 19 9 3 14 12 19 27 18 13 -2 25 3 28 11 3 9 -2 11 -19 7 -13 -3 -18 -3 -12
0 37 17 -4 64 -55 64 -28 0 -33 3 -22 10 10 7 11 12 4 17 -6 5 -13 16 -17 26
-6 16 -2 17 31 11 41 -7 55 -14 29 -14 -20 0 -24 -39 -4 -41 6 -1 22 -3 34 -4
14 -1 23 5 27 18 7 27 0 33 -19 17 -9 -7 -18 -10 -22 -6 -3 3 -1 6 6 6 8 0 11
6 7 16 -3 8 -2 13 2 10 4 -2 14 0 22 5 11 7 12 11 3 17 -16 10 -35 62 -23 62
14 0 12 36 -2 79 -16 47 -17 48 -28 31 -8 -13 -10 -12 -10 2 0 9 6 23 13 30
19 18 14 56 -9 72 -10 8 -16 18 -11 22 4 4 7 2 7 -4 0 -7 7 -12 16 -12 11 0
14 6 9 20 -5 16 -2 20 14 20 12 0 21 5 21 10 0 6 -8 10 -19 10 -13 0 -20 9
-23 30 -2 16 0 31 6 33 6 2 6 11 1 23 -11 28 -13 54 -3 60 4 3 8 -4 8 -15 0
-12 4 -21 9 -21 13 0 21 52 10 71 -4 9 -6 32 -2 52 4 26 1 41 -11 52 -9 9 -16
25 -16 36 0 10 -5 19 -10 19 -6 0 -20 9 -32 20 -17 15 -18 20 -6 20 8 0 26 9
39 21 13 11 25 16 27 10 2 -6 8 -11 14 -11 6 0 8 7 4 15 -3 9 0 15 9 15 8 0
15 7 15 15 0 8 5 15 10 15 6 0 10 14 10 30 0 20 -5 30 -15 30 -18 0 -20 -16
-2 -23 10 -4 10 -6 0 -6 -7 -1 -13 -8 -13 -17 0 -10 -6 -14 -14 -11 -8 3 -17
-1 -20 -9 -4 -10 -11 -11 -31 -4 -13 5 -33 7 -42 4 -17 -5 -17 -5 0 6 21 13
23 34 2 26 -12 -4 -15 5 -15 47 0 47 3 53 21 54 29 3 32 8 19 34 -11 19 -10
25 6 36 14 10 16 17 8 31 -7 10 -8 29 -2 47 6 23 4 33 -8 42 -21 15 -46 63
-33 63 15 0 10 27 -6 34 -19 7 -19 20 -2 38 15 14 19 48 6 48 -4 0 -10 -6 -12
-12 -3 -7 -6 -3 -6 9 -1 15 -11 25 -37 33 -43 15 -50 9 -35 -28 13 -30 5 -86
-10 -77 -4 3 -5 13 -2 22 4 11 2 14 -8 11 -8 -3 -20 2 -28 9 -7 8 -20 12 -27
9 -7 -3 -16 -1 -19 4 -4 6 -1 10 4 10 6 0 11 5 11 10 0 6 -6 10 -12 9 -7 -1
-22 2 -32 6 -13 6 -23 3 -31 -8 -7 -10 -17 -17 -24 -17 -6 0 -11 -11 -11 -25
0 -14 5 -25 11 -25 8 0 7 -6 -2 -16 -10 -13 -14 -75 -14 -278 -2 -297 -8 -338
-58 -355 -28 -10 -32 -8 -79 42 -27 28 -58 64 -69 80 -18 23 -18 27 -4 27 9 0
14 -4 10 -9 -3 -5 8 -9 25 -9 35 1 37 7 9 31 -12 11 -18 25 -15 34 8 19 -2 35
-16 27 -6 -4 -5 -10 3 -15 11 -7 10 -9 -3 -9 -19 0 -89 70 -100 101 -4 10 -16
19 -26 19 -19 0 -62 39 -62 56 0 5 -9 17 -20 27 -16 14 -18 21 -10 36 14 27
13 34 -5 27 -8 -3 -15 -2 -15 3 0 4 -10 12 -23 18 -12 6 -36 30 -52 54 -16 24
-37 53 -46 64 -10 11 -19 25 -19 30 -1 6 -5 9 -10 8 -4 -1 -18 9 -30 22 -13
14 -33 25 -46 25 -23 0 -48 22 -37 33 3 4 -4 7 -16 7 -14 0 -25 -9 -31 -25 -9
-25 -30 -35 -30 -14 0 5 5 7 11 3 9 -5 10 3 5 29 -6 30 -3 40 14 54 36 31 25
49 -47 80 -7 3 -13 0 -13 -6z"/>
<path d="M7210 2010 c-48 -9 -77 -26 -85 -50 -3 -11 -11 -20 -16 -20 -5 0 -9
-7 -9 -15 0 -8 -4 -15 -10 -15 -5 0 -10 -4 -10 -10 0 -5 9 -10 20 -10 26 0 26
-26 0 -40 -20 -11 -20 -20 -3 -83 7 -25 33 -36 105 -43 35 -3 69 -11 76 -16 8
-7 12 -7 12 2 0 7 7 10 15 6 8 -3 27 0 42 7 21 9 27 9 31 -1 2 -7 7 -10 12 -7
5 3 15 -1 23 -9 12 -13 14 -74 10 -408 -2 -216 -8 -420 -13 -453 -9 -59 6
-215 24 -243 4 -7 1 -12 -8 -12 -9 0 -16 -6 -16 -14 0 -8 -3 -21 -6 -30 -3 -9
-1 -16 6 -16 19 0 42 29 34 42 -4 7 2 5 13 -5 11 -9 27 -17 35 -17 9 0 16 -6
15 -12 -1 -36 5 -48 23 -48 13 0 18 -5 14 -15 -4 -9 0 -15 10 -15 9 0 16 5 16
12 0 6 3 8 7 5 3 -4 12 -2 20 5 11 8 12 7 7 -6 -3 -9 -2 -16 4 -16 16 0 24 33
10 41 -8 5 -3 10 15 14 15 4 27 12 27 17 0 6 -7 8 -15 4 -22 -8 -18 2 6 15 17
9 24 8 31 -2 6 -9 8 10 6 54 -2 37 0 67 5 67 4 0 7 5 7 10 0 6 -7 10 -15 10
-8 0 -15 7 -15 15 0 9 6 12 15 9 8 -4 15 -1 15 5 0 6 -5 11 -10 11 -6 0 -5 9
2 21 10 17 10 23 1 26 -7 3 -13 13 -13 24 0 10 -5 19 -11 19 -15 0 -1 152 15
163 8 5 8 9 -1 15 -11 7 -13 44 -12 167 0 28 1 28 9 8 5 -13 14 -23 19 -23 15
0 23 57 12 79 -14 26 -14 31 2 31 7 0 13 9 14 20 1 11 -2 18 -8 15 -5 -4 -9 1
-9 9 0 8 8 20 18 25 13 8 14 12 4 19 -16 11 -6 63 11 59 6 -1 13 6 15 17 3 12
0 16 -8 11 -9 -5 -10 -1 -5 16 4 13 12 27 18 31 6 3 12 45 13 92 3 71 1 84
-11 80 -15 -6 -19 -16 -30 -71 -4 -18 -11 -33 -17 -33 -6 0 -8 6 -5 14 3 8 9
42 13 76 4 33 10 63 15 66 10 6 78 16 134 19 22 2 59 6 83 10 38 7 42 10 42
36 0 17 -8 34 -21 43 -15 10 -23 29 -27 61 -6 55 -48 105 -90 105 -65 1 -244
12 -264 16 -13 3 -94 7 -181 9 -86 2 -161 6 -165 8 -4 2 -23 1 -42 -3z"/>
<path d="M499 1950 c-1 -3 -1 -8 -1 -11 2 -9 -55 -20 -70 -14 -7 3 -19 -5 -27
-17 -12 -19 -11 -23 5 -35 18 -13 10 -18 -23 -14 -7 1 -13 -5 -13 -14 0 -8 -4
-15 -10 -15 -5 0 -10 5 -10 10 0 6 -4 10 -9 10 -6 0 -9 -9 -8 -20 1 -11 7 -20
14 -20 7 0 13 -4 13 -10 0 -5 -6 -10 -14 -10 -14 0 -31 -29 -22 -38 3 -2 12 3
21 12 19 19 35 21 35 4 0 -6 9 -3 20 7 11 10 20 14 20 9 0 -5 18 -10 40 -10
33 -1 40 2 34 15 -3 9 -9 25 -12 36 -5 19 -5 19 12 2 14 -14 21 -15 32 -6 20
16 17 22 -6 16 -11 -3 -18 -1 -14 4 3 5 10 9 15 9 5 0 22 11 37 25 15 14 33
23 41 20 8 -3 11 0 8 9 -3 7 0 19 6 25 18 18 -2 25 -22 7 -18 -16 -19 -16 -17
1 1 14 -7 18 -36 18 -21 0 -39 -2 -39 -5z"/>
<path d="M4775 1886 c-16 -12 -17 -17 -7 -24 10 -7 7 -16 -16 -39 l-30 -30 4
-244 c2 -134 6 -329 9 -434 3 -104 5 -255 5 -335 1 -169 13 -261 41 -307 21
-34 35 -36 101 -19 15 5 35 3 47 -4 17 -9 25 -8 37 5 17 17 39 21 29 5 -3 -5
-2 -10 4 -10 6 0 8 -7 5 -15 -7 -17 11 -21 21 -5 4 6 11 7 17 4 7 -5 8 -2 3 6
-4 7 -2 15 4 19 6 4 12 28 13 53 2 48 18 57 18 11 0 -15 7 -34 15 -44 14 -15
14 -18 0 -33 -19 -19 -13 -46 10 -46 21 0 36 43 29 83 -3 17 -7 57 -10 86 -2
30 -11 62 -19 71 -12 14 -12 19 0 44 10 19 12 33 6 40 -6 7 -10 27 -9 46 0 19
-2 42 -4 50 -3 8 -11 43 -18 78 -7 34 -17 62 -22 62 -13 0 -38 26 -32 33 3 3
12 3 19 1 8 -3 12 3 11 18 -1 13 2 28 7 35 5 7 5 19 -1 29 -6 12 -7 27 -1 43
11 27 -4 44 -32 38 -13 -4 -16 12 -17 108 -1 62 3 127 8 146 7 22 6 35 -1 39
-7 5 -8 28 -4 66 6 47 2 72 -15 123 -14 43 -19 76 -15 98 3 18 2 33 -3 33 -5
0 -14 11 -20 25 -6 14 -16 25 -22 25 -7 0 -18 7 -27 16 -9 8 -23 12 -31 9 -8
-3 -19 0 -24 7 -5 9 -10 10 -15 2 -5 -6 -18 -7 -33 -3 -16 4 -19 7 -7 8 9 1
17 8 17 17 0 8 -4 13 -9 10 -5 -4 -11 -1 -13 4 -2 7 -11 5 -23 -4z"/>
<path d="M4360 1810 c0 -5 -7 -7 -15 -4 -9 4 -15 0 -15 -10 0 -9 -4 -16 -10
-16 -5 0 -10 5 -10 10 0 6 -5 10 -11 10 -5 0 -7 -5 -3 -11 4 -7 1 -10 -7 -7
-13 4 -26 -11 -50 -62 -15 -31 -17 -142 -8 -380 6 -149 5 -188 -6 -199 -12
-12 -17 -12 -39 3 -26 16 -76 86 -76 105 0 5 -4 11 -8 13 -4 2 -18 23 -31 47
-16 31 -18 41 -7 32 24 -20 20 5 -4 29 -12 12 -24 19 -29 16 -4 -3 -16 9 -26
27 -10 18 -26 39 -34 47 -8 8 -26 33 -40 55 -61 94 -124 175 -137 175 -8 0
-14 5 -14 10 0 10 -25 8 -123 -7 -25 -3 -50 -17 -71 -38 -28 -27 -34 -42 -39
-95 -10 -89 -9 -122 3 -115 6 3 10 1 10 -4 0 -6 -4 -11 -10 -11 -15 0 -12 -57
3 -63 9 -4 9 -7 -1 -14 -15 -11 -14 -95 2 -86 6 4 5 0 -2 -9 -15 -19 -7 -547
11 -643 6 -33 11 -95 11 -139 l0 -78 42 -43 c24 -23 46 -54 50 -69 7 -31 15
-32 38 -7 10 11 23 18 29 15 15 -5 61 61 54 79 -3 7 3 13 13 13 10 0 16 -4 14
-8 -3 -4 9 -8 26 -8 31 0 32 1 26 38 -4 20 -9 97 -11 171 -3 73 -7 136 -10
140 -2 4 -7 68 -9 142 -3 74 -3 128 0 122 3 -7 10 -13 15 -13 16 0 10 26 -11
50 -25 28 -25 27 1 41 17 9 25 7 46 -13 14 -12 33 -39 43 -58 9 -19 28 -55 42
-80 l25 -45 -29 -2 c-21 -2 -28 2 -28 16 0 11 -7 22 -16 25 -22 9 -24 8 -24
-9 0 -8 4 -15 9 -15 5 0 13 -10 17 -22 9 -30 66 -98 81 -98 6 0 15 -9 18 -20
4 -13 18 -23 36 -27 21 -4 38 -20 61 -57 18 -28 35 -55 37 -61 2 -5 20 -29 39
-53 24 -29 41 -42 53 -39 10 3 19 2 21 -2 5 -10 101 -41 130 -41 18 0 29 7 33
20 3 11 21 27 39 35 37 18 72 80 62 111 -3 11 -8 118 -11 239 -14 568 -23 720
-50 861 -5 24 -79 79 -94 69 -7 -3 -8 0 -5 9 3 9 1 16 -5 16 -6 0 -11 -4 -11
-10z"/>
<path d="M2660 1790 c0 -18 -3 -19 -20 -10 -13 7 -20 7 -20 1 0 -7 -9 -7 -26
-1 -17 7 -32 7 -45 0 -10 -6 -26 -10 -35 -8 -15 3 -16 -20 -15 -227 2 -166 5
-232 14 -237 9 -6 9 -8 0 -8 -7 0 -13 -6 -13 -14 0 -8 -6 -17 -12 -19 -10 -4
-10 -8 -1 -14 8 -6 14 -90 18 -283 4 -151 10 -295 14 -320 5 -30 3 -54 -6 -70
-22 -44 -27 -92 -11 -104 8 -6 21 -26 29 -43 7 -18 18 -33 22 -33 5 0 6 -8 3
-18 -7 -20 18 -61 30 -50 4 4 1 15 -7 24 -11 13 -11 18 -1 21 19 7 14 30 -8
36 -27 7 -25 23 3 31 42 11 48 8 35 -19 -9 -19 -9 -28 0 -37 16 -16 28 -2 13
16 -9 11 -7 15 8 19 30 8 34 -28 4 -44 -13 -7 -21 -19 -19 -26 3 -7 1 -13 -5
-13 -6 0 -7 -5 -4 -10 3 -6 1 -10 -4 -10 -20 0 -11 -28 10 -33 25 -7 49 1 49
15 0 6 -6 8 -14 5 -8 -3 -17 1 -20 9 -4 11 0 13 18 8 19 -4 27 0 36 16 9 17 9
24 0 30 -8 5 -4 15 14 35 14 15 26 31 26 34 0 3 25 6 55 5 30 0 89 8 131 19
58 16 77 18 83 8 6 -9 15 -9 36 -1 20 8 31 7 43 -2 12 -10 16 -10 19 0 3 6 11
12 19 12 8 0 14 5 14 10 0 6 7 10 16 10 21 0 46 26 42 44 -2 8 15 28 36 45 44
35 113 126 146 192 13 26 24 72 27 111 4 49 11 73 26 89 14 15 17 24 9 27 -7
2 -9 15 -5 33 3 18 1 29 -6 29 -14 0 -10 22 6 35 10 8 10 22 0 65 -8 31 -12
61 -9 68 2 6 -3 18 -11 26 -8 8 -17 40 -21 71 -8 68 -58 173 -120 248 -25 30
-42 58 -38 63 4 4 2 5 -3 1 -6 -3 -28 13 -50 35 -22 22 -57 49 -77 59 -21 11
-38 23 -38 28 0 5 -25 12 -55 16 -30 3 -57 11 -61 16 -3 5 -12 6 -20 1 -8 -4
-40 -5 -72 -1 -31 3 -67 3 -78 -2 -12 -4 -25 -5 -29 -1 -3 3 -10 1 -14 -6 -8
-13 -41 -6 -41 9 0 5 -4 9 -10 9 -5 0 -10 -9 -10 -20z m291 -310 c9 0 34 -8
55 -17 128 -58 154 -100 154 -248 0 -81 -3 -100 -17 -110 -10 -7 -18 -28 -19
-46 -1 -19 -5 -49 -9 -66 -5 -22 -4 -33 4 -33 6 0 11 -4 11 -9 0 -5 -7 -8 -16
-7 -9 0 -19 -5 -22 -13 -3 -10 0 -12 12 -8 21 8 20 5 -8 -51 -34 -67 -102
-123 -148 -121 -13 0 -17 3 -10 6 6 2 12 8 12 12 0 13 -104 33 -152 30 -32 -3
-44 0 -41 8 3 6 -1 21 -7 33 -9 17 -8 26 5 46 9 13 14 28 11 33 -9 13 -10 75
-2 99 6 18 4 22 -13 22 -12 0 -21 5 -21 11 0 5 5 7 10 4 6 -3 10 1 10 9 0 9
-4 16 -9 16 -5 0 -9 53 -8 120 1 66 -1 120 -5 120 -3 0 -4 19 0 43 6 49 28 72
49 51 8 -7 20 -11 28 -8 18 7 19 21 3 27 -8 3 -6 6 5 6 9 1 17 6 17 12 0 7
-10 9 -25 5 -17 -4 -31 -1 -40 8 -23 23 -17 31 7 10 21 -19 21 -19 16 4 -5 18
-2 22 19 22 13 0 21 -4 18 -10 -3 -5 1 -10 10 -10 9 0 13 5 10 10 -3 6 1 10
10 10 9 0 13 -4 10 -10 -3 -5 1 -10 9 -10 9 0 16 7 16 16 0 14 2 14 22 0 12
-9 30 -16 39 -16z"/>
<path d="M395 1761 c-3 -6 -11 -9 -16 -6 -5 4 -9 2 -9 -4 0 -5 6 -12 13 -14 7
-4 6 -6 -5 -6 -9 -1 -18 5 -21 12 -3 9 -7 9 -19 0 -10 -9 -34 -11 -72 -8 -48
5 -62 2 -88 -16 -33 -24 -58 -73 -58 -115 0 -19 -4 -25 -15 -20 -9 3 -15 0
-15 -9 0 -8 5 -15 11 -15 6 0 3 -8 -6 -17 -23 -23 -51 -5 -47 30 2 17 -3 29
-17 36 -19 10 -19 8 -18 -64 1 -41 -1 -75 -5 -75 -4 0 -6 -9 -5 -20 1 -11 4
-20 8 -20 4 0 5 -17 2 -37 -5 -37 -6 -125 -5 -423 0 -80 0 -215 0 -300 0 -85
2 -171 5 -190 3 -19 11 -74 17 -121 14 -104 32 -124 120 -128 30 -1 56 -6 58
-11 2 -4 23 -5 47 -2 l45 5 -6 -32 c-6 -27 -4 -31 15 -31 14 0 21 6 21 19 0
11 -3 21 -7 24 -5 2 -3 3 3 1 6 -1 15 1 20 6 5 4 36 11 69 14 42 5 56 4 45 -3
-13 -9 -12 -11 5 -11 11 0 27 4 35 10 8 5 17 5 20 0 6 -10 88 -13 135 -6 16 3
33 0 37 -6 5 -9 10 -8 21 1 12 9 16 9 19 -1 5 -14 68 -21 68 -7 0 5 -7 9 -15
9 -9 0 -12 6 -9 15 4 8 13 15 20 15 8 0 17 -7 20 -15 10 -24 21 -17 22 14 0
22 -5 30 -21 35 -22 5 -22 5 -2 20 11 9 28 16 38 16 23 0 22 27 -2 35 -27 8
-35 35 -11 35 26 0 26 27 0 35 -12 4 -20 15 -20 28 0 31 -55 59 -122 61 -29 1
-57 4 -63 8 -5 3 -55 9 -110 13 -66 5 -113 14 -137 26 l-38 19 1 83 c2 112 9
139 37 143 12 2 22 -1 22 -7 0 -13 36 -7 141 24 50 15 112 26 153 26 130 3
175 50 156 166 -13 80 -18 93 -40 105 -18 9 -125 18 -298 24 -56 2 -98 8 -105
15 -9 10 -8 11 6 6 13 -6 17 -2 17 14 0 12 -5 21 -12 21 -6 0 -2 9 10 20 12
11 26 20 32 20 5 0 10 9 10 21 0 11 7 27 15 35 17 18 20 34 5 34 -5 0 -10 -4
-10 -10 0 -5 -9 -10 -20 -10 -14 0 -20 6 -19 23 1 16 2 18 6 5 7 -29 23 -20
23 13 0 24 -4 30 -15 25 -11 -4 -15 2 -14 22 1 17 3 20 6 10 2 -10 9 -18 15
-18 6 0 8 10 5 21 -5 20 -3 21 40 16 25 -3 49 -10 53 -17 8 -13 60 -8 106 11
16 7 43 13 59 15 113 10 175 33 175 64 0 9 6 22 12 28 9 9 10 15 2 20 -7 4
-15 32 -19 62 -9 68 -19 88 -51 100 -26 10 -254 25 -342 22 -46 -1 -55 1 -59
18 -3 11 -9 20 -13 20 -5 0 -15 3 -23 6 -8 3 -18 0 -22 -5z"/>
<path d="M5659 1705 c-83 -14 -133 -35 -143 -60 -3 -10 -13 -14 -23 -11 -12 3
-32 -7 -57 -29 -21 -19 -42 -32 -48 -29 -5 3 -18 -2 -28 -11 -12 -11 -26 -14
-39 -10 -13 4 -21 2 -21 -5 0 -13 -17 -30 -45 -46 -25 -14 -26 -38 -1 -42 14
-3 17 0 13 12 -5 11 -1 16 12 16 10 0 21 -7 25 -15 5 -13 -29 -104 -43 -115
-6 -4 -18 -41 -37 -107 -2 -7 -10 -10 -19 -7 -19 8 -19 -3 0 -22 11 -12 12
-20 5 -34 -10 -18 -14 -141 -10 -295 2 -96 28 -226 55 -279 40 -77 111 -180
152 -219 39 -38 169 -108 212 -114 14 -2 42 -5 61 -6 19 -1 34 -7 33 -13 -1
-6 17 -11 43 -12 24 0 44 4 44 9 0 4 9 13 20 19 16 9 24 7 36 -5 15 -15 14
-15 -10 -9 -20 5 -26 2 -26 -10 0 -23 56 -22 65 2 6 15 8 15 25 -6 18 -22 20
-22 49 -8 17 9 39 16 51 16 11 0 20 7 20 15 0 8 -4 15 -9 15 -5 0 -7 9 -4 20
4 14 14 20 34 20 16 0 29 5 29 10 0 6 -4 10 -9 10 -17 0 -6 35 19 61 44 48 49
56 64 117 35 132 8 512 -36 512 -15 0 -8 29 10 42 12 9 18 28 20 62 1 27 7 55
13 63 16 19 5 27 -20 13 -17 -9 -21 -8 -21 5 0 8 5 15 10 15 6 0 10 5 10 11 0
6 -7 8 -16 5 -21 -8 -45 11 -37 30 4 10 0 12 -10 8 -31 -11 -40 7 -16 32 17
18 24 38 25 71 1 30 8 51 18 58 22 16 20 28 -3 20 -14 -4 -20 1 -26 22 -12 48
-72 118 -123 143 -15 8 -34 20 -44 28 -9 7 -22 14 -30 16 -7 1 -19 5 -25 9 -7
5 -17 6 -22 3 -5 -4 -11 -2 -13 2 -6 16 -83 19 -159 7z m126 -285 c10 8 19 10
23 4 4 -5 16 -11 27 -12 32 -6 85 -51 82 -70 -5 -27 -31 -67 -44 -68 -7 -1
-20 -2 -28 -2 -8 -1 -15 -9 -15 -18 0 -11 5 -14 16 -10 9 3 27 6 40 6 15 0 24
6 24 15 0 17 16 20 25 5 3 -5 17 -10 31 -10 15 0 23 -4 19 -10 -4 -6 -11 -7
-17 -4 -7 5 -9 -2 -6 -20 4 -18 0 -29 -10 -35 -14 -8 -14 -10 0 -25 18 -18 33
-22 23 -6 -3 6 0 10 7 9 20 -1 50 -14 49 -22 -3 -21 0 -28 9 -22 6 3 10 -1 10
-9 0 -17 34 -30 52 -20 10 5 10 4 2 -5 -8 -9 -23 -9 -62 -1 -37 8 -56 8 -72 0
-16 -9 -24 -8 -36 5 -14 13 -14 15 3 17 10 0 29 0 43 -1 19 -1 26 3 27 17 1
15 -6 18 -37 17 -22 0 -42 -4 -46 -7 -3 -4 -19 -4 -35 -1 -19 4 -29 1 -29 -7
0 -7 7 -10 14 -7 10 4 13 1 10 -8 -6 -14 -34 -9 -34 6 0 17 -19 9 -25 -10 -4
-13 -18 -20 -52 -24 -38 -4 -53 -12 -80 -43 -29 -33 -33 -44 -28 -74 3 -19 5
-49 5 -65 0 -21 9 -41 30 -62 26 -26 37 -30 81 -30 28 0 54 -4 58 -9 3 -5 20
-17 38 -27 24 -13 32 -14 36 -5 3 8 6 6 6 -4 1 -10 -4 -18 -9 -18 -6 0 -14 -8
-17 -17 -4 -10 -13 -24 -20 -31 -7 -7 -13 -18 -13 -23 0 -15 20 -10 26 6 4 8
10 15 16 15 5 0 0 -13 -11 -28 -12 -18 -18 -37 -14 -50 7 -30 -9 -47 -65 -65
-73 -24 -121 -23 -177 4 -55 27 -76 58 -95 144 -16 76 -21 99 -25 115 -2 8 -4
21 -4 28 -1 6 -6 12 -12 12 -6 0 -9 -9 -6 -20 3 -11 1 -18 -4 -14 -12 7 -11
44 1 44 6 0 10 14 10 30 0 35 -17 41 -22 8 -3 -21 -4 -21 -9 5 -5 22 -3 27 12
27 11 0 19 5 19 10 0 6 -5 10 -12 10 -9 0 -9 3 0 12 15 15 16 58 1 58 -6 0 -4
7 5 15 8 8 18 36 22 62 6 38 4 49 -11 60 -16 11 -17 16 -5 38 7 14 19 25 25
25 7 0 11 10 11 23 -3 31 16 66 56 103 44 42 100 71 82 43 -8 -14 32 -2 61 17
14 10 21 11 26 2 6 -9 12 -8 24 2z"/>
<path d="M6365 1690 c-11 -5 -16 -9 -11 -9 5 -1 2 -9 -6 -18 -31 -36 -38 -109
-37 -375 0 -145 4 -284 8 -310 4 -27 4 -48 0 -48 -5 0 -6 -26 -3 -57 8 -82 11
-113 14 -115 6 -9 5 -50 -2 -54 -11 -7 -10 -52 2 -59 6 -3 10 -17 10 -31 0
-14 4 -23 9 -20 10 7 53 -29 45 -37 -3 -3 3 -3 15 0 20 5 30 23 13 23 -13 0
-6 51 8 60 11 7 11 11 1 24 -10 11 -10 16 -2 16 6 0 15 -8 18 -18 4 -9 14 -22
22 -29 11 -8 12 -12 4 -13 -7 0 -13 -12 -13 -26 0 -21 3 -24 21 -19 12 4 29 8
38 10 10 1 16 12 16 29 -1 27 10 35 18 14 2 -7 8 -10 12 -5 5 4 2 13 -7 20
-19 15 -5 77 17 77 8 0 15 5 15 10 0 6 -7 10 -15 10 -8 0 -15 6 -15 14 0 8 -6
17 -12 19 -8 3 -6 6 5 6 18 1 25 31 6 31 -14 0 -4 131 16 198 17 56 30 64 104
66 20 1 39 6 44 11 4 6 10 5 16 -4 8 -12 18 -13 55 -4 38 8 46 8 46 -4 0 -8 6
-13 13 -12 9 2 53 -14 75 -27 1 -1 5 -35 8 -75 8 -134 15 -176 34 -211 11 -21
16 -45 13 -58 -5 -19 -3 -22 10 -17 11 4 14 2 10 -9 -3 -7 -1 -14 5 -14 13 0
24 29 15 43 -4 8 -2 8 9 0 25 -21 110 -2 137 31 22 27 32 92 36 246 10 313 11
333 29 345 17 13 23 55 7 55 -17 0 -19 40 -3 49 15 9 15 11 -5 29 -13 10 -20
22 -17 25 3 3 2 12 -2 19 -11 17 -11 40 -1 55 6 8 3 18 -7 28 -9 9 -16 24 -16
34 0 10 -11 23 -25 29 -14 6 -25 16 -25 21 0 14 -44 21 -52 8 -5 -8 -8 -7 -8
4 0 30 -60 35 -60 5 0 -6 -5 -4 -10 4 -12 20 -45 1 -46 -26 0 -11 -5 -29 -12
-41 -7 -12 -12 -49 -12 -82 0 -76 -17 -156 -37 -172 -17 -15 -135 -18 -226 -8
-83 10 -92 22 -106 137 -13 103 -23 141 -52 183 -16 23 -26 26 -76 27 -32 0
-67 -3 -78 -8z"/>
<path d="M2122 448 c-7 -7 -12 -18 -12 -25 0 -7 -5 -13 -11 -13 -13 0 -1 -62
14 -72 6 -4 9 -9 6 -12 -3 -3 -16 4 -28 15 -12 12 -25 18 -29 14 -3 -3 -1 -10
6 -14 13 -8 6 -41 -9 -41 -5 0 -9 -5 -9 -11 0 -6 7 -9 15 -5 8 3 15 1 15 -5 0
-6 6 -9 14 -6 8 3 17 -1 20 -10 4 -8 13 -13 21 -9 10 4 15 -1 15 -16 0 -17 3
-19 12 -10 7 7 20 12 30 12 10 0 18 5 18 11 0 6 -7 8 -16 5 -9 -3 -12 -2 -9 5
4 5 1 18 -7 27 -12 16 -11 16 6 2 18 -14 19 -13 13 3 -3 9 -2 17 4 17 6 0 7 5
4 11 -4 6 0 9 11 7 14 -2 18 3 17 19 -2 16 2 21 12 17 10 -4 15 0 15 15 0 24
-12 27 -32 9 -18 -17 -38 -21 -38 -7 0 6 -6 9 -13 6 -8 -3 -20 -1 -28 4 -10 6
-7 9 14 9 15 0 27 6 27 13 0 9 2 9 8 0 5 -8 12 -9 22 -2 12 8 12 12 2 16 -7 2
-18 10 -25 17 -16 16 -61 18 -75 4z"/>
</g>
</svg>
