<?xml version="1.0" standalone="no"?>
<!DOCTYPE svg PUBLIC "-//W3C//DTD SVG 20010904//EN"
 "http://www.w3.org/TR/2001/REC-SVG-20010904/DTD/svg10.dtd">
<svg version="1.0" xmlns="http://www.w3.org/2000/svg"
 width="1280.000000pt" height="598.000000pt" viewBox="0 0 1280.000000 598.000000"
 preserveAspectRatio="xMidYMid meet">
<metadata>
Created by potrace 1.16, written by Peter Selinger 2001-2019
</metadata>
<g transform="translate(0.000000,598.000000) scale(0.100000,-0.100000)"
fill="#000000" stroke="none">
<path d="M4272 5965 c-380 -48 -772 -174 -1094 -351 -248 -137 -462 -299 -668
-504 -287 -285 -480 -568 -642 -934 -33 -76 -148 -401 -148 -420 0 -3 280 -6
623 -6 l623 0 69 146 68 145 -160 162 c-89 89 -166 172 -172 184 -17 33 -13
94 8 129 10 17 95 108 187 203 155 157 172 171 204 171 48 0 86 -26 204 -138
55 -53 128 -122 161 -153 l60 -58 345 139 345 138 5 254 c7 360 -15 340 376
336 l264 -3 27 -28 28 -27 3 -261 3 -260 52 -23 c29 -12 184 -78 346 -146
l294 -125 167 172 c211 219 229 227 331 157 36 -25 273 -279 321 -344 63 -87
46 -121 -159 -321 l-160 -156 70 -161 70 -162 609 0 608 0 -6 28 c-19 83 -104
325 -155 441 -72 165 -146 299 -254 461 -122 183 -199 276 -384 461 -458 457
-1017 740 -1659 840 -179 28 -636 36 -810 14z"/>
<path d="M12545 3570 c-92 -61 -84 -203 15 -252 126 -64 255 69 194 198 -33
70 -142 98 -209 54z"/>
<path d="M7972 3555 c-134 -29 -210 -99 -232 -214 -14 -76 -12 -225 4 -295 17
-72 40 -104 96 -135 81 -45 135 -52 505 -61 360 -9 422 -15 456 -46 31 -28 23
-100 -14 -128 -27 -20 -42 -21 -312 -24 -349 -4 -358 -2 -379 101 l-6 27 -181
0 -181 0 4 -98 c6 -166 64 -243 210 -278 152 -36 910 -29 1053 9 133 36 178
93 198 248 8 66 8 112 0 178 -30 234 -126 280 -582 282 -299 0 -452 11 -486
33 -23 15 -26 23 -23 63 2 37 9 50 31 67 27 20 40 21 307 21 267 0 280 -1 307
-21 18 -14 30 -33 33 -55 l5 -34 184 -3 184 -2 -5 87 c-10 171 -72 244 -237
279 -93 19 -847 19 -939 -1z"/>
<path d="M0 2980 l0 -581 643 3 642 3 50 23 c111 51 149 123 149 282 0 85 -4
114 -21 151 -27 59 -67 96 -123 113 l-45 13 42 21 c80 41 106 102 106 248 1
80 -3 99 -27 149 -32 65 -82 106 -160 132 -45 16 -117 18 -653 21 l-603 3 0
-581z m1057 268 c25 -23 31 -74 13 -108 -18 -34 -75 -40 -397 -40 l-313 0 0
85 0 85 337 0 c332 0 337 0 360 -22z m27 -419 c34 -26 37 -88 5 -117 -30 -29
-66 -32 -411 -32 l-318 0 0 85 0 85 349 0 c337 0 349 -1 375 -21z"/>
<path d="M1690 2980 l0 -580 650 0 650 0 0 140 0 140 -465 0 -465 0 0 90 0 90
430 0 430 0 0 125 0 125 -430 0 -430 0 0 85 0 85 455 0 455 0 0 140 0 140
-640 0 -640 0 0 -580z"/>
<path d="M3090 3415 l0 -145 250 0 250 0 0 -435 0 -435 185 0 185 0 0 435 0
435 245 0 245 0 0 145 0 145 -680 0 -680 0 0 -145z"/>
<path d="M4580 2980 l0 -580 185 0 185 0 0 215 0 215 370 0 370 0 0 -215 0
-215 180 0 180 0 0 580 0 580 -180 0 -180 0 0 -205 0 -205 -370 0 -370 0 0
205 0 205 -185 0 -185 0 0 -580z"/>
<path d="M6260 2980 l0 -580 650 0 650 0 0 140 0 140 -465 0 -465 0 0 90 0 90
430 0 430 0 0 125 0 125 -430 0 -430 0 0 85 0 85 455 0 455 0 0 140 0 140
-640 0 -640 0 0 -580z"/>
<path d="M9420 2980 l0 -580 600 0 c509 0 613 2 678 16 138 28 210 83 255 194
21 53 22 67 22 370 0 277 -3 320 -18 360 -40 101 -105 159 -217 196 -50 17
-110 19 -687 22 l-633 3 0 -581z m1034 280 c80 -10 113 -30 141 -86 17 -34 20
-58 19 -194 0 -139 -2 -159 -22 -196 -40 -77 -47 -79 -454 -82 l-358 -3 0 285
0 286 303 0 c166 -1 333 -5 371 -10z"/>
<path d="M11440 3088 c-140 -259 -281 -520 -313 -580 l-58 -108 205 0 206 0
50 100 50 100 357 -2 356 -3 52 -95 52 -95 201 -3 c111 -1 202 1 202 5 0 5
-141 265 -314 578 l-313 570 -239 2 -239 3 -255 -472z m631 -75 l80 -153 -215
0 -216 0 46 93 c25 50 73 143 106 205 l61 114 29 -54 c16 -29 65 -122 109
-205z"/>
<path d="M1720 2223 c0 -24 65 -227 107 -333 389 -988 1262 -1696 2308 -1870
105 -17 167 -20 491 -20 330 0 385 2 495 21 393 66 770 208 1098 414 107 68
271 185 271 195 0 14 -794 775 -808 775 -9 0 -169 -61 -354 -135 l-338 -135 0
-238 c0 -253 -4 -282 -50 -322 -21 -19 -38 -20 -289 -23 -287 -2 -296 -1 -335
51 -20 27 -21 44 -26 279 l-5 251 -344 144 -344 145 -176 -176 -177 -176 -46
0 c-59 0 -93 26 -295 233 -144 146 -153 157 -153 193 0 22 9 52 20 69 11 17
90 101 176 188 142 142 156 159 147 180 -5 12 -36 82 -68 155 l-59 132 -526 0
c-289 0 -569 3 -622 7 -64 4 -98 2 -98 -4z"/>
<path d="M4698 2148 c-51 -14 -95 -66 -103 -122 -4 -24 -5 -106 -3 -182 6
-236 16 -244 343 -244 193 0 225 3 261 19 54 25 74 73 74 181 l0 80 -181 0
-180 0 3 -32 3 -33 138 -3 137 -3 0 -34 c0 -46 -17 -80 -47 -94 -39 -18 -387
-15 -423 4 -42 22 -52 68 -48 217 3 124 4 128 31 155 l27 28 204 0 c228 0 239
-3 252 -71 6 -32 9 -34 46 -34 l41 0 -7 43 c-8 51 -32 85 -77 112 -31 18 -54
20 -244 22 -120 1 -226 -3 -247 -9z"/>
<path d="M8267 2151 c-85 -18 -119 -66 -115 -163 6 -124 38 -138 316 -147 186
-5 205 -8 218 -25 20 -28 18 -89 -5 -117 -19 -23 -24 -24 -197 -27 -97 -2
-188 -1 -200 2 -35 9 -54 34 -54 72 0 33 -1 34 -40 34 l-40 0 0 -42 c0 -60 29
-102 83 -123 37 -14 75 -16 248 -13 232 3 259 10 286 76 21 50 14 153 -12 183
-41 45 -78 52 -293 58 -229 7 -232 8 -232 83 0 52 25 75 94 83 81 10 307 1
333 -13 13 -7 25 -26 29 -47 6 -33 8 -35 46 -35 l41 0 -7 43 c-17 104 -53 120
-286 123 -96 2 -192 -1 -213 -5z"/>
<path d="M11463 2151 c-98 -25 -117 -69 -117 -271 0 -135 2 -160 19 -194 40
-79 46 -81 316 -84 227 -3 243 -2 284 18 71 34 80 64 80 260 0 186 -9 215 -75
255 -32 18 -54 20 -255 22 -121 1 -235 -2 -252 -6z m474 -94 c27 -27 28 -32
31 -150 2 -72 -1 -140 -7 -165 -19 -67 -36 -72 -271 -72 l-202 0 -29 29 -29
29 0 147 c0 86 4 155 11 166 22 42 61 49 271 46 l198 -2 27 -28z"/>
<path d="M12270 2150 c-66 -14 -93 -38 -108 -98 -17 -68 1 -146 39 -174 34
-26 130 -37 307 -38 81 0 152 -5 163 -11 48 -25 44 -125 -6 -147 -17 -8 -90
-12 -203 -12 -203 0 -218 4 -228 71 -6 36 -9 39 -40 39 l-34 0 0 -49 c0 -61
33 -105 88 -121 48 -13 396 -13 444 0 20 6 48 24 62 41 23 27 26 39 26 108 0
140 -24 152 -308 160 -202 6 -204 6 -224 31 -15 18 -18 33 -14 60 11 70 57 84
268 79 154 -5 188 -17 188 -69 0 -28 2 -30 40 -30 39 0 40 1 40 35 0 52 -20
84 -64 108 -36 18 -61 21 -216 23 -96 2 -195 -1 -220 -6z"/>
<path d="M5491 1879 c-89 -148 -161 -272 -161 -275 0 -2 21 -4 48 -4 l47 0 33
60 33 60 212 0 212 0 34 -60 c34 -59 36 -60 79 -60 32 0 43 4 40 14 -2 8 -73
132 -158 275 l-155 261 -51 0 -52 0 -161 -271z m299 50 l79 -134 -161 -3 c-88
-1 -163 -1 -165 2 -2 2 32 66 77 141 45 75 84 135 86 132 3 -2 40 -64 84 -138z"/>
<path d="M6150 1875 l0 -275 40 0 40 0 2 231 3 232 160 -232 c149 -215 162
-231 190 -230 28 0 42 17 185 225 l155 225 5 -223 5 -223 43 -3 42 -3 0 275 0
276 -64 0 -63 0 -148 -212 c-81 -117 -151 -217 -155 -221 -4 -5 -77 91 -161
212 l-153 221 -63 0 -63 0 0 -275z"/>
<path d="M7150 1875 l0 -275 270 0 270 0 0 35 0 35 -230 0 -230 0 0 90 0 90
220 0 220 0 0 35 0 35 -220 0 -220 0 0 80 0 80 230 0 230 0 0 35 0 35 -270 0
-270 0 0 -275z"/>
<path d="M8850 2115 l0 -35 135 0 135 0 0 -240 0 -240 40 0 40 0 0 240 0 240
140 0 140 0 0 35 0 35 -315 0 -315 0 0 -35z"/>
<path d="M9560 1920 c0 -266 3 -278 73 -305 36 -14 78 -16 264 -13 315 4 303
-9 303 321 l0 227 -40 0 -40 0 0 -215 c0 -286 19 -265 -238 -265 -176 0 -191
1 -216 21 l-26 20 0 220 0 219 -40 0 -40 0 0 -230z"/>
<path d="M10330 1874 l0 -276 263 4 c256 3 263 4 311 28 80 40 91 72 91 255 0
176 -10 205 -85 243 -43 21 -54 22 -312 22 l-268 0 0 -276z m550 178 c34 -35
43 -85 39 -211 -7 -159 -27 -170 -311 -170 l-198 -1 0 205 0 205 221 0 221 0
28 -28z"/>
<path d="M11130 1875 l0 -275 40 0 40 0 0 275 0 275 -40 0 -40 0 0 -275z"/>
</g>
</svg>
