<svg version="1.0" xmlns="http://www.w3.org/2000/svg" width="3125.000000pt" height="2859.000000pt" viewBox="0 0 3125.000000 2859.000000" preserveAspectRatio="xMidYMid meet">

    <g transform="translate(0.000000,2859.000000) scale(0.100000,-0.100000)"
fill="#546ca4" stroke="none">

        <path d="M14545 28584 c-27 -2 -124 -8 -215 -14 -900 -58 -1829 -250 -2655
-547 -794 -286 -1506 -648 -2220 -1127 -1260 -846 -2416 -2038 -3267 -3371
-156 -243 -398 -662 -398 -688 0 -3 184 -137 409 -297 l410 -293 -28 -56 c-16
-31 -62 -132 -104 -226 -407 -921 -706 -2051 -817 -3090 -45 -424 -64 -1144
-41 -1580 87 -1668 567 -3242 1423 -4670 780 -1299 1835 -2402 3082 -3220
1494 -980 3200 -1529 5060 -1626 292 -15 1077 -6 1326 15 1328 114 2502 438
3650 1007 1830 906 3332 2336 4333 4124 663 1186 1081 2534 1207 3900 34 376
43 642 37 1120 -6 439 -11 570 -42 940 -239 2857 -1446 5309 -3485 7080 -1080
938 -2411 1673 -3830 2116 -828 258 -1629 412 -2530 485 -182 15 -1162 28
-1305 18z m965 -1764 c1992 -93 3852 -809 5360 -2065 490 -409 976 -912 1361
-1410 982 -1269 1601 -2781 1779 -4345 62 -547 69 -1215 20 -1790 -125 -1448
-574 -2794 -1324 -3963 -601 -938 -1395 -1745 -2327 -2365 -1057 -703 -2284
-1150 -3549 -1292 -345 -38 -471 -45 -895 -45 -441 0 -551 6 -884 51 -1479
198 -2868 925 -3840 2009 -751 837 -1225 1836 -1390 2925 -70 465 -80 1015
-26 1462 101 835 402 1594 890 2243 317 423 699 785 1155 1094 l105 71 83 -87
82 -87 -63 -66 c-180 -185 -399 -524 -592 -915 -133 -270 -219 -476 -311 -750
-199 -595 -277 -1122 -245 -1669 27 -449 98 -829 230 -1226 542 -1621 1995
-2756 3811 -2974 418 -51 928 -51 1345 -1 1473 179 2754 937 3658 2167 406
553 761 1279 957 1958 186 647 266 1188 277 1875 6 375 -2 564 -33 845 -157
1423 -764 2754 -1770 3881 -450 504 -1045 1003 -1629 1367 -1103 687 -2312
1072 -3620 1153 -360 22 -1003 3 -1370 -41 -958 -115 -1877 -383 -2769 -807
-523 -249 -1019 -544 -1454 -867 -71 -53 -133 -96 -137 -96 -3 0 -42 32 -85
72 l-79 72 86 125 c592 866 1307 1573 2173 2146 447 297 918 544 1410 743
1128 454 2362 660 3610 602z m-1335 -3704 c1302 -140 2473 -633 3465 -1459
182 -152 561 -530 704 -702 495 -597 837 -1236 1024 -1912 l20 -72 -105 -40
c-58 -23 -108 -41 -112 -41 -4 0 -45 48 -91 108 -462 589 -1070 1151 -1695
1567 -333 222 -800 472 -1160 621 -447 185 -979 330 -1456 398 -314 45 -421
51 -859 50 -433 0 -566 -8 -885 -55 -1503 -218 -2797 -991 -3723 -2224 -660
-880 -1099 -1976 -1241 -3103 -47 -370 -62 -781 -41 -1127 7 -115 13 -223 14
-240 1 -28 -2 -30 -112 -71 -61 -23 -114 -39 -116 -35 -13 21 -91 228 -135
357 -130 387 -228 821 -275 1219 -85 720 -12 1527 208 2285 714 2465 2910
4266 5461 4479 72 6 150 13 175 15 120 10 794 -3 935 -18z m1345 -4257 c630
-57 1216 -386 1590 -890 228 -307 368 -655 415 -1029 23 -178 17 -462 -14
-635 -73 -416 -262 -809 -538 -1122 l-64 -72 104 -73 c57 -40 223 -156 370
-258 146 -102 266 -190 267 -196 0 -19 -169 -221 -277 -330 -433 -433 -961
-703 -1558 -796 -190 -30 -599 -32 -775 -5 -432 68 -796 209 -1145 442 -175
117 -307 228 -455 382 -327 338 -561 759 -674 1211 -62 249 -79 393 -80 672 0
336 34 558 129 845 304 913 1109 1625 2051 1814 239 49 434 60 654 40z"/>
    
        <path fill="black" d="M13490 5899 c-871 -62 -1495 -550 -1662 -1296 -19 -84 -22 -129 -23
-318 0 -190 3 -235 23 -333 105 -521 406 -870 997 -1157 118 -57 245 -109 790
-324 567 -223 767 -412 767 -721 -1 -219 -116 -402 -316 -500 -131 -65 -186
-75 -381 -74 -151 1 -181 4 -270 27 -126 34 -277 107 -380 184 -167 125 -330
328 -420 525 -22 48 -43 86 -48 85 -4 -1 -230 -164 -502 -362 -310 -226 -494
-366 -494 -377 -2 -43 92 -238 176 -368 141 -216 345 -415 565 -552 251 -156
543 -259 888 -313 160 -26 587 -32 764 -11 770 89 1334 494 1569 1126 128 344
155 820 67 1155 -99 373 -343 669 -745 905 -200 116 -393 200 -880 379 -330
121 -413 154 -555 226 -277 139 -415 300 -427 499 -20 316 273 534 687 512
250 -13 446 -102 631 -286 86 -86 200 -245 239 -333 l21 -48 27 19 c88 62 978
685 981 688 8 7 -62 138 -119 223 -229 341 -594 600 -1026 726 -274 80 -638
116 -944 94z"/>
    
        <path fill="black" d="M18680 5903 c-363 -26 -648 -81 -933 -180 -373 -129 -722 -338 -942
-562 l-59 -61 94 -95 94 -94 -60 -55 c-32 -30 -62 -55 -66 -56 -13 0 -202
-215 -274 -312 -218 -293 -376 -629 -464 -990 -89 -365 -110 -812 -54 -1182
164 -1098 917 -1918 2029 -2211 304 -81 585 -110 958 -102 590 13 1068 146
1521 422 343 208 666 529 881 875 468 754 583 1763 300 2639 -232 718 -732
1306 -1401 1647 -422 215 -927 328 -1433 322 -81 -1 -166 -3 -191 -5z m485
-1205 c164 -19 380 -84 533 -162 84 -43 254 -161 329 -230 443 -408 641 -1097
507 -1766 -193 -965 -1025 -1512 -2000 -1315 -634 128 -1094 585 -1224 1216
-61 292 -43 625 46 886 76 225 184 396 361 572 l125 124 -102 102 -101 102 58
50 c390 336 912 486 1468 421z"/>
    
        <path fill="black" d="M3 3948 c3 -2104 -2 -1948 67 -2233 182 -756 679 -1298 1416 -1543
141 -47 299 -84 469 -109 172 -25 668 -25 840 0 439 65 801 208 1103 434 99
75 267 237 345 333 289 358 461 816 507 1355 6 76 10 769 10 1893 l0 1772
-630 0 -630 0 0 -1708 c0 -1132 -4 -1745 -11 -1818 -54 -561 -325 -929 -773
-1049 -330 -89 -721 -34 -975 135 -232 155 -377 385 -453 715 l-22 100 -3
1813 -3 1812 -630 0 -630 0 3 -1902z"/>
    
        <path fill="black" d="M5360 2951 l0 -2861 1028 0 c1017 0 1211 5 1415 36 414 61 782 213
1053 435 207 169 376 412 462 664 90 263 111 606 57 893 -90 472 -408 854
-872 1048 l-92 38 67 32 c332 153 564 472 639 874 25 136 25 453 0 570 -36
168 -100 321 -189 454 -65 96 -239 264 -353 339 -242 159 -529 261 -885 313
-101 15 -251 18 -1222 21 l-1108 5 0 -2861z m2120 1730 c222 -67 364 -205 415
-406 20 -78 20 -249 -1 -328 -60 -234 -247 -390 -508 -426 -43 -6 -228 -11
-417 -11 l-339 0 0 601 0 600 388 -3 c366 -4 391 -6 462 -27z m-5 -2082 c208
-26 358 -91 476 -209 132 -130 181 -263 181 -485 0 -222 -52 -364 -182 -496
-85 -87 -187 -143 -325 -181 -76 -21 -105 -22 -537 -26 l-458 -3 0 705 0 706
378 0 c213 0 416 -5 467 -11z"/>
    
        <path fill="black" d="M9870 2950 l0 -2860 635 0 635 0 0 2860 0 2860 -635 0 -635 0 0
-2860z"/>

        <path fill="black" d="M22340 2950 l0 -2860 635 0 635 0 0 1135 0 1135 1225 0 1225 0 0 480
0 480 -1225 0 -1225 0 0 650 0 650 1345 0 1345 0 0 595 0 595 -1980 0 -1980 0
0 -2860z"/>
    
        <path fill="black" d="M26750 5215 l0 -595 815 0 815 0 0 -2265 0 -2265 640 0 640 0 0 2265
0 2265 795 0 795 0 0 595 0 595 -2250 0 -2250 0 0 -595z"/>
    </g>
</svg>
