<svg version="1.0" xmlns="http://www.w3.org/2000/svg"
 width="1280.000000pt" height="1015.000000pt" viewBox="0 0 1280.000000 1015.000000"
 preserveAspectRatio="xMidYMid meet">

    <g transform="translate(0.000000,1015.000000) scale(0.100000,-0.100000)"
fill="#000000" stroke="none">
        
        <path fill="red" d="M3870 10131 c-124 -40 -236 -121 -284 -205 -29 -49 -2761 -7285
-2771 -7337 -8 -45 10 -115 41 -156 13 -17 50 -44 81 -60 l58 -28 4493 -3
c4944 -2 4566 -7 4699 58 74 36 164 116 198 174 13 22 562 1677 1219 3676
1280 3890 1221 3703 1182 3778 -18 34 -61 75 -106 98 -34 18 -162 19 -4395 21
-4159 2 -4363 1 -4415 -16z m8492 -148 c139 -65 189 -211 139 -404 -16 -62
-255 -747 -263 -754 -2 -2 -698 261 -1547 584 l-1545 586 230 3 c881 11 1987
19 2414 18 l505 -1 67 -32z m-5795 -433 c632 -26 1062 -118 1347 -287 117 -69
251 -205 298 -303 57 -116 72 -185 71 -330 0 -136 -15 -217 -63 -361 -159
-474 -590 -816 -1285 -1019 -160 -46 -243 -63 -1053 -206 -422 -74 -810 -144
-862 -155 -215 -44 -392 -117 -505 -206 l-60 -48 1578 -3 c867 -1 1577 -6
1577 -10 0 -4 -94 -300 -209 -657 -115 -357 -208 -651 -207 -653 2 -1 407 294
901 658 l897 660 991 0 c561 0 987 -4 982 -9 -6 -4 -485 -329 -1065 -721 -580
-392 -1060 -718 -1067 -724 -9 -8 120 -290 527 -1156 297 -630 539 -1151 540
-1157 0 -10 -204 -13 -988 -13 l-988 0 -279 713 c-153 391 -281 718 -284 724
-5 8 -110 -58 -310 -197 -167 -115 -309 -214 -315 -220 -5 -5 -82 -236 -171
-512 l-161 -503 -748 -3 c-597 -2 -747 0 -744 10 14 38 898 2807 898 2812 0 3
-738 6 -1640 6 -902 0 -1640 2 -1640 4 0 2 21 60 46 128 58 156 203 453 285
583 384 614 943 1026 1700 1254 208 63 373 100 1074 241 358 71 678 140 713
151 136 45 244 148 278 267 43 147 -52 240 -286 278 -102 17 -400 19 -537 3
-350 -39 -580 -183 -705 -441 l-33 -67 -817 -1 c-450 0 -818 3 -818 8 0 16
130 273 178 349 113 182 293 388 456 520 558 453 1353 641 2503 593z"/>
    
        <path d="M890 1944 c-139 -37 -288 -141 -359 -252 -16 -26 -66 -146 -111 -266
-69 -185 -82 -228 -82 -281 0 -75 24 -128 83 -178 61 -52 133 -79 452 -166
159 -43 292 -82 296 -87 10 -10 -86 -271 -109 -299 -33 -40 -69 -45 -322 -45
-134 0 -249 4 -255 8 -10 6 1 44 42 151 30 78 55 144 55 147 0 2 -101 4 -224
4 l-225 0 -31 -82 c-89 -229 -100 -267 -100 -341 0 -89 21 -138 80 -190 75
-69 61 -67 559 -67 l451 0 64 24 c120 45 224 127 291 229 39 60 192 463 204
537 19 121 -34 214 -156 275 -28 14 -184 61 -345 105 -161 44 -303 84 -315 89
-22 10 -22 10 27 137 27 70 57 136 68 146 10 11 37 23 58 28 52 13 446 13 478
1 l24 -10 -54 -143 c-30 -79 -54 -146 -54 -150 0 -5 101 -8 224 -8 l223 0 64
168 c69 182 83 263 59 347 -17 60 -69 118 -138 152 l-57 28 -405 2 c-329 2
-415 -1 -460 -13z"/>

        <path d="M2199 1933 c-80 -209 -719 -1919 -719 -1925 0 -4 100 -8 223 -8 l222
0 135 360 134 359 386 3 385 3 72 26 c142 52 271 160 326 273 14 28 70 168
124 311 l98 260 0 96 c0 88 -2 99 -28 137 -15 23 -46 56 -69 72 -82 60 -87 60
-710 60 l-568 0 -11 -27z m914 -370 c2 -5 -29 -96 -70 -203 -56 -149 -81 -202
-103 -222 l-30 -28 -285 0 -285 0 19 48 c10 26 49 129 87 230 l68 182 297 0
c164 0 300 -3 302 -7z"/>

        <path d="M4092 1946 c-29 -8 -87 -30 -130 -51 -97 -48 -216 -163 -254 -245
-47 -102 -488 -1290 -498 -1340 -22 -113 25 -221 120 -277 l54 -33 488 0 488
0 64 24 c120 45 224 128 291 229 21 33 122 287 276 697 232 616 243 649 247
725 3 72 0 86 -25 135 -33 65 -92 113 -165 135 -69 20 -872 21 -956 1z m668
-389 c0 -27 -418 -1129 -436 -1148 -9 -10 -33 -23 -53 -29 -47 -13 -546 -13
-571 0 -16 9 0 56 195 577 197 528 215 570 245 591 32 22 38 22 326 22 240 0
294 -2 294 -13z"/>

        <path d="M5123 998 c-199 -530 -365 -971 -368 -981 -7 -16 6 -17 220 -15 l228
3 109 290 c60 160 120 320 134 358 l26 67 186 -2 187 -3 65 -355 65 -355 242
-3 c226 -2 241 -1 237 15 -7 32 -134 727 -134 735 0 4 5 8 11 8 7 0 45 16 86
35 83 40 185 130 231 203 17 26 78 175 137 332 99 263 108 290 108 355 0 117
-52 200 -157 247 l-51 23 -601 3 -600 3 -361 -963z m1290 565 c6 -10 -137
-388 -154 -409 -34 -41 -57 -44 -354 -44 -157 0 -285 2 -285 4 0 2 36 100 80
217 44 118 82 220 85 227 3 9 75 12 314 12 170 0 312 -3 314 -7z"/>

        <path d="M7025 1774 c-39 -103 -71 -191 -73 -195 -2 -5 131 -10 296 -11 l299
-3 -293 -780 c-162 -429 -294 -781 -294 -783 0 -1 102 -1 226 0 l226 3 293
780 293 780 300 3 300 2 26 68 c96 253 116 308 116 315 0 4 -370 7 -823 7
l-822 0 -70 -186z"/>

        <path d="M9070 1944 c-137 -36 -286 -140 -355 -249 -18 -27 -69 -148 -114
-268 -69 -186 -81 -227 -81 -279 0 -108 54 -184 170 -236 30 -14 189 -63 353
-108 164 -45 302 -86 307 -90 10 -11 -85 -271 -109 -298 -38 -43 -58 -46 -321
-46 -216 0 -251 2 -257 15 -3 9 16 73 42 143 26 70 50 133 53 140 3 9 -45 12
-221 12 l-226 0 -19 -53 c-11 -28 -39 -101 -62 -162 -73 -191 -65 -311 25
-394 79 -73 65 -71 566 -71 423 0 453 1 506 20 124 43 261 155 315 255 32 62
183 466 192 518 4 21 2 63 -4 92 -14 70 -75 140 -155 179 -31 15 -194 65 -361
110 -167 46 -308 86 -311 90 -7 7 18 86 66 205 43 107 39 106 331 106 153 0
253 -4 258 -10 6 -6 -7 -55 -38 -135 -26 -69 -50 -135 -54 -147 l-7 -23 224 0
c205 0 225 2 232 18 94 238 127 342 128 402 1 36 -5 83 -12 104 -19 55 -82
119 -144 147 -52 24 -55 24 -457 26 -329 2 -415 -1 -460 -13z"/>
    
    </g>

</svg>
