<svg version="1.0" xmlns="http://www.w3.org/2000/svg"
 width="239.000000pt" height="239.000000pt" viewBox="0 0 239.000000 239.000000"
 preserveAspectRatio="xMidYMid meet">

    <g transform="translate(0.000000,239.000000) scale(0.100000,-0.100000)"
fill="#1478a9" stroke="none">
        
        <path d="M941 2375 c-235 -53 -423 -157 -597 -332 -164 -163 -282 -359 -320
-532 -9 -40 -17 -147 -21 -271 l-5 -205 46 -146 c56 -179 90 -256 160 -364
172 -263 443 -443 768 -509 102 -21 329 -21 438 0 368 69 672 293 855 629 88
162 125 317 125 525 0 213 -40 398 -125 579 -61 128 -118 204 -236 313 -146
135 -266 205 -479 278 l-125 43 -210 3 c-156 3 -226 0 -274 -11z m362 -80
c171 -19 287 -50 404 -109 272 -136 477 -393 560 -701 24 -90 27 -117 27 -270
0 -130 -4 -184 -16 -230 -10 -33 -20 -78 -24 -100 -7 -46 -54 -179 -87 -245
-92 -185 -336 -400 -537 -472 -204 -73 -239 -80 -400 -85 -177 -6 -273 8 -418
58 -177 62 -331 159 -453 285 -158 165 -287 382 -295 499 -2 22 -8 74 -14 115
-10 70 -3 220 15 315 41 219 73 312 128 380 4 6 41 57 81 115 103 148 167 202
351 296 115 59 206 94 355 134 125 34 139 34 323 15z"/>
        
        <path d="M250 1413 c-30 -37 -23 -108 19 -190 46 -92 56 -142 37 -186 -13 -33
-19 -37 -50 -37 -38 0 -51 -22 -20 -34 38 -15 72 -6 99 26 25 29 27 38 23 98
-3 51 -12 83 -41 142 -30 60 -38 86 -35 120 3 39 6 43 31 46 40 5 32 36 -9 40
-25 2 -37 -3 -54 -25z"/>
        
        <path d="M395 1368 c-3 -7 -4 -101 -3 -208 l3 -195 29 -3 c40 -5 76 6 76 22 0
17 -27 28 -51 21 -18 -6 -19 0 -19 84 0 90 0 91 25 91 18 0 25 5 25 20 0 15
-7 20 -25 20 -24 0 -25 3 -25 56 0 54 1 56 24 50 29 -7 53 16 34 32 -23 19
-87 26 -93 10z"/>
        
        <path d="M533 1364 c-3 -10 -7 -103 -7 -208 -1 -174 1 -191 17 -194 15 -3 17
5 17 71 0 41 3 89 6 107 6 30 9 26 31 -51 26 -92 46 -129 68 -129 26 0 26 20
1 73 -25 51 -56 155 -56 187 0 9 16 42 35 74 41 69 42 76 11 76 -18 0 -30 -13
-55 -57 l-32 -58 3 60 c3 50 0 60 -15 63 -9 2 -20 -4 -24 -14z"/>
        <path d="M766 1363 c-2 -10 -7 -49 -11 -86 -4 -37 -18 -116 -31 -175 -29 -129
-29 -132 -4 -132 22 0 25 5 35 63 5 33 9 37 28 31 29 -9 28 -7 34 -54 5 -35 9
-41 27 -38 24 3 24 -6 2 183 -27 239 -24 225 -51 225 -14 0 -26 -7 -29 -17z"/>
            
        <path d="M880 1360 c0 -13 7 -20 20 -20 19 0 20 -7 20 -156 0 -125 -3 -158
-15 -171 -24 -23 -9 -33 51 -33 47 0 54 2 54 20 0 13 -7 20 -19 20 -26 0 -33
48 -29 199 3 118 4 121 26 121 15 0 22 6 22 20 0 18 -7 20 -65 20 -58 0 -65
-2 -65 -20z"/>
        
        <path d="M1246 1372 c-2 -4 -2 -96 1 -205 6 -185 7 -197 25 -197 18 0 19 6 14
98 l-6 97 19 -82 c23 -95 36 -123 57 -123 19 0 17 10 -17 135 -20 75 -21 81
-5 125 22 62 21 115 -4 140 -20 20 -74 28 -84 12z"/>
        
        <path d="M1401 1357 c-16 -40 -22 -190 -12 -266 12 -91 34 -126 81 -126 56 0
74 36 78 160 5 134 -3 187 -34 225 -21 24 -34 30 -65 30 -32 0 -41 -4 -48 -23z
m90 -39 c17 -31 18 -267 1 -296 -34 -60 -61 14 -61 170 -1 64 2 123 5 132 9
23 41 20 55 -6z"/>
        
        <path d="M1745 1370 c-10 -16 -11 -383 -1 -398 10 -16 81 -15 95 2 15 18 -11
40 -39 31 -19 -6 -20 -2 -20 84 0 85 1 90 22 93 34 5 37 38 4 38 -25 0 -26 3
-26 55 0 54 1 55 25 49 18 -4 27 -1 31 11 9 22 -3 32 -47 40 -24 5 -39 3 -44
-5z"/>

        <path d="M1914 1368 c-35 -16 -47 -56 -52 -166 -8 -180 11 -233 84 -236 33 -1
39 2 42 22 3 19 -1 22 -27 22 -47 0 -53 24 -49 170 3 137 11 160 54 160 17 0
24 6 24 20 0 15 -6 20 -27 19 -16 0 -38 -5 -49 -11z"/>
        
        <path d="M2005 1370 c-9 -15 4 -30 25 -30 20 0 19 6 37 -255 6 -88 11 -110 23
-110 18 0 20 84 7 256 l-8 106 23 -1 c37 -2 35 30 -3 38 -47 9 -97 7 -104 -4z"/>
        
        <path d="M1110 1368 c-6 -101 -9 -343 -5 -370 5 -29 12 -38 26 -38 17 0 19 8
19 98 0 96 1 99 25 110 34 16 48 56 42 120 -7 67 -19 82 -68 82 -22 0 -39 -1
-39 -2z"/>
        
        <path d="M1580 1355 c0 -8 8 -15 19 -15 24 0 31 -50 31 -221 0 -116 -2 -131
-20 -149 -11 -11 -24 -20 -30 -20 -5 0 -10 -7 -10 -15 0 -26 56 -18 79 11 20
25 21 40 21 210 0 177 1 184 20 184 11 0 20 7 20 15 0 12 -14 15 -65 15 -51 0
-65 -3 -65 -15z"/>
    </g>
</svg>
