<?xml version="1.0" encoding="UTF-8" standalone="no"?>
<svg
   xmlns:dc="http://purl.org/dc/elements/1.1/"
   xmlns:cc="http://creativecommons.org/ns#"
   xmlns:rdf="http://www.w3.org/1999/02/22-rdf-syntax-ns#"
   xmlns:svg="http://www.w3.org/2000/svg"
   xmlns="http://www.w3.org/2000/svg"
   xml:space="preserve"
   style="enable-background:new 0 0 300 221.4;"
   viewBox="0 0 300 221.4"
   height="221.4px"
   width="300px"
   y="0px"
   x="0px"
   id="svg26"
   version="1.1"><metadata
     id="metadata22"><rdf:RDF><cc:Work
         rdf:about=""><dc:format>image/svg+xml</dc:format><dc:type
           rdf:resource="http://purl.org/dc/dcmitype/StillImage" /></cc:Work></rdf:RDF></metadata><defs
     id="defs20" /><style
     id="style2"
     type="text/css">
	.st0{fill:#FE9803;}
</style><g
     transform="matrix(0.36656528,0,0,0.36656528,-0.00619358,-1.1109422)"
     id="g46"><path
       d="M647.5,527.5c-0.5-0.8-3.2-6-3.5-6.7s-3.9-5.7-4.5-6.4c-0.6-0.8-3.7-6.8-4.3-7.7c-0.7-0.8-8.2-12.3-8.7-13   c-0.2-0.4-1.5-2.6-2.8-4.9c0,1.1-0.1,1.9-0.1,2.3c-0.1,1.4,0.7,14,0.6,15.3c-0.1,1.3-0.7,17.4-0.7,18.4s0.1,8.3-0.1,8.5   c-0.3,0.3-1.8,0.3-2.3,0.4c-0.5,0.1-6.8-0.5-7.4-0.5c-0.6,0-8.9,0.6-9.5,0.6s-8.2-0.3-8.3-0.6s0-5.4,0-6.4s0.5-6.8,0.6-7.5   s-0.3-6.9-0.4-7.9c-0.1-1,0.5-7.8,0.4-8.8c-0.1-1.1-0.4-14.8-0.4-15.6c0-0.9,0.4-9.6,0.4-11.2s-1.1-9.7-1.1-10.5s0.5-11.9,0.5-13.5   c0-1.7-0.3-14.7,0-14.8c0.3-0.1,3-0.1,3.4-0.1s5.3-0.4,6.1-0.3s6.5,0.4,7.9,0.4s7-0.4,8.3-0.2c1.1,0.2,1.7-0.1,1.9,0l0,0   c0.2,0.4,5.2,9.1,5.9,10c0.7,0.8,4.2,5.7,4.9,7.1c0.8,1.4,5.4,8.9,6,10.2c0.6,1.2,5.6,8.4,6.2,9.5c0.5,0.9,3,5.1,4.4,7.6   c0.1-2.3,0.2-4.5,0.2-5.3c0-1.6-1.1-9.7-1.1-10.5s0.5-11.9,0.5-13.5c0-1.7-0.3-14.7,0-14.8c0.3-0.1,3-0.1,3.4-0.1s5.3-0.4,6.1-0.3   s6.5,0.4,7.9,0.4s7-0.4,8.3-0.2c1.4,0.2,2.3,0,2.3,0.4s-0.4,10.5-0.3,11.6c0.1,1.1,0.5,7,0.4,8.6s-0.2,10.4-0.3,11.8   s0.3,10.1,0.2,11.4s-0.3,9.3-0.4,10.7c-0.1,1.4,0.7,14,0.6,15.3c-0.1,1.3-0.7,17.4-0.7,18.4s0.1,8.3-0.1,8.5   c-0.3,0.3-1.8,0.3-2.3,0.4c-0.5,0.1-6.8-0.5-7.4-0.5c-0.6,0-8.9,0.6-9.5,0.6s-8.2-0.3-8.3-0.6l-1.3-2.3L647.5,527.5z"
       id="path2" /><path
       d="M113.1,436.2c0,0-0.1,8.7-0.1,10c0,1.3-0.5,10.9-0.6,12.4s0.6,5.4,0.5,6.3s-0.7,9.3-0.7,10.5s0.6,6.9,0.6,7.4   s-0.4,7.2-0.5,8.2s0.7,4.6,0.7,5.1s-0.6,3.8-0.6,5.3s0.1,8.8,0.1,10s-0.5,7.5-0.6,8.3c-0.1,0.8,0.7,5.3,0.7,5.9   c0,0.6-0.7,6.5-0.6,7c0.1,0.4,5.8,1,6.8,1c0.9,0,9.4-0.3,11.5-0.4c2.1-0.1,10.8,0.9,12.4,0.8c1.7-0.1,7.8-0.8,9-1   s13.3,0.3,14.3,0.3c1.1,0,7.1,0.5,8.3,0.4s3.9-0.1,4.3-0.4c0.4-0.3,0.5-7,0.5-8.2s-0.3-6.3-0.1-7.6c0.1-1.3,0-5.2-0.1-5.9   s0.6-2.9,0.1-3.3c-0.2-0.2-6.2-0.3-8-0.2c-1.8,0.1-6.6,0.8-7.7,0.8c-1.1,0-6-0.5-7.5-0.6c-1.4-0.1-5,0.3-6.2,0.2   c-1.2-0.1-6.6-0.3-7.2-0.3c-0.6,0-0.6-0.9-0.6-1.4s0.4-5.6,0.4-6.8c0-1.2-0.6-4.2-0.5-4.6s6-0.2,7-0.1c1.1,0.1,9.2,0.9,10.8,1   c1.5,0.1,6-0.5,7.1-0.6s7,0,7.2-0.2c0.3-0.3,0.2-3.8,0.4-5s0-6.1-0.2-6.7s0.1-4.4,0.1-5.3c0-1,0.1-4.5-0.4-4.7   c-0.4-0.2-1.3-0.1-2-0.1c-1.4,0-12.4-0.1-13.8-0.2c-1.3-0.1-4.7,0.5-6,0.5s-8.3-0.4-8.8-0.4s-0.9-6-1.1-6.7   c-0.2-0.7,0.7-6.1,0.8-6.4s7,0.4,8.7,0.4s10.6,0,12.4,0c1.8,0,10.4,0.5,11.2,0.5s2.6-0.3,3.1-0.2c0.5,0.1,0.1-7.6,0.2-9.3   c0.1-1.7,0.4-7.6,0.4-8.4s0-5.9,0-6.3s-5.9-0.5-8.1-0.5c-2.2,0-5.5-0.4-6.8-0.4s-12,0.4-13.3,0.4s-8.4-0.8-10.3-0.6   c-1.9,0.1-11.1,0.8-12.3,0.6c-1.2-0.1-10.9-0.4-12-0.4C114.9,436.3,113.4,436.1,113.1,436.2L113.1,436.2z"
       id="path4" /><path
       d="M275.7,477.2c-0.1-1.1-1.9-10.9-2.2-11.8c-0.3-1-4.3-9.9-4.5-10.4s-3.5-6-4.2-7.2c-0.7-1.2-7.7-5.6-8.3-5.9   c-0.6-0.3-8.8-2.8-9.7-3c-1-0.2-7.2-2-8.5-2.2c-1.3-0.1-6.3-0.9-7.9-0.9c-1.6,0-9,0.5-9.8,0.5c-0.9,0-10.3-0.8-11.9-0.6   c-1.6,0.1-9,0.3-9.6,0.3c-0.6,0-5.5-0.1-5.6,0.1c-0.3,0.6,0.3,15.5,0.2,16.2c-0.1,0.8-0.5,11.8-0.5,13s0.6,2.6,0.5,3.2   s-0.6,11.1-0.5,12.3c0.1,1.2,0.7,10.4,0.6,11.3c-0.1,0.9,0,10.9-0.1,12.1c-0.1,1.3,0.3,6,0.4,6.8c0.1,0.8-0.2,9.2-0.2,10.2   s0.5,4.4,0.5,5.1c0,0.7-0.2,6.5,0,6.8s13.1,0.6,14.3,0.8c1.3,0.1,16.6-0.5,17.3-0.6s14.4-1,15-1c0.5,0,8.1-2.3,8.8-2.5   c0.6-0.2,12.4-9,13-9.6c0.5-0.5,6.7-8.3,7.3-9.2c0.5-1,3.1-8.1,3.4-9c0.3-1,1.7-9,2-10.8C275.8,489.5,275.8,478.3,275.7,477.2   L275.7,477.2z M247,485.5c-0.1,0.8-1.6,10.2-2,11.2s-4.6,4-5,4.3s-6.2,3.3-7,3.3c-0.7,0-10.3,0.2-11.2,0.1c-1-0.1-1-0.1-1-0.4   s0-6,0-7.1s-0.3-9-0.1-11.1c0.2-2,0.5-7.7,0.3-9.4c-0.2-1.6,0-11.2,0-11.2c0.2-0.2,6.2-0.8,7-0.8s7.1,0.9,8.6,1.2   c1.5,0.3,5.5,3.8,5.8,4.2c0.3,0.4,2.9,4.4,3,5.2C245.4,475.8,247.1,484.7,247,485.5L247,485.5z"
       id="path6" /><path
       d="M286.5,436.2c-0.2,0.2-0.1,7.6-0.1,8.6s-0.6,17.2-0.7,18.5s0.7,14,0.6,15.4s-0.3,9.5-0.4,10.8   s0.3,10.1,0.2,11.5c-0.1,1.4-0.2,10.3-0.3,11.9c-0.1,1.6,0.3,7.6,0.4,8.7s-0.3,11.2-0.3,11.7c0,0.4,0.9,0.2,2.3,0.4s7-0.2,8.3-0.2   s7.1,0.3,7.9,0.4c0.8,0.1,5.7-0.3,6.1-0.3s3.1,0,3.4-0.1s0-13.3,0-14.9c0-1.7,0.5-12.8,0.5-13.7c0-0.9-1.1-9-1.1-10.6   s0.4-10.4,0.4-11.3s-0.3-14.7-0.4-15.8c-0.1-1.1,0.5-7.9,0.4-8.9s-0.5-7.2-0.4-7.9c0.1-0.7,0.6-6.6,0.6-7.6s0.1-6.1,0-6.4   s-7.7-0.6-8.3-0.6s-8.9,0.6-9.5,0.6s-6.9-0.6-7.4-0.5C288.3,435.9,286.8,435.9,286.5,436.2L286.5,436.2z"
       id="path8" /><path
       d="M413.1,530.4c-0.1-0.7-0.7-5.2-1-6.2s-2.6-7.3-2.8-8.1c-0.2-0.9-1.2-6-1.6-6.9s-2.4-6.2-2.6-7.2   s-2.4-9.3-2.7-10.2c-0.3-0.9-2.6-6.6-2.8-7.4c-0.2-0.7-1.6-6.6-1.9-7.4c-0.3-0.7-4.5-10.5-4.6-11s-1.1-4.4-1.6-6s-3.5-10.2-4-11.8   c-0.5-1.6-3.8-12-4.1-12.2c-0.3-0.2-2.2,0.2-2.9,0.2c-0.7,0-5.7-0.6-6.9-0.6c-1.2,0-5.3,0.5-6.5,0.5s-6.2-0.6-7.1-0.5   s-4.3,0.1-4.5,0.4c-0.2,0.4-2.8,8-2.9,8.7s-5,12.5-5.3,13.6s-2.6,9-3.1,10.1s-5.6,15.6-5.9,16.6c-0.3,1-2,7.4-2.2,8.2   c-0.2,0.9-3.5,10.4-3.8,11.3c-0.3,1-2,9.2-2.4,10.5s-2.8,8.8-3.3,9.9c-0.5,1.2-2.6,7.8-2.5,8s1.5,0.2,1.9,0.2s6-0.1,6.5-0.1   s8.2,0.9,9.6,0.7c1.4-0.1,11.1-0.1,11.2-0.5s0.8-5.2,0.9-6c0.1-0.7,1.3-4.8,1.3-5.5c0-0.4,1.3-3.8,1.3-3.8s7.4,0.4,8.5,0.4   s9-0.7,9.7-0.7s6,0.3,6,0.3l0.6,1.1c0,0,1.3,4.8,1.6,6.1c0.3,1.3,1.8,8.4,2,8.4s5.8,0.1,6.2,0.1c0.4,0,7-0.2,7.6-0.2   s6.3,0.4,7.3,0.4s7.5-0.3,7.5-0.6S413.2,531.2,413.1,530.4L413.1,530.4z M376.6,495.5c-0.5,0-5.2,0-6,0s-7,0.5-8.5,0.4   c-0.5,0-0.5-0.2-0.5-0.6c0.1-0.5,1.3-6.9,1.7-7.7c0.4-0.8,1.8-7.4,1.9-8.2c0.1-0.8,3.6-10,3.8-10.6c0.4-1.2,0.5-0.9,0.7-0.1   s2.3,7.6,2.5,8.4s2.5,7.8,3,9.5c0.5,1.7,1.5,7.8,1.7,8.3C377,495.2,376.9,495.5,376.6,495.5L376.6,495.5z"
       id="path10" /><path
       d="M718,437c0.2,0.2,0.1,7.5,0.1,8.5s0.6,17.1,0.7,18.4c0.1,1.3-0.7,13.9-0.6,15.3c0.1,1.4,0.3,9.5,0.4,10.7   c0.1,1.3-0.3,10-0.2,11.4s0.2,10.2,0.3,11.8c0.1,1.6-0.3,7.5-0.4,8.6c-0.1,1.1,0.3,11.2,0.3,11.6c0,0.4-0.9,0.2-2.3,0.4   c-1.4,0.2-6.9-0.2-8.2-0.2c-1.4,0-7,0.3-7.8,0.4c-0.8,0.1-5.6-0.3-6.1-0.3c-0.4,0-3,0-3.3-0.1s-0.3-10.2-0.3-11.8   c0-1.7,0.5-15.8,0.5-16.6c0-0.8,0.3-8.9,0.3-10.5s-0.4-10.3-0.4-11.2c0-0.9,0-9.8,0.1-10.8c0.1-1.1-0.2-12.7-0.1-13.6   c0.1-0.9,0.2-7,0.1-7.8c-0.1-0.8-0.3-6.7-0.3-7.6s-0.1-6.1,0-6.4s7.5-0.2,8.1-0.2s9.1-0.2,9.7-0.2c0.6,0,8-0.1,8.5,0   C717.7,436.8,717.6,436.7,718,437z"
       id="path12" /><path
       d="M486.8,464.2c-0.7,0-6.9,0.3-7.9,0.4s-7.8-0.5-8.8-0.4c-0.3,0-6.5,0.1-8.2,0.1c-0.1,2.7-0.1,5.4-0.2,6.1   c-0.1,1.3,0.3,9.9,0.2,11.1c-0.1,1.2-0.3,9.1-0.4,10.5c-0.1,1.3,0.7,13.7,0.6,14.9c-0.1,1.2-0.7,17-0.7,18c0,0.9,0.1,8.1-0.1,8.3   c-0.3,0.3-1.8,0.3-2.3,0.4c-0.5,0.1-7.3-0.4-7.9-0.4s-8.3,0.5-9,0.5c-0.6,0-8.2-0.3-8.3-0.6c-0.1-0.3-0.6-5.3-0.6-6.2   s0.5-6.6,0.6-7.4c0.1-0.7-0.3-6.7-0.4-7.7c-0.1-0.9,0.5-7.6,0.4-8.6s-0.4-14.4-0.4-15.3s0.2-8.5,0.2-10s-0.4-6.6-0.4-7.4   c0-0.2,0.2-5.2,0.2-5.5c-0.3,0-10.1-0.4-10.5-0.4c-0.8,0-11.8,0.1-13.4,0.1c0,0-0.5,0-0.8,0c-0.2,0-0.2-0.3-0.2-0.5   c0-0.3-0.1-4.5,0-4.9s-0.3-3.4-0.3-4.2c0.1-0.8,0.3-9.3,0.3-9.8s-0.3-7.7-0.3-8s0.2-0.4,0.4-0.4c1.1,0.1,4.9-0.5,6.5-0.4   s15.3,0.2,16.7,0.3c1.4,0.1,10.1-0.3,11.4-0.2c1.3,0.1,9.3,0.3,10.7,0.4c1.4,0.1,18.9-0.7,20.2-0.6c0.8,0.1,8,0.2,13.2,0.5   c0.3,0,0.4,0.1,0.4,0.2c0.1,0.1,0,5,0,5.9c0,0.8,0,9.6,0,10.3c0,0.7-0.4,6.5-0.4,6.9s0.1,3.5,0.1,3.7S487,464.2,486.8,464.2   L486.8,464.2z"
       id="path14" /><path
       d="M582.9,468.5c-0.5-1.4-3.1-7.2-3.5-8.3c-0.4-1.1-3.1-7.2-4-8.5c-1-1.3-6.4-5.6-7.4-6.7s-7.1-5.7-9.2-6.4   c-2.1-0.6-7.2-1.6-8.4-1.9c-1.1-0.3-6.1-1.3-7.7-1.3c-1,0-9.5-0.2-11.2,0.3c-1.4,0.4-10.1,2.1-11.1,2.4s-7.9,4.6-9.2,5.3   c-1.3,0.7-7.7,6.4-8.4,7c-0.6,0.6-3.9,7-4.7,8c-0.8,1-3.1,8.5-3.4,9.9s-1,9.7-1.3,11.3c-0.3,1.6,0.5,10.1,0.5,10.8   c0,0.7,0.5,9.3,0.8,10.5c0.3,1.3,3.9,10.5,4.3,11.6c0.5,1.1,3.4,7.5,4.2,8.5c0.8,1,4.2,3.7,4.7,4.1c0.5,0.5,8.2,4.5,9.2,4.9   c1,0.5,5.5,2.6,7.2,3.2c1.7,0.6,9.3,0.8,10.9,1c1.6,0.2,10.9-0.6,12.1-0.8c1.1-0.2,7.6-0.5,8.5-0.6c1-0.2,9.5-4.4,11-5.5   c1.5-1,6.5-6.8,7.3-8.2c0.6-1.1,5.7-6.8,6.2-7.9c0.5-1.1,2.7-7.7,3-9s1.7-9.7,1.7-10.7s-0.6-10.2-0.6-11.9   C584.4,477.9,583.4,470,582.9,468.5L582.9,468.5z M555.5,487.1c-0.1,0.7-0.3,4-0.5,4.6c-0.1,0.6-0.9,3.7-1.2,4   c-0.3,0.4-1.5,3-1.7,3.3s-2.6,2.6-3,2.9s-3,2-3.3,2.2c-0.3,0.1-3.5,0.8-4,1c-0.6,0.2-3.7,0.1-4.1,0.1c-0.6,0-2.4-0.4-2.8-0.5   c-0.4-0.1-2.3-0.5-3-0.8c-0.8-0.3-3-2.2-3.3-2.6c-0.3-0.5-2.3-2.2-2.7-2.7c-0.3-0.5-1.3-3-1.5-3.5s-1.1-2.8-1.3-3.4   s-0.6-3.8-0.6-4.6c0-0.7,0.3-4.8,0.3-5.1c0-0.3,0-3.6,0.1-4.1s1.3-3,1.5-3.5s1.3-3.3,1.6-3.7c0.3-0.3,3-2.4,3.5-2.9s3-2.5,3.3-2.5   c0.3-0.1,2.7-0.2,3.1-0.3c0.4-0.1,3.8-0.4,4.4-0.3c0.6,0.1,3.3,0.1,4,0.4c0.6,0.3,2.3,1.1,2.6,1.3c0.3,0.2,3.1,1.8,3.3,2   s1.4,1.3,1.7,1.7c0.3,0.4,1.3,3,1.5,3.5s1.5,4.2,1.6,4.8c0.1,0.5,0.3,4,0.3,4.3S555.6,486.5,555.5,487.1L555.5,487.1z"
       id="path16" /><path
       d="M800.9,497.5c-0.8,0-5.7-1-6.5-1c-0.7,0-5.1-0.5-5.9-0.5c-0.1,0-0.2,0-0.3,0c0,0.1-0.1,0.1-0.1,0.2   c-0.3,0.4-1.5,3-1.7,3.2c-0.2,0.3-2.6,2.6-3.1,2.8c-0.5,0.3-3,2-3.4,2.1s-3.6,0.8-4.1,1c-0.7,0.2-3.8,0.1-4.1,0.1   c-0.6,0-2.4-0.4-2.8-0.5c-0.4-0.1-2.3-0.5-3.1-0.8s-3-2.1-3.4-2.6s-2.4-2.2-2.7-2.7s-1.3-3-1.5-3.4c-0.2-0.5-1.1-2.8-1.3-3.3   c-0.2-0.6-0.6-3.8-0.6-4.5s0.3-4.7,0.3-5.1s0-3.5,0.1-4.1c0.1-0.5,1.4-3,1.5-3.4c0.2-0.5,1.3-3.3,1.7-3.6c0.4-0.3,3-2.4,3.5-2.8   c0.5-0.5,3-2.4,3.4-2.5s2.7-0.2,3.1-0.3c0.4-0.1,3.8-0.4,4.4-0.3c0.6,0.1,3.4,0.1,4,0.4c0.7,0.3,2.3,1.1,2.7,1.3   c0.4,0.2,3.2,1.8,3.4,2s1.4,1.3,1.7,1.7c0.3,0.4,1.4,3,1.5,3.4c0.1,0.2,0.2,0.7,0.5,1.3c2-0.1,4.2-0.2,4.4-0.3   c0.4,0,4.7-0.2,5.7-0.3c0.9-0.1,6.4-1,6.9-1.1c0.6-0.1,6.9-0.8,7.7-0.8c0.4,0,2.8-0.3,5.4-0.6c-0.3-1.5-0.5-2.8-0.7-3.3   c-0.5-1.4-3.1-7.1-3.6-8.2s-3.1-7.1-4.1-8.3c-1-1.3-6.5-5.5-7.5-6.6c-1-1.1-7.2-5.7-9.3-6.3c-2.1-0.6-7.3-1.6-8.5-1.9   c-1.1-0.3-6.2-1.3-7.8-1.3c-1,0-9.6-0.2-11.4,0.3c-1.4,0.4-10.3,2-11.2,2.4c-1,0.3-8,4.6-9.3,5.2s-7.8,6.3-8.5,6.9   s-3.9,6.9-4.7,7.9c-0.8,0.9-3.1,8.3-3.4,9.8c-0.3,1.4-1,9.6-1.3,11.2s0.5,9.9,0.5,10.7c0,0.8,0.5,9.1,0.8,10.4s3.9,10.4,4.4,11.5   c0.5,1.1,3.4,7.4,4.2,8.3c0.8,0.9,4.2,3.6,4.7,4.1s8.3,4.4,9.3,4.9s5.5,2.5,7.3,3.2c1.8,0.6,9.5,0.8,11.1,0.9   c1.6,0.2,11.1-0.6,12.2-0.8c1.1-0.2,7.7-0.5,8.6-0.6c0.9-0.1,9.6-4.4,11.1-5.4s6.6-6.7,7.4-8.1c0.7-1.1,5.8-6.7,6.3-7.8   s2.7-7.6,3.1-8.9c0.1-0.4,0.3-1.4,0.5-2.6c-2.9-0.5-9.9-1.9-10.7-2S801.7,497.5,800.9,497.5L800.9,497.5z"
       id="path18" /><path
       d="M98.2,510.9c0-0.1,0-0.2,0-0.3c0.1-2.7,0.2-5.2,0.2-5.6c0-0.8-0.8-7.6-0.9-10.1c0-0.8,0.1-1.3,0.1-1.5   s0-0.8,0-1.8c0.1-3.2,0.3-8,0.3-8.7c0-0.9-0.3-14.7-0.3-15.8c0-0.4,0-1.7,0.1-3.2c0.1-1.1,0.2-2.2,0.2-2.5s0-1.1,0-1.9   c0-0.6,0-1.1,0-1.3l0,0c0-1,0-1.8,0-1.9c0,0,0,0-0.1,0c-0.1-2.2-0.3-5.5-0.2-6c0.1-0.8,0.6-6.7,0.6-7.6c0-1,0.1-6.1,0-6.4   s-6.7-0.6-7.3-0.6c-0.6,0-6,0.6-6.6,0.6s-6.3-0.5-6.8-0.4l-3.5,0.3c-0.3,0.2-3.9,3.9-4.6,4.6s-4.5,5.2-5,5.8   c-0.5,0.6-5.1,4.7-5.9,5.4c-0.7,0.6-5.2,5.9-6,6.6c-0.3,0.2-1.3,1.2-2.8,2.6c-0.2,0.2-0.6,0.2-0.9,0c-1.3-1.2-2.3-2.2-2.5-2.4   c-0.8-0.7-5.3-5.9-6-6.6c-0.7-0.7-5.4-4.8-5.9-5.4c-0.5-0.6-4.3-5.1-5-5.8c-0.6-0.6-3.9-4-4.5-4.5l-7.3-0.7c-0.6,0-7.8,0.6-8.3,0.6   c-0.6,0-6-0.6-6.5-0.5s-1.8,0.1-2,0.4c-0.1,0.2-0.1,7.6-0.1,8.6S0.1,462.1,0,463.4s0.6,14.1,0.6,15.5c-0.1,1.4-0.3,9.6-0.4,10.8   c-0.1,1.3,0.3,10.1,0.2,11.5s-0.2,10.3-0.3,11.9c-0.1,1.6,0.3,7.6,0.4,8.7c0.1,1.1-0.3,11.3-0.3,11.7s0.8,0.2,2,0.4   c0.9,0.2,3.9,0,5.9-0.2c0.5,0,1,0,1.5-0.1c1.3,0,6.1,0.3,6.8,0.4c0.4,0.1,2-0.1,3.3-0.2c0.9,0.1,5.7-0.3,6.1-0.3s3.1,0,3.4-0.1   c0.3-0.1,0-10.5,0-11.9c0-1.3,0.5-10.2,0.5-10.8c0-0.7-1.1-7.1-1.1-8.4s0.4-8.3,0.4-9c0-0.6-0.2-10-0.4-12.1l0.1,0.1   c0.5,0.7,4.9,4.4,5.4,5.1c0.6,0.7,4.6,4.9,5.3,5.7c0.7,0.8,3.7,3.3,4.3,3.7c0.4,0.3,3,3,4.5,4.6c0.6,0.6,1.6,0.6,2.2,0   c1.8-2,5.4-5.7,6.1-6.4c1-1,6.5-6.1,7.1-6.7c0.6-0.5,4.9-5.4,5.8-6.4c0.2,3.4,0.6,8.3,0.5,9c-0.1,1.1-0.3,7.6-0.4,8.6   s0.3,8,0.2,9.1c-0.1,1.1-0.2,8.2-0.3,9.4c-0.1,1.3,0.3,6,0.4,6.9s-0.3,8.9-0.3,9.3c0,0.3,0.9,0.2,2.3,0.3c0.5,0.1,1.5,0.1,2.7,0   c0.2,0,0.5,0,0.7,0.1c1.2,0.2,6.1-0.2,7.3-0.2h0.1c0.7,0,1.4,0.1,2.1,0.1c1.9,0.1,4.3,0.3,4.7,0.3c0.7,0.1,5-0.3,5.4-0.3   s2.7,0,3-0.1s0-13.3,0-15c0-0.6,0.1-2.7,0.2-5.1C98.2,512.2,98.2,511.1,98.2,510.9L98.2,510.9z"
       id="path20" /><path
       d="M592.8,3.3c-0.1,0-8.7-0.1-8.7-0.1h-10.9L563.1,4c0,0-5.3,6.1-7.4,9.3c-2.1,3.2-9.2,8.1-9.9,10.4   S524,43.9,524,43.9s-9.9,9.6-11.1,10.7c-1.1,1.1-7.8,8.3-11.1,9.9c-3.3,1.6-7.5,6-9.9,8.8c-2.5,2.8-7.2,8.6-9.1,10.4   s-9.5,10-9.5,10s-4.8,5.4-6.9,6.6c-2.1,1.2-4.8,3.8-6.9,5.8s-4.6,4-7.7,6.6c-3.1,2.6-4.7,6.2-7.8,8.7c-3.1,2.6-7,8.4-10.1,10.9   c-3.1,2.6-11.8,12.4-14.3,15.9c-0.3,0.4-0.6,0.9-1,1.3c-0.1,0.1-0.2,0.2-0.3,0.3c-1.3,1.2-3.5,3-5.2,4.3c-0.9,0.6-1.8,1.1-2.7,1.6   l0,0l-5-4.4c-2-2.1-6.4-4.6-7.7-6.4c-2.5-3.6-5.3-8.4-8.4-10.9c-3.1-2.6-8.7-7.5-11.7-10.1c-3.1-2.6-5.3-7.5-8.4-10.1   s-7.1-6.4-9.2-8.4s-3.3-4-5.5-5.2c-2.1-1.2-6.9-6.6-6.9-6.6s-7.6-8.1-9.5-10c-1.9-1.8-10.1-7.3-12.5-10   c-2.5-2.8-11.8-14.4-15.1-15.9c-3.3-1.6-11.4-12.3-12.6-13.4c-1.1-1.1-8.8-6.6-9.4-7c0,0,0,0-0.1-0.1c-0.7-0.6-10.8-9.1-11.5-11.4   s-9.7-9.3-11.8-12.5c-1.8-2.7-6.5-7.5-8-8.9c-0.3-0.3-0.6-0.4-1-0.4h-10.3l-0.7,0.1c-1.4-0.5-3.8-0.8-4.5-0.9c-0.1,0-0.3,0-0.4,0   c-1.1,0.3-6.7,1.5-8.7,0.5c-2.3-1-7.8-0.5-7.8-0.5l-3,0.3c-0.2,0-0.3,0-0.4,0c-1.2-0.3-3.1,0-4.2,0.2c-0.6,0.1-1.1,0.6-1.1,1.2   l-0.7,6.7c0,0.2,0,0.3,0,0.5c0.4,1.5,2.5,10.2,1.7,13.6c-0.9,3.7,0.6,12.2-0.6,14.3c-1.1,2.1,0.5,28.5,0.6,29.7v0.1v15.3   c0,1.6-0.6,11.4,0.6,14.9c1.2,3.4,0.9,9.5,0.6,13.3c-0.3,3.7-1.2,11.1-1.2,13.8c0,2.7-0.6,13.8-0.6,13.8s-0.6,7.2,0,9.5   c0.6,2.4,0.6,6.1,0.6,9s0.3,6.1,0.6,10.1s-0.3,7.2,0,11.1c0.3,4-0.3,11.9,0,15.9s0.3,13.8-0.6,18c-0.9,4.2-2,9.4-1.1,12.6   c0.9,3.2,1.1,10.2,1.1,14.4c0,4.2,0,18.6,0,23.3c0,4.8-0.3,11.7-0.6,17s0.3,12.2,0,15.9c-0.3,3.7-0.6,17,0,19.2   c0.6,2.1,2.9,16.7,1.7,20.2c-1.2,3.4-0.3,14.1-1.2,17.8c-0.9,3.7-1.2,12.9-0.6,15.3c0.6,2.4,0.9,8.5,1.2,10.6   c0.2,1.6,0.2,7.9,0.2,10.6c0,0.7,0.5,1.3,1.3,1.4l4.7,0.4c0.1,0,0.1,0,0.2,0l15.5-0.8c0.1,0,0.1,0,0.2,0c1.7,0.1,27.8,2.1,29.5,1.1   c1.6-1,11.9,0.1,13.6,0.2c0.2,0,0.3,0,0.5,0c1.4-0.3,8.8-2,12-1.3c3.5,0.8,28.4,0,28.4,0s21.7-0.8,26.6,0c3.4,0.6,11.7,0.4,17,0.7   c0.8,0,1.5-0.6,1.5-1.5l-0.1-6c0,0,0-12.6,0-15.9l-0.7-17.8l1-30.5c0.5-13.9-0.4-30,0.3-39.6c0.1-0.8-0.5-1.4-1.3-1.5l-20.9-1.6   h-0.1h-24.4c-0.1,0-0.1,0-0.2,0l-7.3-1c-0.7-0.1-1.2-0.7-1.2-1.3l-0.6-17.7v-0.1c0.7-14-0.6-24.1-0.6-34c0-0.1,0-0.1,0-0.2   c1.6-12.1,0.4-19.9,1.2-19.9l12.1-1.9c0.1,0,0.2,0,0.3,0l14.8,1.1l18.4,0.9l8.4-0.1l9.2-0.8c0.1,0,8.3,0.8,8.4,0.8l10.9,0.8   c6.7,0,20.3,1.2,31,0.8l22.5-0.4l17.8-1.3l12.1,0.1c0.1,0,0.1,0,0.2,0l14.4-0.4c0.1,0,0.2,0,0.3,0c4.9,1,12.3,1.3,12.3,1.5   l0.3,16.6l-0.4,33.8c-0.5,15.1-0.8,22.7-1.8,22.7l-14.2-0.9c-0.1,0-0.1,0-0.2,0l-14,1.1h-0.1h-17.1l-7.4,0.3   c-0.8,0-1.4,0.8-1.3,1.6c1.9,15.1,0.5,31.7,0.5,40.6l1.1,30.5c0.2,9.9,0.4,29.1,0.7,38.7c0,0.8,0.7,1.4,1.5,1.3   c6-0.3,11.9-0.3,13.8-0.3c2.6,0,11.6,1.4,14.4,1.1c2.7-0.3,8.1,0,8.6,0h0.1c0.6,0,5.6-0.3,8.9-0.3c3.5,0,12.2,0,15.6,0   c3.5,0,11.3-0.8,13.9-0.8c2.6,0,7.9,0.2,12.2,0.5s7.5,1.6,13.3,0.5c5.8-1.1,9.2,0,14.4,0.3s9.8,0,12.7,0.5c2.7,0.5,12.7,0.5,14,0.5   c0.1,0,0.2,0,0.3,0l5.7-1.3c0.6-0.1,1.1-0.7,1.1-1.4c0-1.9-0.2-5.7-0.3-7.4c-0.1-2.3,1.4-10.3,0.1-18.1c-1.3-7.8-0.2-14.8-0.2-16.4   s0.3-9,0.1-13.9c-0.1-4.9,1-23.2,0-27.6s-0.7-11.3,0-17c0.7-5.7,1.9-8.9,1.7-14.9c-0.1-6-0.1-9.9-0.6-14.3   c-0.4-4.4-0.7-19-0.6-21.2c0.1-2.3,0.7-16.6,0-21.8c-0.7-5.2,0.4-11.5-0.6-12.7s-0.1-6-0.1-7.6c0-1.5,0.1-7.7,0.1-8.7   c0-0.1,0-0.2,0-0.3c0.2-0.9,1.5-6.3,1.1-8.9c-0.4-2.8,0.1-9.2-0.6-11.1c-0.7-2,0.7-8.9,0-12.2s-0.7-8.9-0.7-8.9s0-4,0-6.4   s0-8,0-11.1c0-3.2,0.3-9.5,0.1-12.3c-0.1-2.8,1.3-4.6,0.6-8.5c-0.7-3.8-0.8-8.6-0.8-11.8c0-3.2-0.9-5.6,0-9.5   c0.9-4,0.9-5.3,1.4-9.4c0.4-4.1,0.7-7,0.6-11.1c-0.1-4.1-0.1-7.6-0.6-12.2c-0.4-4.6-0.7-6.2-0.6-10.6c0.1-4.4-0.1-6,0-9.5   c0.1-3.6,0.7-12.3,0-14.3s0.4-3.3-0.6-5.8c-0.9-2.2-0.2-5,0-5.7c0-0.1,0-0.2,0-0.3V6.4c0,0,0-0.1,0-0.2c0.1-1.2-0.8-2.2-2-2.3h-1.2   L592.8,3.3z"
       class="st0"
       id="path22" /><path
       d="M601.9,595.5c0-0.7-0.3-10.6-0.3-11.4c0-0.5-0.1-4.6-0.2-7.3c0-1.2-1.1-2.2-2.5-2.2h-6.4   c-1.3,0-9.5,0.2-10.5,0.3s-9.4,0-10.7-0.1s-17.3,0.2-18.7,0.1c-1.4-0.1-13.7-0.1-14.9-0.1s-13.3,0.5-15.5,0.5s-13.2-0.4-14.4-0.4   c-1.2,0-20.6-0.6-22.9-0.6c-1.9,0-11.5,0-15,0.2c-1.7,0-3.2,0-3.8,0c-1.3,0-9.5,0.2-10.5,0.3s-9.4,0-10.7-0.1   c-1.3-0.1-17.3,0.2-18.7,0.1c-1.5-0.1-13.7-0.1-14.9-0.1c-1.2,0-13.3,0.5-15.5,0.5s-13.2-0.4-14.4-0.4c-1.2,0-20.6-0.6-22.9-0.6   c-1.9,0-11.5,0-15,0.2c-1.7,0-3.2,0-3.8,0c-1.3,0-9.5,0.2-10.5,0.3s-9.4,0-10.7-0.1c-1.3-0.1-17.3,0.2-18.7,0.1   c-1.5-0.1-13.7-0.1-14.9-0.1c-1.2,0-13.3,0.5-15.5,0.5s-13.2-0.4-14.4-0.4c-1.2,0-20.6-0.6-22.9-0.6c-1.7,0-9.8,0.2-13.9,0.3   c-1.3,0-2.4,1-2.4,2.2c0,0.8-0.1,1.5-0.1,1.7c0,0.5-0.6,6.1-0.4,7.1c0.1,1,0.6,7.5,0.6,9.1s-0.6,8-0.3,9.6c0.1,0.4,0.1,0.7,0.2,1   c0.3,1.1,1.3,1.8,2.5,1.8c4-0.2,12.6-0.6,13.8-0.5c1.5,0.1,9.7,0.6,11.8,0.5c2.2-0.1,14.3-0.2,16.2-0.4c1.9-0.1,13.9,0.4,15.7,0.2   c1.8-0.1,12.9-0.4,14.8-0.5s19.3,0.9,21.1,0.7c1.8-0.1,24-0.9,25.3-0.9c0.6,0,5.9,0.8,8.2,0.8c0,0.4,11.8-0.7,13.3-0.5   s9.7,0.6,11.8,0.5c2.2-0.1,14.3-0.2,16.2-0.4c1.9-0.1,13.9,0.4,15.7,0.2c1.8-0.1,12.9-0.4,14.8-0.5s19.3,0.9,21.1,0.7   c1.8-0.1,24-0.9,25.3-0.9c0.6,0,7.3,0.8,7.3,0.8s12.7-0.7,14.2-0.5s9.7,0.6,11.8,0.5c2.2-0.1,14.3-0.2,16.2-0.4   c1.9-0.1,13.9,0.4,15.7,0.2s12.9-0.4,14.8-0.5c1.9-0.1,19.3,0.9,21.1,0.7c1.8-0.1,24-0.9,25.3-0.9c0.9,0,6.2-0.1,9.3-0.1   c1.3,0,2.4-1,2.5-2.2L601.9,595.5z"
       class="st0"
       id="path24" /></g></svg>