<svg version="1.0" xmlns="http://www.w3.org/2000/svg"
 width="2498.000000pt" height="1449.000000pt" viewBox="0 0 2498.000000 1449.000000"
 preserveAspectRatio="xMidYMid meet">

    <g transform="translate(0.000000,1449.000000) scale(0.100000,-0.100000)"
fill="#000000" stroke="none">
        
        <path fill="#bbbdbd" d="M12126 14479 c-373 -39 -738 -148 -1078 -321 -91 -46 -126 -70 -154
-104 -20 -24 -35 -46 -33 -48 2 -2 47 1 99 6 162 17 399 -15 614 -82 221 -68
617 -231 748 -307 60 -35 92 -47 131 -50 50 -4 62 1 287 115 343 174 559 253
830 304 93 18 151 22 307 22 211 0 207 -1 147 60 -35 34 -49 42 -236 127 -331
152 -621 235 -963 274 -141 16 -560 19 -699 4z"/>
        
        <path fill="#bbbdbd" d="M14485 13619 c-200 -34 -520 -233 -862 -537 -121 -107 -307 -283
-311 -294 -2 -4 50 -76 116 -160 492 -631 844 -1169 1128 -1723 187 -366 275
-583 334 -830 49 -203 56 -280 36 -424 -9 -68 -14 -126 -10 -130 10 -10 121
116 176 199 65 98 224 415 281 560 315 793 265 1739 -133 2525 -126 247 -269
453 -469 672 -111 121 -129 134 -206 146 -16 3 -53 1 -80 -4z"/>
        
        <path fill="#bbbdbd" d="M10238 13553 c-139 -134 -306 -350 -425 -548 -475 -791 -577 -1755
-279 -2620 77 -225 155 -390 300 -633 64 -108 177 -244 191 -230 3 3 1 43 -6
89 -17 115 -6 307 25 440 34 148 81 284 171 494 258 605 714 1333 1297 2073
71 90 128 167 126 172 -5 13 -447 407 -553 493 -138 111 -272 197 -407 261
-135 64 -180 76 -288 76 l-82 0 -70 -67z"/>
        
        <path fill="#bbbdbd" d="M12331 11909 c-260 -211 -429 -365 -697 -633 -542 -543 -956 -1072
-1159 -1481 -184 -372 -190 -613 -18 -762 344 -296 800 -528 1266 -642 283
-70 539 -96 842 -88 661 19 1245 220 1770 611 158 118 218 176 246 238 21 47
24 67 23 178 0 117 -3 132 -37 230 -85 247 -217 478 -467 815 -362 488 -952
1098 -1484 1533 -75 61 -140 112 -144 111 -4 0 -67 -49 -141 -110z"/>
        
        <path fill="#177c18" d="M14071 7429 c-110 -12 -292 -53 -400 -91 -313 -109 -553 -284 -802
-585 -73 -87 -93 -121 -148 -244 -113 -252 -170 -428 -196 -603 -76 -514 -17
-979 176 -1386 61 -129 173 -296 272 -410 464 -529 1305 -708 1999 -425 216
89 358 184 534 360 148 148 242 278 329 459 151 313 215 610 215 1000 0 277
-38 512 -126 769 -89 260 -173 405 -344 597 -375 417 -922 620 -1509 559z
m434 -425 c172 -28 327 -86 462 -172 93 -60 329 -295 387 -387 93 -145 176
-349 214 -526 34 -154 44 -255 43 -424 -1 -483 -146 -879 -426 -1161 -260
-261 -580 -385 -960 -371 -347 13 -615 127 -851 362 -206 205 -331 453 -398
785 -84 419 -33 857 139 1189 106 203 327 449 494 548 255 152 578 209 896
157z"/>
        
        <path fill="#177c18" d="M8734 7350 c-39 -4 -80 -11 -91 -14 -11 -4 -42 -39 -68 -79 -132
-200 -278 -398 -630 -857 -116 -151 -242 -317 -279 -368 l-68 -93 -51 73
c-132 190 -285 396 -581 783 -177 231 -344 450 -371 488 l-49 67 -248 0 c-136
0 -248 -4 -248 -8 0 -13 67 -107 205 -288 136 -177 216 -297 263 -391 17 -33
114 -165 215 -291 102 -127 205 -259 229 -294 176 -250 220 -312 292 -402 l81
-101 -40 -37 c-23 -20 -69 -85 -105 -145 -35 -59 -143 -216 -240 -348 -97
-132 -314 -427 -482 -655 -285 -389 -529 -719 -551 -747 -7 -10 44 -13 249
-13 l259 0 23 34 c13 19 163 223 333 453 170 230 348 471 395 535 46 65 118
154 160 198 41 44 99 119 130 166 53 83 129 174 144 174 13 0 545 -704 1040
-1377 l135 -183 252 0 c139 0 253 2 253 5 0 3 -231 319 -513 703 -282 383
-569 778 -637 877 -69 99 -153 216 -189 260 -35 44 -68 85 -72 91 -10 12 175
270 712 994 440 594 574 779 568 784 -9 8 -361 12 -425 6z"/>
        
        <path fill="#177c18" d="M9470 6557 l0 -794 -157 -6 c-87 -4 -201 -7 -253 -7 l-95 -1 -97
-132 c-53 -72 -116 -158 -138 -189 l-41 -58 390 0 391 0 2 -867 3 -868 845 0
c643 0 867 3 935 13 344 50 582 152 769 331 88 85 145 165 200 282 128 270
135 588 20 862 -69 163 -227 335 -402 436 l-58 35 79 59 c197 149 316 364 338
613 27 297 -62 552 -266 759 -190 193 -391 282 -714 314 -63 7 -422 11 -927
11 l-824 0 0 -793z m1796 366 c279 -63 417 -183 479 -418 21 -79 21 -225 0
-306 -47 -180 -193 -324 -398 -393 -126 -42 -192 -46 -833 -46 l-614 0 0 589
0 590 38 4 c20 2 307 3 637 2 564 -2 606 -3 691 -22z m-32 -1573 c294 -44 507
-168 590 -344 47 -99 61 -164 60 -286 0 -292 -158 -515 -430 -611 -188 -66
-358 -78 -1070 -79 l-471 0 -6 122 c-4 66 -7 367 -7 668 l0 547 628 -2 c417
-2 653 -7 706 -15z"/>
        
        <path fill="#177c18" d="M15780 7345 c0 -2 190 -262 422 -577 590 -801 860 -1171 865 -1185 3
-7 -89 -140 -204 -295 -116 -156 -353 -479 -528 -718 -175 -239 -401 -546
-502 -681 -101 -136 -183 -250 -183 -253 0 -3 112 -6 250 -6 l250 0 591 788
c324 433 594 788 598 790 7 2 538 -707 1061 -1415 l120 -163 251 0 c201 0 250
3 246 13 -3 7 -191 267 -419 577 -789 1076 -968 1327 -968 1359 0 37 4 42 410
587 186 249 364 492 396 539 31 48 117 168 192 268 138 186 252 352 252 368 0
10 -430 10 -471 0 -21 -5 -115 -124 -419 -531 -216 -289 -446 -601 -513 -695
-66 -93 -123 -174 -127 -178 -7 -8 -226 280 -818 1076 l-251 337 -251 0 c-137
0 -250 -2 -250 -5z"/>
        
        <path fill="#7b827b" d="M1085 2740 c-283 -32 -524 -146 -716 -339 -142 -144 -242 -312 -322
-544 l-42 -122 0 -380 0 -380 43 -125 c97 -284 236 -491 422 -632 81 -62 256
-148 375 -185 90 -28 91 -28 380 -28 l290 0 85 29 c164 55 297 134 414 245
l69 66 -7 -147 -7 -148 160 0 161 0 0 685 0 685 -590 0 -590 0 0 -150 0 -150
435 0 435 0 0 -25 c0 -45 -38 -219 -64 -293 -37 -107 -85 -179 -179 -269 -100
-96 -196 -155 -315 -193 -447 -144 -940 58 -1117 457 -125 280 -138 656 -35
973 45 139 138 325 199 397 63 77 163 153 258 199 230 111 533 117 759 14 138
-62 260 -172 322 -289 19 -34 53 -112 76 -174 l42 -112 167 -3 c138 -2 167 0
167 12 0 25 -48 179 -79 253 -143 347 -427 576 -809 652 -119 24 -280 33 -387
21z"/>
        
        <path fill="#7b827b" d="M21332 2740 c-573 -59 -982 -443 -1103 -1036 -29 -147 -36 -403 -15
-571 23 -182 57 -298 125 -438 129 -263 330 -466 585 -591 65 -31 152 -65 211
-79 96 -25 109 -26 340 -22 228 3 245 5 330 31 109 33 273 110 364 171 262
174 440 462 522 845 31 142 34 485 6 625 -57 280 -174 516 -349 700 -137 145
-288 242 -473 304 -161 54 -375 78 -543 61z m363 -319 c171 -45 360 -164 456
-287 299 -384 337 -971 91 -1390 -125 -213 -321 -366 -547 -425 -115 -31 -316
-31 -438 -1 -334 83 -570 307 -680 647 -100 308 -74 692 68 980 125 254 354
431 635 491 95 20 312 12 415 -15z"/>
        
        <path fill="#7b827b" d="M11360 2724 c-112 -21 -255 -73 -344 -125 -91 -54 -203 -166 -249
-249 -62 -114 -82 -196 -81 -345 0 -116 3 -139 27 -209 50 -143 116 -230 233
-306 144 -94 286 -142 632 -215 347 -73 448 -103 584 -171 91 -46 132 -84 168
-157 109 -221 16 -463 -223 -581 -205 -101 -537 -108 -787 -17 -277 102 -400
280 -400 581 l0 100 -156 0 -157 0 6 -138 c9 -208 64 -390 155 -512 142 -190
373 -312 690 -365 156 -26 451 -17 583 18 201 53 346 133 459 253 124 132 181
284 183 484 1 199 -53 341 -178 465 -130 128 -312 207 -645 279 -91 20 -219
48 -285 62 -361 78 -521 172 -569 333 -55 185 37 374 225 464 98 47 168 66
275 76 247 21 499 -45 636 -167 99 -90 138 -173 165 -353 l17 -109 154 0 155
0 -7 83 c-16 181 -66 344 -141 458 -115 171 -306 293 -554 351 -120 27 -448
34 -571 12z"/>
        
        <path fill="#7b827b" d="M23652 2726 c-302 -58 -523 -206 -621 -416 -48 -104 -65 -182 -65
-305 1 -296 139 -485 445 -610 119 -48 222 -76 479 -130 356 -74 563 -146 652
-224 130 -114 144 -374 30 -527 -76 -101 -246 -187 -423 -215 -97 -15 -309 -5
-419 20 -231 52 -371 144 -465 305 -37 63 -55 157 -55 289 l0 117 -161 0 -162
0 6 -138 c4 -98 13 -164 31 -234 79 -310 316 -528 671 -617 143 -36 233 -43
452 -39 185 4 219 8 308 31 300 80 513 273 587 532 29 104 31 296 4 395 -41
149 -142 286 -278 376 -120 80 -262 126 -634 203 -242 50 -332 74 -450 116
-162 57 -230 111 -283 224 -34 74 -35 186 -1 274 45 119 186 232 335 271 149
38 363 39 510 1 153 -39 319 -154 378 -264 33 -59 63 -172 73 -270 l7 -71 154
0 155 0 -7 86 c-16 191 -57 329 -134 446 -117 179 -316 306 -566 360 -120 26
-446 34 -553 14z"/>
        
        <path fill="#7b827b" d="M3577 2644 c-13 -27 -62 -141 -107 -254 -45 -113 -117 -279 -160
-370 -94 -200 -174 -393 -315 -769 -122 -326 -234 -609 -330 -831 -61 -143
-135 -340 -135 -361 0 -5 75 -9 168 -9 l169 0 51 118 c27 64 93 225 145 357
53 132 103 258 113 280 l18 40 522 0 523 0 17 -45 c9 -25 54 -128 99 -230 98
-221 131 -308 154 -414 17 -78 18 -80 57 -94 28 -12 79 -15 187 -15 81 0 150
3 154 6 10 10 -18 97 -54 170 -42 84 -58 125 -144 357 -37 102 -88 235 -112
295 -24 61 -74 189 -112 285 -37 96 -154 384 -260 640 -105 256 -227 555 -270
665 -43 110 -81 203 -84 206 -3 4 -65 10 -138 14 l-132 7 -24 -48z m209 -564
c21 -79 101 -298 192 -525 85 -214 157 -396 159 -402 4 -10 -82 -13 -410 -13
l-415 0 128 338 c180 478 292 754 301 745 4 -4 24 -69 45 -143z"/>
        
        <path fill="#7b827b" d="M5124 2683 l-61 -4 -6 -421 c-4 -232 -7 -824 -7 -1317 l0 -896 165 3
165 3 2 969 3 968 299 -716 c165 -394 349 -830 409 -968 l108 -252 141 -7 c77
-4 144 -3 148 2 5 4 45 116 91 248 45 132 120 328 167 435 46 107 160 382 252
610 92 228 192 469 221 535 l54 120 3 -972 2 -973 163 0 162 0 -2 422 c-2 233
-4 824 -5 1315 -2 490 -6 895 -10 898 -4 4 -86 4 -181 0 l-175 -7 -63 -162
c-79 -202 -157 -379 -195 -442 -17 -27 -59 -123 -94 -214 -140 -366 -539
-1330 -550 -1330 -3 0 -86 193 -184 428 -99 235 -292 688 -429 1007 -137 319
-263 613 -280 653 l-31 72 -110 -2 c-61 -1 -138 -3 -172 -5z"/>
        
        <path fill="#7b827b" d="M8108 2683 l-208 -3 0 -1315 0 -1315 934 0 935 0 3 135 3 135 -782 0
-783 0 0 480 0 480 725 0 725 0 0 128 0 129 -137 6 c-75 4 -401 7 -725 7
l-588 0 0 430 0 430 775 0 775 0 0 133 0 134 -247 6 c-232 7 -936 6 -1405 0z"/>
        
        <path fill="#7b827b" d="M17260 1370 l0 -1315 458 -3 c501 -4 630 5 812 52 345 90 562 267
710 580 96 201 134 398 134 696 0 196 -9 271 -50 439 -87 351 -268 593 -549
733 -78 39 -195 80 -300 104 -71 16 -183 19 -947 27 l-268 2 0 -1315z m1095
1005 c377 -61 591 -272 676 -665 20 -91 23 -134 23 -325 0 -204 -2 -228 -26
-333 -46 -193 -118 -338 -228 -455 -104 -112 -205 -171 -371 -216 -116 -33
-262 -43 -571 -39 l-288 3 0 1022 0 1023 188 3 c275 6 495 -1 597 -18z"/>
        
        <path fill="#7b827b" d="M12660 2535 l0 -145 436 0 435 0 -3 -1170 -3 -1170 163 0 162 0 0
1170 0 1170 429 0 428 0 6 68 c4 37 7 102 7 145 l0 77 -1030 0 -1030 0 0 -145z"/>
        
        <path fill="#7b827b" d="M14888 1908 c-4 -762 1 -1012 22 -1145 22 -133 75 -263 187 -454 l58
-98 120 -65 c235 -127 274 -137 552 -143 181 -4 241 -2 325 12 445 74 704 352
772 827 18 129 32 1120 21 1548 l-8 290 -153 0 -153 0 -3 -902 -3 -903 -27
-97 c-72 -264 -208 -404 -453 -469 -119 -32 -340 -32 -450 -1 -106 31 -206 85
-276 149 -99 92 -134 162 -187 373 l-26 105 -3 873 -4 872 -153 0 -154 0 -4
-772z"/>
        
        <path fill="#7b827b" d="M19630 1688 c0 -546 -3 -1138 -7 -1315 l-6 -323 166 0 167 0 0 1315
0 1315 -160 0 -160 0 0 -992z"/>
    </g>
</svg>
