<svg version="1.0" xmlns="http://www.w3.org/2000/svg" width="1024.000000pt" height="499.000000pt" viewBox="0 0 1024.000000 499.000000" preserveAspectRatio="xMidYMid meet">

    <g transform="translate(0.000000,499.000000) scale(0.100000,-0.100000)"
fill="#000000" stroke="none">
        
        <path fill="#ff4747" d="M5824 3012 l-1252 -1977 -1366 -3 c-751 -1 -1366 0 -1366 2 0 2 139
217 308 478 l308 473 858 5 859 5 308 490 c170 270 309 493 309 498 0 4 -860
6 -1912 5 l-1912 -3 -308 -490 c-169 -269 -308 -493 -308 -497 0 -4 202 -9
450 -10 l449 -3 -610 -965 c-336 -531 -613 -971 -616 -977 -4 -10 512 -13
2560 -13 l2564 0 958 1528 c527 840 963 1533 969 1539 9 10 92 -116 359 -540
l348 -552 -303 -3 -303 -3 -307 -483 c-170 -266 -308 -487 -308 -490 0 -3 416
-6 924 -6 l923 0 303 -482 c167 -266 308 -489 314 -496 9 -9 138 -12 604 -10
l592 3 -1563 2475 c-860 1361 -1568 2475 -1573 2477 -5 2 -572 -887 -1260
-1975z"/>
        
        <path fill="#ff4747" d="M1902 4463 l-313 -498 168 -3 c93 -2 1005 0 2028 4 l1860 7 305 480
c168 264 306 486 308 493 3 12 -306 14 -2020 14 l-2023 0 -313 -497z"/>
        
        <path d="M7990 4820 c0 -39 1 -40 35 -40 l35 0 0 -140 0 -140 45 0 45 0 0 140
0 140 35 0 c34 0 35 1 35 40 l0 40 -115 0 -115 0 0 -40z"/>
        
        <path d="M8240 4680 l0 -180 46 0 47 0 -5 113 -5 112 18 -90 c30 -145 25 -135
64 -135 38 0 33 -9 69 140 l15 65 -5 -102 -5 -103 46 0 45 0 0 180 0 180 -63
0 -63 0 -19 -92 -18 -93 -20 93 -20 92 -63 0 -64 0 0 -180z"/>
    </g>
</svg>
