<?xml version="1.0" standalone="no"?>
<!DOCTYPE svg PUBLIC "-//W3C//DTD SVG 20010904//EN"
 "http://www.w3.org/TR/2001/REC-SVG-20010904/DTD/svg10.dtd">
<svg version="1.0" xmlns="http://www.w3.org/2000/svg"
 width="1074.000000pt" height="458.000000pt" viewBox="0 0 1074.000000 458.000000"
 preserveAspectRatio="xMidYMid meet">
<metadata>
Created by potrace 1.16, written by Peter Selinger 2001-2019
</metadata>
<g transform="translate(0.000000,458.000000) scale(0.100000,-0.100000)"
fill="#000000" stroke="none">
<path d="M2078 4309 c-525 -111 -979 -507 -1176 -1024 -33 -87 -72 -211 -72
-231 0 -6 -11 -19 -25 -28 -21 -14 -61 -16 -274 -16 -214 0 -252 -2 -265 -16
-14 -13 -16 -54 -16 -297 0 -155 4 -287 8 -293 19 -29 56 -34 261 -34 198 0
212 -1 231 -20 20 -20 20 -33 20 -630 0 -646 1 -657 45 -674 9 -3 135 -6 279
-6 251 0 265 1 290 21 l26 20 0 623 c0 546 2 624 16 644 15 22 19 22 227 22
227 0 251 5 274 50 6 14 28 75 48 136 35 112 89 226 151 321 38 58 43 92 16
116 -16 15 -55 17 -335 17 l-316 0 13 43 c56 175 205 372 371 486 80 56 146
88 261 128 l79 27 4120 9 c3721 8 4122 10 4138 24 11 11 17 31 17 59 0 40 -7
51 -81 136 -45 51 -91 104 -103 118 -11 14 -48 57 -81 95 -33 38 -71 83 -85
100 -14 16 -39 44 -56 62 l-32 33 -3943 -1 c-3800 -1 -3947 -2 -4031 -20z"/>
<path d="M5240 3293 c-301 -49 -544 -230 -664 -496 -63 -138 -71 -188 -71
-432 l0 -220 30 0 c25 0 36 10 74 65 125 179 332 336 535 405 163 55 252 65
589 65 l309 0 34 34 34 34 0 242 0 242 -34 34 -34 34 -389 -1 c-213 -1 -399
-4 -413 -6z"/>
<path d="M6397 3289 c-48 -28 -47 -18 -47 -816 0 -635 2 -759 15 -823 59 -285
236 -493 515 -604 25 -10 84 -20 135 -23 l90 -5 109 56 c131 68 219 132 307
223 67 69 141 172 159 217 21 56 21 56 -261 56 -237 0 -265 2 -322 21 -69 23
-112 61 -149 130 l-23 44 -3 742 -3 742 -30 25 -31 26 -221 0 c-132 0 -229 -5
-240 -11z"/>
<path d="M7881 3281 c-12 -11 -26 -34 -31 -52 -6 -20 -10 -306 -10 -700 0
-735 -1 -756 -62 -906 -82 -204 -216 -372 -405 -512 -72 -52 -85 -75 -61 -99
19 -19 353 -16 448 3 176 36 284 91 403 204 106 101 169 200 220 344 22 61 22
69 25 868 l3 807 -27 31 -26 31 -227 0 c-210 0 -230 -2 -250 -19z"/>
<path d="M9204 3290 c-176 -36 -361 -161 -457 -311 -86 -135 -112 -226 -111
-394 0 -135 7 -173 51 -285 51 -129 158 -251 284 -325 152 -89 196 -97 552
-104 299 -6 299 -6 318 -30 25 -31 25 -101 0 -132 l-19 -24 -621 -3 -620 -3
-7 -47 c-25 -181 -97 -341 -206 -458 -48 -51 -59 -69 -56 -91 l3 -28 795 0
c890 0 828 -5 990 74 110 54 241 186 297 301 56 115 73 192 73 331 0 211 -64
366 -209 509 -54 53 -177 140 -198 140 -3 0 -19 7 -36 14 -89 41 -147 48 -417
52 -297 5 -316 9 -346 72 -21 45 -11 78 35 109 34 23 35 23 421 23 l388 0 32
38 c18 20 104 138 191 261 164 231 175 254 143 296 -15 20 -27 20 -622 22
-334 0 -625 -3 -648 -7z"/>
<path d="M2985 3270 c-307 -58 -565 -230 -736 -490 -72 -109 -123 -238 -160
-405 -22 -97 -17 -340 10 -450 21 -89 48 -171 61 -190 4 -5 11 -20 15 -33 4
-13 28 -59 53 -102 164 -276 422 -456 752 -524 100 -21 318 -21 424 0 391 76
701 338 841 710 28 74 31 104 13 122 -18 18 -40 15 -89 -12 -220 -116 -516
-213 -728 -237 -371 -43 -639 91 -731 363 -20 59 -22 82 -18 176 4 101 7 113
43 188 45 92 130 183 213 227 203 109 424 79 593 -81 200 -188 208 -493 20
-704 -87 -96 -63 -132 66 -97 122 32 245 75 353 121 117 50 294 145 307 165
37 56 32 265 -9 433 -141 568 -712 931 -1293 820z"/>
<path d="M5001 2490 c-187 -104 -358 -291 -461 -505 -59 -123 -48 -223 53
-455 31 -70 111 -181 180 -246 119 -115 231 -172 406 -209 60 -12 170 -15 650
-15 435 0 580 3 589 12 25 25 12 60 -44 121 -61 65 -93 112 -135 197 -29 58
-69 200 -69 244 0 13 -6 28 -12 33 -7 4 -200 10 -428 13 -407 5 -416 5 -457
28 -60 31 -100 74 -128 135 -23 49 -25 63 -26 247 -1 107 -4 247 -8 310 -6
113 -6 115 -31 118 -14 1 -49 -11 -79 -28z"/>
<path d="M1695 813 c-80 -18 -155 -79 -188 -152 -31 -71 -29 -199 6 -267 29
-57 72 -98 132 -125 32 -15 66 -19 163 -19 112 0 128 2 177 26 99 46 145 130
145 263 0 131 -66 227 -181 264 -49 16 -202 22 -254 10z m209 -116 c67 -38 81
-66 81 -162 0 -69 -4 -88 -21 -111 -39 -52 -70 -68 -143 -72 -109 -6 -165 30
-190 126 -15 54 -5 123 23 165 51 75 169 101 250 54z"/>
<path d="M7900 811 c-105 -32 -168 -105 -191 -219 -20 -103 13 -212 83 -279
54 -52 93 -63 220 -63 98 0 120 3 163 24 79 37 135 112 135 181 0 24 -2 25
-65 25 l-64 0 -19 -42 c-27 -60 -53 -80 -111 -86 -76 -7 -118 5 -156 44 -69
70 -72 188 -8 264 35 42 73 60 128 60 68 0 122 -32 146 -86 l20 -44 64 0 65 0
0 31 c0 74 -70 153 -161 182 -54 18 -202 22 -249 8z"/>
<path d="M772 533 l3 -278 65 0 65 0 3 123 3 122 154 0 155 0 0 -125 0 -126
63 3 62 3 3 278 2 277 -65 0 -65 0 0 -105 0 -105 -155 0 -154 0 -3 103 -3 102
-68 3 -67 3 2 -278z"/>
<path d="M2270 530 l0 -280 60 0 60 0 0 203 1 202 59 -135 c33 -74 75 -165 92
-203 l32 -67 53 0 c46 0 55 3 62 22 5 13 25 57 44 98 19 41 54 120 78 175 l44
100 5 -195 5 -195 58 -3 57 -3 0 281 0 280 -88 0 -88 0 -18 -42 c-10 -24 -30
-68 -44 -98 -13 -30 -32 -73 -42 -95 -43 -98 -72 -157 -75 -153 -2 2 -42 89
-89 193 l-85 190 -91 3 -90 3 0 -281z"/>
<path d="M3152 533 l3 -278 240 0 240 0 3 53 3 52 -180 0 -181 0 0 65 0 65
170 0 170 0 0 50 0 50 -170 0 -170 0 0 55 0 55 175 0 175 0 0 55 0 55 -240 0
-240 0 2 -277z"/>
<path d="M4122 533 l3 -278 60 0 60 0 3 278 2 277 -65 0 -65 0 2 -277z"/>
<path d="M4412 533 l3 -278 56 -3 c38 -2 59 1 67 11 7 9 13 76 14 186 l3 173
50 -63 c28 -34 72 -90 98 -123 26 -34 56 -70 65 -81 9 -11 32 -39 50 -63 l34
-42 69 0 69 0 0 280 0 281 -62 -3 -63 -3 -5 -184 -5 -183 -78 100 c-43 55 -85
109 -95 120 -9 11 -39 50 -67 86 l-50 65 -78 0 -77 1 2 -277z"/>
<path d="M5102 758 l3 -53 97 -3 98 -3 2 -222 3 -222 65 0 65 0 3 222 2 222
98 3 97 3 3 53 3 52 -271 0 -271 0 3 -52z"/>
<path d="M5750 530 l0 -280 243 2 242 3 3 53 3 52 -180 0 -181 0 0 65 0 65
165 0 165 0 0 50 0 50 -165 0 -165 0 0 55 0 55 175 0 175 0 0 55 0 55 -240 0
-240 0 0 -280z"/>
<path d="M6380 530 l0 -281 63 3 62 3 3 108 3 109 109 -4 c137 -4 142 -8 151
-117 4 -44 10 -84 14 -90 7 -13 131 -15 139 -3 3 5 -1 26 -9 48 -8 21 -14 66
-15 99 0 57 -15 97 -43 116 -5 4 -1 12 10 18 24 12 53 79 53 119 0 15 -9 46
-20 70 -15 34 -29 46 -65 62 -41 18 -69 20 -251 20 l-204 0 0 -280z m381 149
c16 -16 20 -28 15 -52 -4 -17 -11 -36 -17 -42 -5 -5 -64 -12 -129 -13 l-120
-4 0 66 0 66 115 0 c104 0 117 -2 136 -21z"/>
<path d="M7220 764 c-11 -26 -20 -48 -20 -49 0 -2 -20 -46 -45 -99 -25 -53
-45 -99 -45 -101 0 -3 -14 -35 -31 -72 -69 -150 -79 -177 -71 -185 5 -5 37 -8
72 -6 l63 3 26 67 26 68 118 0 118 0 15 -37 c45 -109 39 -103 115 -103 42 0
69 4 69 11 0 12 -71 178 -136 317 -24 52 -44 96 -44 99 0 3 -13 34 -30 69
l-29 64 -75 0 -75 0 -21 -46z"/>
<path d="M8410 755 l0 -55 100 0 100 0 0 -225 0 -226 63 3 62 3 3 223 2 222
100 0 100 0 0 55 0 55 -265 0 -265 0 0 -55z"/>
<path d="M9052 533 l3 -278 63 -3 62 -3 0 281 0 280 -65 0 -65 0 2 -277z"/>
<path d="M9280 804 c0 -6 45 -110 95 -218 18 -39 56 -125 85 -191 28 -66 56
-126 62 -132 14 -17 122 -17 135 -1 6 7 41 83 78 168 37 85 78 178 90 205 58
127 73 164 67 169 -3 3 -35 6 -71 6 l-66 0 -64 -163 c-36 -89 -73 -180 -82
-201 l-17 -39 -21 46 c-12 25 -21 49 -21 52 0 3 -8 25 -19 48 -10 23 -38 90
-62 150 l-43 107 -73 0 c-40 0 -73 -3 -73 -6z"/>
<path d="M9992 533 l3 -278 245 0 245 0 0 50 0 50 -177 3 -178 2 0 65 0 65
165 0 165 0 0 50 0 50 -165 0 -165 0 0 55 0 55 173 2 172 3 3 53 3 52 -246 0
-245 0 2 -277z"/>
</g>
</svg>
