<svg version="1.0" xmlns="http://www.w3.org/2000/svg" width="920.000000pt" height="630.000000pt" viewBox="0 0 920.000000 630.000000" preserveAspectRatio="xMidYMid meet">

    <g transform="translate(0.000000,630.000000) scale(0.100000,-0.100000)"
fill="#000000" stroke="none">
        
        <path fill="red" d="M5354 6188 c-266 -316 -361 -428 -463 -549 -64 -75 -183 -216 -266
-314 -82 -98 -196 -232 -253 -299 -57 -67 -122 -144 -145 -173 -23 -29 -45
-52 -49 -53 -5 0 -9 134 -9 298 -1 163 -4 341 -8 395 l-6 99 -54 -129 c-30
-70 -121 -285 -203 -478 -82 -192 -159 -374 -171 -402 -12 -29 -25 -53 -29
-53 -3 0 -9 53 -13 118 -4 64 -7 127 -8 140 -3 56 -5 53 -144 -458 -24 -91
-55 -202 -68 -247 -12 -46 -21 -83 -18 -83 2 0 14 5 26 11 16 9 14 3 -11 -23
l-33 -34 33 -11 c18 -6 69 -27 113 -46 87 -39 97 -51 121 -141 29 -107 14
-164 -77 -298 -22 -31 -39 -58 -39 -60 0 -2 16 -2 35 0 l34 4 -29 -79 c-38
-105 -68 -266 -79 -422 -5 -69 -7 -128 -5 -130 2 -2 15 4 30 13 14 10 27 16
28 14 1 -2 12 -36 26 -76 65 -198 218 -353 452 -456 63 -28 234 -81 291 -91
20 -3 37 -11 37 -17 0 -7 -44 -57 -98 -112 -54 -56 -125 -131 -157 -167 l-60
-67 -110 -30 c-60 -17 -134 -36 -163 -42 -32 -7 -56 -19 -60 -29 -3 -9 -21
-30 -39 -47 -21 -20 -33 -41 -33 -57 0 -25 1 -25 86 28 77 49 177 95 205 95 5
0 -3 -17 -19 -37 -31 -39 -47 -83 -31 -83 5 0 9 4 9 10 0 16 80 69 121 80 30
8 46 7 75 -5 48 -20 47 -20 24 18 -40 65 -36 70 165 277 57 58 118 119 138
137 l34 31 152 4 151 3 7 -35 c8 -44 29 -77 54 -85 17 -6 14 -15 -33 -108 -28
-56 -66 -142 -85 -192 -19 -49 -39 -94 -44 -99 -5 -5 -43 -9 -84 -8 -90 3
-142 -16 -194 -72 -19 -20 -33 -36 -30 -36 2 0 26 11 53 25 27 14 52 22 55 19
3 -3 -3 -10 -13 -16 -55 -31 -126 -117 -126 -152 0 -3 20 8 44 25 134 90 317
163 392 157 35 -3 39 -6 42 -33 3 -35 22 -85 31 -85 9 0 31 82 31 114 0 32
-29 55 -81 64 -53 10 -53 8 6 147 63 146 114 236 133 233 28 -5 56 59 55 127
l0 63 86 26 c47 14 99 28 115 32 l29 7 -21 18 c-34 27 -27 36 34 50 83 19 121
4 353 -132 112 -65 206 -117 209 -114 2 2 -3 23 -12 46 -9 23 -15 43 -13 46 2
2 15 -1 29 -6 65 -25 285 -53 368 -48 76 5 196 30 209 43 6 6 24 -7 -379 269
-184 127 -378 260 -430 296 -52 36 -294 202 -538 369 -357 244 -441 306 -430
315 7 7 81 59 163 116 83 57 236 162 340 234 105 72 277 191 383 264 105 73
192 135 192 138 0 3 -10 2 -22 -1 -71 -20 -753 -184 -756 -182 -1 2 39 21 90
43 51 23 246 107 433 188 187 81 369 160 405 175 36 15 171 74 300 130 129 56
258 111 285 123 53 21 86 44 50 34 -11 -4 -78 -13 -150 -22 -71 -8 -274 -33
-450 -55 -361 -44 -668 -80 -692 -80 -13 0 514 393 640 478 20 14 36 26 34 28
-2 2 -62 -19 -133 -47 -71 -27 -169 -65 -219 -84 -49 -19 -157 -61 -240 -94
-82 -32 -152 -57 -153 -56 -2 2 10 30 26 62 17 32 42 82 57 112 l26 53 -58
-42 c-437 -314 -487 -350 -496 -350 -4 0 4 23 18 50 23 46 71 149 355 765 48
105 143 309 210 455 185 399 190 410 185 410 -2 0 -39 -42 -81 -92z"/>

        <path d="M245 687 c-97 -32 -168 -96 -211 -191 -94 -207 20 -434 244  -486 63
-15 131 -8 208 21 l54 20 -20 37 c-35 66 -33 65 -71 49 -57 -24 -102 -28 -155
-14 -134 35 -204 170 -162 311 18 58 91 131 148 146 54 15 125 9 168 -13 l33
-16 22 37 c13 20 27 42 31 49 4 8 -9 20 -36 34 -53 28 -191 36 -253 16z"/>

        <path d="M3435 691 c-56 -14 -103 -42 -155 -92 -177 -169 -123 -460 105 -566
79 -36 190 -38 278 -4 71 28 158 110 189 178 33 70 32 217 0 289 -29 64 -112
146 -177 175 -54 24 -184 35 -240 20z m169 -112 c21 -6 58 -29 82 -51 56 -52
78 -108 72 -192 -5 -87 -43 -148 -117 -189 -177 -100 -383 56 -341 259 28 135
163 212 304 173z"/>

        <path d="M9014 681 c-63 -39 -67 -143 -7 -190 30 -24 94 -28 133 -8 62 31 76
126 26 183 -31 36 -107 44 -152 15z m131 -25 c32 -32 40 -69 25 -107 -16 -39
-46 -59 -88 -59 -44 0 -68 14 -88 52 -34 66 11 138 88 138 28 0 46 -7 63 -24z"/>

        <path d="M770 355 l0 -337 148 4 c168 4 206 16 280 90 67 65 94 132 96 231 1
115 -21 176 -93 248 -77 76 -120 90 -293 96 l-138 5 0 -337z m282 202 c73 -31
118 -100 125 -192 4 -51 1 -68 -24 -115 -41 -80 -91 -112 -187 -118 l-76 -5 0
228 0 228 64 -6 c36 -3 79 -12 98 -20z"/>

        <path d="M1920 351 c0 -271 3 -341 13 -335 6 4 33 23 60 41 l47 35 0 94 0 94
30 0 c73 0 134 22 176 64 72 71 81 169 25 258 -42 66 -81 81 -228 86 l-123 4
0 -341z m230 221 c45 -22 66 -64 54 -110 -12 -46 -47 -71 -112 -79 l-52 -6 0
107 0 106 38 0 c20 0 53 -8 72 -18z"/>

        <path d="M2570 351 l0 -341 55 36 54 36 3 102 3 101 75 -108 c41 -60 86 -122
98 -138 l24 -29 41 32 c23 17 44 33 46 34 2 2 -31 51 -73 109 -72 98 -83 125
-53 125 22 0 85 70 98 107 19 58 7 145 -25 187 -47 62 -94 79 -228 84 l-118 4
0 -341z m212 229 c21 -6 44 -21 53 -33 22 -31 19 -99 -5 -125 -21 -22 -77 -42
-122 -42 l-28 0 0 105 0 105 33 0 c17 0 49 -5 69 -10z"/>

        <path d="M4282 653 l-51 -38 -1 -217 c0 -119 -4 -228 -10 -242 -15 -39 -49
-51 -93 -33 l-36 16 -25 -44 c-15 -24 -26 -48 -26 -54 0 -11 90 -41 123 -41
74 0 156 63 176 137 13 44 15 553 3 553 -4 0 -31 -17 -60 -37z"/>

        <path d="M4660 355 l0 -335 148 0 148 0 47 48 c26 26 47 51 47 55 0 4 -61 7
-135 7 l-135 0 0 100 0 100 43 0 c38 0 48 5 95 53 29 29 52 56 52 60 0 4 -43
7 -95 7 l-95 0 0 65 0 65 88 0 87 0 48 55 48 55 -195 0 -196 0 0 -335z"/>

        <path d="M5353 653 l-53 -36 0 -304 c0 -168 3 -303 8 -301 4 1 31 19 59 38
l53 35 0 108 c0 59 3 107 8 107 4 0 57 -63 117 -140 61 -76 116 -139 123 -139
15 -1 92 49 92 59 0 7 -156 199 -228 283 -15 17 -5 28 138 172 l155 155 -80 0
-80 0 -122 -122 -123 -123 0 123 c0 67 -3 122 -7 121 -5 0 -32 -16 -60 -36z"/>

        <path d="M5978 639 c-1 -28 -1 -53 1 -55 2 -2 37 -4 78 -4 l73 0 2 -285 3
-285 53 37 c45 32 52 41 53 72 1 20 2 130 3 246 l1 210 78 3 77 3 0 54 0 55
-209 0 -209 0 -4 -51z"/>

        <path d="M6980 351 c0 -189 3 -341 8 -339 4 1 30 19 59 38 l52 35 3 99 3 98
94 -135 c54 -78 99 -133 105 -130 6 4 28 19 48 35 l37 29 -79 107 -78 107 26
14 c143 73 148 281 9 352 -34 18 -65 23 -164 27 l-123 5 0 -342z m215 229 c50
-11 75 -41 75 -90 0 -66 -57 -110 -142 -110 l-28 0 0 105 0 105 28 0 c15 0 45
-5 67 -10z"/>

        <path d="M7670 355 l0 -335 148 0 148 0 47 48 c26 26 47 51 47 55 0 4 -61 7
-135 7 l-135 0 0 100 0 100 43 0 c38 0 48 5 95 53 29 29 52 56 52 60 0 4 -43
7 -95 7 l-95 0 0 65 0 65 88 1 87 1 49 54 49 54 -196 0 -197 0 0 -335z"/>

        <path d="M8333 355 l1 -335 126 0 c84 0 144 5 178 15 73 22 141 80 182 156 33
60 35 70 35 159 0 82 -4 103 -26 150 -67 140 -168 190 -388 190 l-108 0 0
-335z m294 197 c48 -25 67 -46 92 -102 37 -81 24 -184 -32 -247 -44 -50 -98
-73 -174 -73 l-63 0 0 226 0 227 69 -6 c38 -3 86 -14 108 -25z"/>

    </g>
</svg>
