<?xml version="1.0" standalone="no"?>
<!DOCTYPE svg PUBLIC "-//W3C//DTD SVG 20010904//EN"
 "http://www.w3.org/TR/2001/REC-SVG-20010904/DTD/svg10.dtd">
<svg version="1.0" xmlns="http://www.w3.org/2000/svg"
 width="320.000000pt" height="143.000000pt" viewBox="0 0 320.000000 143.000000"
 preserveAspectRatio="xMidYMid meet">
<metadata>
Created by potrace 1.16, written by Peter Selinger 2001-2019
</metadata>
<g transform="translate(0.000000,143.000000) scale(0.100000,-0.100000)"
fill="#000000" stroke="none">
<path d="M0 1365 c0 -36 4 -65 9 -65 5 0 69 -7 143 -15 712 -78 1316 -100
1768 -64 374 29 877 111 1165 188 69 19 57 19 -1507 20 l-1578 1 0 -65z"/>
<path d="M3130 1254 c-253 -63 -622 -121 -990 -156 -198 -19 -785 -16 -1040 5
-327 27 -833 90 -1034 128 -27 5 -53 9 -57 9 -5 0 -9 -89 -8 -197 l0 -198 20
62 c40 128 125 195 254 201 38 2 134 -6 213 -17 79 -12 145 -21 147 -21 3 0 5
-34 5 -75 l0 -75 -44 0 c-24 0 -90 5 -147 11 -126 13 -171 6 -215 -33 -93 -82
-82 -325 19 -389 30 -19 42 -20 167 -15 74 4 154 9 178 12 l42 7 0 -82 c0 -58
-4 -81 -12 -81 -7 0 -76 -9 -153 -20 -168 -24 -206 -25 -274 -4 -91 27 -154
100 -186 217 -13 50 -14 42 -14 -154 l-1 -206 43 8 c94 18 533 80 702 99 386
42 927 70 1098 55 l87 -7 0 -64 c0 -54 -3 -64 -17 -64 -10 0 -115 5 -233 10
-357 18 -873 -10 -1614 -86 l-66 -7 0 -63 0 -64 1578 1 c1244 1 1568 3 1532
13 l-45 12 -3 83 c-3 81 -2 82 20 79 21 -3 23 -8 23 -65 l0 -62 33 -6 c18 -3
40 -9 48 -12 12 -4 14 13 14 99 l0 104 -121 23 c-67 13 -185 34 -263 46 l-141
21 -3 377 -2 377 27 0 c26 0 272 40 436 71 l67 12 0 49 c0 26 -3 48 -7 47 -5
-1 -33 -7 -63 -15z m-500 -180 c0 -11 -151 -395 -212 -539 -63 -149 -63 -150
-98 -153 -19 -2 -53 -1 -75 3 -39 6 -41 7 -74 88 -19 45 -79 179 -134 297 -54
118 -101 223 -104 233 -5 15 4 17 88 17 l94 0 46 -103 c26 -56 61 -137 79
-179 18 -43 36 -78 39 -78 3 0 42 89 87 198 l81 197 79 11 c103 15 104 15 104
8z m-1802 -24 l32 0 0 -192 c1 -221 7 -259 49 -302 26 -25 38 -30 81 -30 59 0
96 23 122 75 15 29 18 63 18 227 l0 193 88 -3 87 -3 0 -210 c-1 -207 -1 -211
-27 -261 -54 -104 -168 -164 -314 -164 -84 0 -149 25 -200 76 -66 66 -74 105
-74 377 l0 230 53 -7 c28 -3 67 -6 85 -6z m970 -52 c73 -14 126 -61 142 -127
23 -95 -8 -182 -82 -230 l-36 -23 84 -103 c82 -101 100 -133 68 -121 -9 3 -55
6 -103 6 l-87 0 -77 95 -78 95 -49 0 -50 0 0 -90 c0 -104 1 -103 -110 -98
l-65 3 -3 295 c-1 162 0 300 2 306 6 14 362 8 444 -8z m315 -669 l37 -10 0
-58 c0 -71 -6 -75 -102 -65 l-68 7 0 68 0 69 48 0 c26 0 64 -5 85 -11z m360
-36 c14 -8 7 -42 -10 -46 -13 -3 -12 -5 5 -6 21 -1 23 -5 20 -43 l-3 -43 -67
1 c-84 1 -108 18 -108 76 0 22 5 48 11 60 10 18 17 20 77 13 37 -4 70 -9 75
-12z m447 -73 c9 0 100 -157 100 -172 0 -11 -53 -1 -58 10 -8 22 -22 30 -59
37 -29 4 -43 3 -43 -4 0 -6 -13 -11 -30 -11 -16 0 -30 5 -30 10 0 22 85 140
98 135 8 -3 17 -5 22 -5z"/>
<path d="M1530 805 l0 -75 94 0 c106 0 131 12 142 67 5 26 1 37 -19 57 -24 24
-32 26 -122 26 l-95 0 0 -75z"/>
<path d="M3189 976 c-2 -2 -82 -12 -176 -22 l-173 -18 0 -74 0 -74 33 6 c17 3
86 6 152 7 l120 1 3 -92 3 -93 -156 5 -155 5 0 -72 0 -73 83 -7 c45 -3 126
-12 180 -19 l97 -12 0 268 c0 147 -1 268 -3 268 -2 0 -6 -2 -8 -4z"/>
</g>
</svg>
