<svg version="1.0" xmlns="http://www.w3.org/2000/svg" width="1200.000000pt" height="384.000000pt" viewBox="0 0 1200.000000 384.000000" preserveAspectRatio="xMidYMid meet">

    <g transform="translate(0.000000,384.000000) scale(0.100000,-0.100000)"
fill="red" stroke="none">

        <path d="M0 1920 l0 -1920 6000 0 6000 0 0 1920 0 1920 -6000 0 -6000 0 0
-1920z m4114 1760 c189 -48 371 -193 465 -370 l32 -59 -63 -34 c-148 -81 -277
-147 -286 -147 -5 0 -15 14 -23 32 -23 57 -123 153 -190 183 -53 23 -71 27
-133 23 -208 -11 -339 -204 -249 -369 49 -92 157 -159 428 -269 328 -132 479
-236 573 -392 178 -297 81 -743 -209 -963 -77 -58 -219 -126 -314 -151 -100
-26 -321 -26 -430 1 -44 10 -82 19 -85 20 -27 4 -139 57 -195 93 -146 93 -293
279 -349 443 -13 36 -12 41 2 46 10 3 91 37 182 74 91 38 168 69 172 69 4 0
23 -30 42 -67 74 -149 162 -239 276 -285 81 -33 261 -32 342 0 81 33 158 106
194 184 24 53 28 76 29 148 0 71 -4 94 -26 140 -56 119 -152 184 -459 315
-356 151 -495 262 -566 450 -36 95 -44 258 -20 369 47 210 202 392 405 477
143 60 316 75 455 39z m2186 -5 c195 -43 363 -132 505 -267 249 -236 384 -580
385 -975 l0 -103 -951 0 -952 0 6 -69 c28 -338 248 -612 562 -703 68 -19 102
-23 225 -22 129 0 154 3 225 27 104 35 191 87 278 167 71 65 165 183 202 253
11 20 25 37 32 37 18 0 337 -186 341 -199 6 -18 -85 -157 -165 -252 -273 -326
-697 -479 -1141 -413 -521 77 -895 466 -976 1017 -58 385 38 809 245 1087 180
241 433 387 754 434 67 10 352 -3 425 -19z m2430 10 c356 -58 640 -267 800
-590 96 -194 138 -367 147 -607 l6 -158 -953 0 -953 0 7 -75 c38 -421 366
-725 781 -725 305 0 512 137 730 483 9 13 34 2 180 -82 94 -54 171 -105 173
-113 6 -29 -140 -231 -233 -323 -173 -173 -372 -280 -620 -331 -132 -27 -395
-26 -525 3 -470 105 -796 450 -897 951 -25 122 -24 440 0 567 82 421 290 725
607 889 214 111 494 152 750 111z m2081 -18 c298 -66 519 -178 694 -351 160
-159 259 -345 311 -586 23 -107 26 -434 5 -550 -105 -579 -535 -937 -1213
-1010 -54 -5 -237 -10 -408 -10 l-310 0 0 1271 0 1271 403 -5 c386 -4 406 -5
518 -30z m-5068 -2945 c66 -33 136 -98 120 -112 -4 -5 -33 -20 -65 -33 l-56
-25 -29 30 c-98 105 -254 83 -318 -46 -66 -133 5 -291 142 -312 81 -12 169 32
191 96 l11 29 -77 3 -77 3 0 50 0 50 159 3 159 3 -5 -68 c-8 -113 -67 -201
-166 -250 -52 -26 -67 -28 -167 -28 -99 0 -115 3 -166 28 -66 32 -132 99 -162
165 -31 69 -30 189 3 257 43 88 132 161 227 185 21 5 77 8 124 7 74 -3 96 -8
152 -35z m856 -264 c74 -167 136 -311 139 -320 4 -16 -4 -18 -72 -18 l-77 0
-30 65 -29 65 -128 0 -128 0 -29 -62 -30 -63 -77 -3 c-43 -2 -78 -1 -78 2 0 6
254 566 276 609 13 25 19 27 72 27 l57 0 134 -302z m638 104 c48 -105 89 -190
92 -186 3 3 42 89 86 192 l81 187 57 3 c31 2 57 -1 57 -5 0 -4 25 -145 54
-313 30 -168 52 -308 50 -312 -3 -5 -36 -8 -74 -8 -81 0 -70 -21 -100 185 -11
77 -23 151 -26 165 -4 19 -23 -16 -86 -163 l-81 -188 -30 3 c-30 3 -33 9 -106
185 -41 101 -76 181 -78 179 -2 -1 -17 -81 -34 -176 -16 -96 -32 -177 -35
-182 -3 -4 -36 -8 -75 -8 -50 0 -69 4 -69 13 0 7 27 150 60 318 33 167 60 305
60 307 0 2 25 2 56 0 l55 -3 86 -193z m1683 182 c61 -18 100 -41 100 -58 -1
-21 -58 -79 -72 -72 -7 4 -24 13 -38 21 -61 36 -150 6 -150 -50 0 -30 27 -49
106 -75 129 -43 184 -101 184 -192 -1 -124 -100 -209 -244 -208 -72 1 -119 16
-170 55 -63 48 -65 63 -15 106 l43 37 37 -38 c77 -80 189 -58 189 36 0 42 -27
63 -122 98 -126 46 -181 112 -163 199 26 124 164 186 315 141z m-582 -56 l3
-58 -121 0 -120 0 0 -60 0 -59 113 -3 112 -3 0 -53 0 -54 -110 -1 -110 -2 0
-80 0 -80 118 -3 117 -3 0 -55 0 -54 -192 2 -193 3 -3 300 c-1 165 0 306 3
313 3 10 47 12 192 10 l188 -3 3 -57z"/>

        <path d="M5871 3290 c-279 -75 -498 -299 -556 -567 l-7 -33 720 0 720 0 -9 41
c-31 138 -118 288 -223 386 -136 128 -272 184 -456 190 -92 2 -130 -1 -189
-17z"/>

        <path d="M8365 3291 c-152 -41 -264 -110 -375 -228 -95 -101 -161 -225 -183
-340 l-6 -33 718 0 719 0 -9 39 c-5 22 -19 69 -33 105 -71 197 -249 374 -443
441 -107 37 -284 44 -388 16z"/>

        <path d="M10280 2434 l0 -877 158 6 c189 7 311 27 454 74 290 95 468 285 534
569 25 104 25 346 2 451 -36 156 -100 275 -204 378 -116 115 -295 201 -499
240 -78 15 -303 35 -397 35 l-48 0 0 -876z"/>

        <path d="M6358 460 l-35 -100 78 0 c44 0 79 4 79 8 0 11 -70 176 -79 185 -4 4
-23 -38 -43 -93z"/>
    </g>
</svg>
