<?xml version="1.0" standalone="no"?>
<!DOCTYPE svg PUBLIC "-//W3C//DTD SVG 20010904//EN"
 "http://www.w3.org/TR/2001/REC-SVG-20010904/DTD/svg10.dtd">
<svg version="1.0" xmlns="http://www.w3.org/2000/svg"
 width="3000.000000pt" height="2000.000000pt" viewBox="0 0 3000.000000 2000.000000"
 preserveAspectRatio="xMidYMid meet">
<metadata>
Created by potrace 1.16, written by Peter Selinger 2001-2019
</metadata>
<g transform="translate(0.000000,2000.000000) scale(0.100000,-0.100000)"
fill="#000000" stroke="none">
<path d="M5750 12579 c-984 -113 -1827 -789 -2150 -1726 -94 -271 -130 -475
-137 -774 -6 -241 4 -380 43 -583 188 -972 932 -1761 1894 -2010 232 -60 333
-71 645 -71 235 0 311 3 398 18 542 92 1014 325 1393 690 436 419 700 939 786
1547 8 59 13 188 13 340 -1 281 -14 393 -75 636 -50 195 -93 313 -190 509
-387 788 -1160 1330 -2032 1424 -113 13 -479 12 -588 0z m650 -518 c440 -78
810 -270 1126 -585 341 -341 545 -761 604 -1246 13 -109 13 -362 0 -470 -76
-612 -407 -1154 -915 -1498 -49 -34 -91 -60 -93 -58 -1 2 11 57 27 122 88 350
131 720 131 1126 0 131 3 178 12 178 6 0 81 -21 166 -46 84 -25 156 -44 158
-41 12 12 -164 413 -292 667 -101 201 -243 450 -256 450 -4 0 -19 -22 -33 -50
-120 -237 -371 -588 -614 -858 -46 -51 -81 -95 -79 -97 2 -3 96 1 209 9 112 7
206 12 208 10 7 -6 -94 -166 -173 -271 -320 -428 -742 -687 -1277 -783 l-97
-17 -6 36 c-43 244 -58 605 -36 842 44 494 190 919 427 1252 74 104 242 278
343 356 l78 61 10 -48 c6 -26 25 -118 43 -204 18 -87 35 -158 39 -158 3 0 14
14 25 32 69 118 278 369 533 642 97 104 178 192 180 195 4 10 -209 78 -333
106 -154 34 -345 55 -510 55 -142 0 -403 -25 -418 -39 -5 -5 41 -51 102 -102
l110 -94 -32 -14 c-102 -46 -333 -165 -402 -206 -564 -340 -972 -788 -1289
-1416 -72 -142 -96 -181 -100 -165 -4 12 -9 89 -13 171 -34 826 415 1592 1150
1961 239 120 449 182 747 218 93 11 429 -3 540 -23z"/>
<path d="M14290 11694 c-217 -46 -376 -208 -427 -434 -26 -114 -25 -716 1
-810 45 -164 151 -302 284 -368 112 -55 181 -64 449 -60 263 5 317 15 416 77
l47 31 0 445 0 445 -280 0 -280 0 0 -160 0 -160 100 0 100 0 0 -154 0 -155
-56 -7 c-31 -3 -102 -4 -158 -2 -123 5 -184 30 -221 87 -47 73 -50 98 -50 406
l0 290 28 56 c31 65 79 103 147 118 25 6 177 11 348 11 l302 0 0 180 0 180
-342 -1 c-254 0 -360 -4 -408 -15z"/>
<path d="M21010 11694 c-218 -47 -378 -211 -424 -436 -22 -108 -23 -713 -1
-805 37 -156 151 -305 283 -371 112 -55 181 -64 449 -60 264 5 310 13 419 79
l54 33 0 443 0 443 -285 0 -285 0 0 -160 0 -160 100 0 100 0 0 -154 0 -153
-37 -7 c-61 -10 -218 -7 -275 5 -69 15 -137 81 -159 155 -19 67 -20 578 -1
642 16 52 62 106 116 135 39 21 54 22 369 25 l327 3 0 180 0 179 -342 -1
c-254 0 -360 -4 -408 -15z"/>
<path d="M9010 11688 c0 -9 373 -1374 436 -1595 l15 -53 212 0 212 0 84 483
c46 265 87 492 90 505 4 14 41 -173 90 -455 46 -263 85 -490 88 -505 l6 -28
211 0 212 0 222 808 c123 444 225 817 229 830 l5 22 -205 0 -206 0 -10 -37
c-5 -21 -60 -257 -122 -526 l-113 -487 -83 507 c-45 280 -82 516 -83 526 0 16
-18 17 -235 17 -129 0 -235 -3 -235 -7 -2 -50 -169 -1024 -174 -1013 -6 15
-236 1003 -236 1014 0 3 -92 6 -205 6 -149 0 -205 -3 -205 -12z"/>
<path d="M11440 11696 c0 -4 -436 -1609 -445 -1636 -6 -19 -1 -20 188 -20
l194 0 22 103 c13 56 30 132 38 170 l15 67 203 0 203 0 20 -87 c11 -49 28
-125 38 -170 l17 -83 195 0 c151 0 193 3 190 13 -3 6 -106 380 -229 829 l-224
818 -212 0 c-117 0 -213 -2 -213 -4z m290 -748 c33 -146 60 -269 60 -272 0 -3
-58 -6 -130 -6 -97 0 -130 3 -130 13 0 6 28 137 62 290 40 176 66 271 70 260
4 -10 35 -138 68 -285z"/>
<path d="M12510 10871 l0 -831 180 0 180 0 0 305 0 305 109 0 108 0 82 -227
c46 -126 94 -263 109 -305 l27 -78 213 0 c116 0 212 1 212 3 0 1 -65 155 -144
342 l-145 340 37 19 c50 25 98 72 130 126 l27 45 0 280 c0 279 0 280 -25 329
-32 62 -97 119 -169 148 -55 22 -66 23 -493 26 l-438 3 0 -830z m742 460 l30
-33 -4 -124 c-3 -120 -4 -124 -31 -151 l-27 -28 -175 -3 -175 -3 0 191 0 191
176 -3 176 -3 30 -34z"/>
<path d="M15611 11668 c-13 -43 -441 -1616 -441 -1623 0 -3 87 -4 192 -3 l193
3 31 141 c17 78 34 154 38 168 l6 26 204 0 203 0 37 -167 c20 -92 38 -169 40
-170 2 -2 89 -2 193 -1 l190 3 -222 805 c-122 443 -225 815 -229 828 -7 22 -8
22 -216 22 l-208 0 -11 -32z m287 -705 c34 -153 62 -281 62 -285 0 -5 -58 -8
-130 -8 -71 0 -130 3 -130 8 0 20 125 562 130 562 3 0 34 -125 68 -277z"/>
<path d="M16650 10870 l0 -830 175 0 175 0 1 483 1 482 121 -482 122 -483 185
0 185 0 120 478 120 477 3 -477 2 -478 175 0 175 0 0 830 0 830 -227 -2 -228
-3 -161 -600 c-89 -330 -165 -593 -168 -585 -3 8 -71 263 -151 565 -80 303
-150 567 -156 588 l-10 37 -229 0 -230 0 0 -830z"/>
<path d="M18490 10870 l0 -830 185 0 185 0 0 830 0 830 -185 0 -185 0 0 -830z"/>
<path d="M19140 10870 l0 -830 175 0 175 0 2 474 3 475 257 -472 256 -472 181
-3 181 -2 0 830 0 830 -175 0 -175 0 -2 -482 -3 -481 -259 481 -259 482 -179
0 -178 0 0 -830z"/>
<path d="M22660 10870 l0 -830 175 0 175 0 2 475 3 475 258 -475 259 -475 179
0 179 0 0 830 0 830 -175 0 -175 0 -2 -481 -3 -481 -259 481 -258 481 -179 0
-179 0 0 -830z"/>
<path d="M24150 10870 l0 -830 530 0 530 0 0 165 0 165 -350 0 -350 0 0 185 0
185 320 0 320 0 0 160 0 160 -320 0 -320 0 0 155 0 155 350 0 350 0 0 165 0
165 -530 0 -530 0 0 -830z"/>
<path d="M25380 11535 l0 -165 200 0 200 0 0 -665 0 -665 185 0 185 0 0 665 0
665 195 0 195 0 0 165 0 165 -580 0 -580 0 0 -165z"/>
<path d="M22060 10180 l0 -170 175 0 175 0 0 170 0 170 -175 0 -175 0 0 -170z"/>
<path d="M9520 8680 l0 -380 235 0 235 0 0 38 c0 20 3 47 6 60 l6 22 -171 0
-171 0 0 320 0 320 -70 0 -70 0 0 -380z"/>
<path d="M10510 8675 l0 -385 238 2 237 3 3 63 3 62 -171 0 -170 0 0 105 0
105 150 0 150 0 0 60 0 60 -155 0 -155 0 0 90 0 90 170 0 170 0 0 65 0 65
-235 0 -235 0 0 -385z"/>
<path d="M12762 9049 c-108 -21 -152 -83 -152 -214 0 -56 6 -92 19 -120 35
-76 79 -99 211 -110 134 -11 160 -29 160 -108 0 -67 -28 -77 -226 -77 l-154 0
0 -70 0 -70 143 0 c232 1 290 15 341 84 17 23 22 45 24 129 3 90 0 107 -20
147 -32 62 -79 86 -198 100 -52 6 -107 16 -122 22 -32 12 -52 62 -42 102 12
50 35 56 201 56 l153 0 0 70 0 70 -147 -1 c-82 -1 -168 -5 -191 -10z"/>
<path d="M14270 8679 l0 -380 194 3 c216 3 224 6 274 78 19 29 22 46 22 134 0
84 -4 108 -21 140 l-21 39 21 38 c17 29 21 54 21 125 0 112 -17 150 -80 182
-41 20 -57 22 -227 22 l-183 0 0 -381z m350 232 c5 -11 10 -44 10 -75 0 -75
-16 -86 -132 -86 l-88 0 0 90 0 90 100 0 c88 0 100 -2 110 -19z m-12 -293 c7
-7 12 -42 12 -88 0 -46 -5 -81 -12 -88 -8 -8 -46 -12 -105 -12 l-93 0 0 100 0
100 93 0 c59 0 97 -4 105 -12z"/>
<path d="M18180 8680 l0 -380 215 0 215 0 0 60 0 60 -145 0 -145 0 0 320 0
320 -70 0 -70 0 0 -380z"/>
<path d="M19180 8675 l0 -385 235 0 235 0 0 65 0 65 -165 0 -165 0 0 105 0
105 150 0 150 0 0 60 0 60 -150 0 -150 0 0 90 0 90 165 0 165 0 0 65 0 65
-235 0 -235 0 0 -385z"/>
<path d="M11430 8990 l0 -60 95 0 95 0 0 -315 0 -315 70 0 70 0 0 315 0 315
95 0 95 0 0 60 0 60 -260 0 -260 0 0 -60z"/>
<path d="M12245 8968 c-17 -45 -31 -86 -33 -90 -2 -4 14 -14 34 -23 31 -13 40
-13 49 -3 37 42 143 166 154 181 13 16 7 17 -80 17 l-94 0 -30 -82z"/>
<path d="M15376 8998 c-66 -232 -186 -678 -186 -691 0 -14 11 -17 70 -17 68 0
70 1 76 28 3 15 10 45 16 67 19 81 8 75 127 75 l109 0 11 -47 c7 -27 16 -65
22 -85 l10 -38 69 0 c58 0 70 3 70 16 0 14 -131 498 -186 692 l-15 52 -89 0
-89 0 -15 -52z m101 -416 c-38 -2 -71 -1 -74 1 -3 4 28 137 59 252 l11 40 37
-145 36 -145 -69 -3z"/>
<path d="M16160 8990 l0 -60 95 0 95 0 0 -315 0 -315 70 0 70 0 0 315 0 315
95 0 95 0 0 60 0 60 -260 0 -260 0 0 -60z"/>
<path d="M17170 8990 l0 -60 95 0 95 0 0 -315 0 -315 70 0 70 0 0 315 0 315
95 0 95 0 0 60 0 60 -260 0 -260 0 0 -60z"/>
</g>
</svg>
