<?xml version="1.0" standalone="no"?>
<!DOCTYPE svg PUBLIC "-//W3C//DTD SVG 20010904//EN"
 "http://www.w3.org/TR/2001/REC-SVG-20010904/DTD/svg10.dtd">
<svg version="1.0" xmlns="http://www.w3.org/2000/svg"
 width="1818.000000pt" height="1069.000000pt" viewBox="0 0 1818.000000 1069.000000"
 preserveAspectRatio="xMidYMid meet">
<metadata>
Created by potrace 1.16, written by Peter Selinger 2001-2019
</metadata>
<g transform="translate(0.000000,1069.000000) scale(0.100000,-0.100000)"
fill="#000000" stroke="none">
<path d="M17310 570 l0 -560 75 0 75 0 0 175 0 175 85 0 c164 0 185 -26 185
-225 l0 -125 75 0 75 0 0 141 c0 82 -5 159 -12 182 -16 52 -75 115 -116 123
l-32 7 34 37 c35 38 166 252 166 270 0 6 -35 10 -82 10 l-83 0 -49 -88 c-98
-173 -118 -192 -207 -192 l-39 0 0 315 0 315 -75 0 -75 0 0 -560z"/>
<path d="M6788 728 c-3 -386 -3 -394 -26 -443 -44 -95 -115 -145 -207 -144
-148 0 -245 101 -245 255 0 177 136 285 304 240 35 -10 77 -26 95 -37 17 -10
34 -19 36 -19 3 0 5 36 5 80 0 77 -1 80 -28 94 -45 23 -148 39 -225 34 -151
-10 -269 -109 -317 -266 -64 -207 37 -431 225 -501 78 -29 213 -29 292 1 80
29 180 129 214 213 24 60 24 63 27 473 l3 412 -75 0 -75 0 -3 -392z"/>
<path d="M7905 1005 c-56 -55 -16 -145 65 -145 55 0 80 26 80 83 0 33 -6 49
-23 65 -33 31 -90 30 -122 -3z"/>
<path d="M3400 583 c0 -236 4 -403 10 -425 14 -49 53 -94 104 -120 33 -17 65
-22 169 -26 l127 -5 0 77 0 76 -109 0 c-164 0 -155 -14 -159 259 l-3 221 135
0 136 0 0 70 0 70 -135 0 -135 0 0 95 0 95 -70 0 -70 0 0 -387z"/>
<path d="M9229 767 c-143 -60 -228 -169 -249 -318 -25 -177 61 -333 228 -412
62 -30 75 -32 172 -32 99 0 110 2 171 32 81 40 140 102 182 191 30 63 32 74
32 177 0 99 -3 115 -27 165 -36 74 -108 144 -187 183 -58 28 -76 32 -165 35
-88 2 -108 0 -157 -21z m246 -136 c88 -41 137 -123 136 -230 -1 -115 -34 -184
-109 -229 -41 -23 -58 -27 -127 -27 -97 1 -150 26 -195 92 -92 140 -47 329 95
394 53 25 147 24 200 0z"/>
<path d="M2064 766 c-110 -27 -163 -89 -164 -191 0 -120 66 -177 280 -245 69
-22 140 -49 157 -60 43 -26 53 -65 24 -93 -21 -21 -32 -22 -241 -25 l-220 -3
0 -70 0 -71 233 4 233 3 59 30 c67 35 95 77 103 156 6 69 -19 129 -74 178 -47
41 -108 67 -240 101 -85 23 -141 50 -150 75 -4 8 -3 26 0 40 9 36 57 45 254
45 l172 0 0 70 0 70 -187 -1 c-112 0 -209 -6 -239 -13z"/>
<path d="M4652 503 l3 -278 28 -57 c31 -63 78 -106 154 -141 70 -32 218 -32
285 2 63 31 119 86 149 147 23 48 24 56 27 327 l3 277 -76 0 -75 0 0 -253 0
-253 -29 -46 c-56 -88 -156 -110 -242 -54 -74 50 -79 71 -79 356 l0 250 -76 0
-75 0 3 -277z"/>
<path d="M7890 395 l0 -385 75 0 75 0 0 385 0 385 -75 0 -75 0 0 -385z"/>
<path d="M10782 769 c-56 -11 -120 -47 -146 -82 -25 -33 -34 -138 -16 -191 24
-73 106 -120 314 -181 107 -32 162 -76 147 -117 -15 -43 -42 -48 -263 -48
l-208 0 0 -71 0 -71 233 4 c252 4 282 10 340 66 54 52 69 169 31 243 -31 62
-138 122 -274 154 -141 33 -194 71 -172 121 17 35 69 44 260 44 l172 0 0 70 0
70 -187 -1 c-104 -1 -207 -5 -231 -10z"/>
<path d="M15762 513 c5 -303 10 -329 79 -407 22 -25 65 -57 97 -73 50 -25 68
-28 152 -28 76 0 104 4 141 21 67 31 124 87 156 152 l28 57 3 273 3 272 -75 0
-76 0 0 -242 c0 -215 -3 -248 -19 -284 -24 -54 -84 -102 -136 -109 -81 -13
-171 49 -194 132 -6 22 -11 139 -11 271 l0 232 -76 0 -76 0 4 -267z"/>
</g>
</svg>
