<svg version="1.0" xmlns="http://www.w3.org/2000/svg" width="1200.000000pt" height="150.000000pt" viewBox="0 0 1200.000000 150.000000" preserveAspectRatio="xMidYMid meet">
    
    <g transform="translate(0.000000,150.000000) scale(0.100000,-0.100000)"
fill="#000000" stroke="none">
    
    <path d="M235 1281 c-97 -45 -115 -93 -115 -303 0 -137 3 -169 19 -203 22 -47
64 -89 104 -104 18 -7 165 -11 413 -11 l384 0 0 -120 0 -120 -476 0 -477 0 6
-52 c8 -63 45 -114 107 -145 44 -23 48 -23 470 -23 l426 0 50 25 c28 14 60 40
74 62 24 35 25 43 28 227 4 246 -9 290 -99 336 -36 19 -60 20 -424 20 l-385 0
0 115 0 115 335 0 335 0 0 -45 0 -45 115 0 115 0 0 53 c0 108 -40 184 -114
218 -38 17 -72 19 -446 19 -373 0 -408 -2 -445 -19z"/>
    
    <path d="M1545 1281 c-48 -22 -79 -54 -100 -103 -13 -32 -15 -98 -15 -430 0
-361 2 -396 19 -433 43 -94 95 -115 281 -115 l140 0 0 -70 0 -70 125 0 125 0
0 70 0 70 153 0 c126 0 159 4 192 19 50 22 91 69 105 119 13 50 13 774 0 824
-14 50 -55 97 -105 119 -37 17 -74 19 -460 19 -387 0 -423 -2 -460 -19z m775
-521 l0 -340 -100 0 -100 0 0 55 0 55 -125 0 -125 0 0 -55 0 -55 -95 0 -95 0
0 340 0 340 320 0 320 0 0 -340z"/>
    
    <path d="M2762 812 l3 -488 24 -36 c13 -19 40 -46 59 -59 l36 -24 406 0 406 0
42 28 c23 15 52 46 64 70 23 42 23 45 26 520 l3 477 -125 0 -126 0 0 -440 0
-440 -290 0 -290 0 0 440 0 440 -120 0 -121 0 3 -488z"/>
    
    <path d="M4137 750 l-278 -550 125 0 126 0 60 120 60 120 299 0 300 0 62 -120
63 -120 124 0 c74 0 122 4 120 10 -1 5 -127 252 -278 550 l-275 540 -115 0
-115 0 -278 -550z m497 80 l97 -190 -199 0 -199 0 96 190 c53 104 99 190 102
190 3 0 50 -85 103 -190z"/> 

    <path d="M5300 750 l0 -550 125 0 125 0 0 205 0 205 68 0 67 1 200 -206 200
-206 163 3 163 3 -192 200 -192 200 79 6 c111 7 165 40 199 121 22 54 22 392
0 446 -21 49 -52 81 -100 103 -37 17 -73 19 -472 19 l-433 0 0 -550z m752 333
c26 -23 27 -227 1 -255 -15 -16 -36 -18 -260 -18 l-243 0 0 145 0 145 242 0
c211 0 244 -2 260 -17z"/>
    
    <path d="M6520 750 l0 -550 460 0 460 0 0 110 0 110 -340 0 -340 0 0 340 0
340 340 0 340 0 0 100 0 100 -460 0 -460 0 0 -550z"/>
    
    <path d="M7940 750 l0 -550 460 0 460 0 0 110 0 110 -340 0 -340 0 0 340 0
340 340 0 340 0 0 100 0 100 -460 0 -460 0 0 -550z"/>
    
    <path d="M9040 750 l0 -550 115 0 115 0 2 379 3 378 315 -376 316 -376 87 -3
87 -3 0 551 0 550 -125 0 -125 0 -2 -357 -3 -358 -299 358 -300 357 -93 0 -93
0 0 -550z"/>
    
    <path d="M10260 750 l0 -550 130 0 130 0 0 550 0 550 -130 0 -130 0 0 -550z"/>
    
    <path d="M10640 1293 c0 -5 104 -123 230 -263 126 -140 230 -258 230 -262 0
-4 -100 -125 -222 -270 -123 -145 -229 -271 -237 -281 -13 -16 -4 -17 136 -17
l150 0 162 192 c90 106 166 194 170 196 4 1 86 -85 182 -193 l174 -195 148 0
c81 0 147 2 147 6 0 4 -339 384 -478 536 l-24 27 221 260 c121 143 221 263
221 266 0 3 -66 5 -147 5 l-148 0 -26 -33 c-14 -17 -83 -98 -152 -179 l-125
-147 -162 179 -161 180 -145 0 c-79 0 -144 -3 -144 -7z"/>
    
    <path fill="red" d="M6960 765 l0 -105 200 0 200 0 0 105 0 105 -200 0 -200 0 0 -105z"/>
    
    <path fill="red" d="M8380 765 l0 -105 200 0 200 0 0 105 0 105 -200 0 -200 0 0 -105z"/>
</g>
</svg>
