<svg version="1.0" xmlns="http://www.w3.org/2000/svg" width="2685.000000pt" height="1083.000000pt" viewBox="0 0 2685.000000 1083.000000" preserveAspectRatio="xMidYMid meet">
    
    <g transform="translate(0.000000,1083.000000) scale(0.100000,-0.100000)"
fill="#000000" stroke="none">
        
        <path fill="#7700bd" d="M20805 8814 c-496 -89 -883 -480 -970 -981 -13 -74 -15 -340 -15
-1924 l0 -1839 645 0 645 0 0 2380 0 2380 -112 -1 c-62 0 -149 -7 -193 -15z"/>

        <path d="M3706 8809 c-546 -58 -1000 -509 -1054 -1049 l-7 -75 -263 -3 -262
-2 0 -510 0 -510 260 0 259 0 4 -762 c4 -829 2 -794 62 -974 137 -407 485
-722 915 -827 79 -19 121 -21 588 -24 l502 -4 0 650 0 651 -385 0 -385 0 0
645 0 645 380 0 380 0 0 510 0 510 -380 0 -380 0 0 570 0 570 -77 -1 c-43 -1
-114 -5 -157 -10z"/>
        
        <path fill="#7700bd" d="M21390 8140 l0 -680 681 0 c543 0 680 -3 677 -13 -2 -7 -73 -129
-159 -272 -644 -1071 -1039 -1988 -1158 -2690 -20 -114 -41 -313 -41 -382 l0
-33 679 0 679 0 7 68 c50 541 493 1528 1180 2627 183 294 221 365 259 484 45
144 59 248 53 416 -4 118 -10 171 -31 247 -58 217 -158 391 -315 549 -174 174
-356 274 -606 332 -87 20 -119 21 -997 24 l-908 4 0 -681z"/>
        
        <path d="M24189 8742 c-80 -42 -113 -94 -117 -186 -4 -81 12 -127 64 -180 84
-85 227 -88 316 -8 54 49 78 102 78 177 0 173 -184 279 -341 197z m215 -50
c135 -94 89 -298 -76 -336 -83 -19 -186 51 -207 141 -40 166 144 293 283 195z"/>
        
        <path d="M24200 8546 l0 -126 25 0 c23 0 25 3 25 50 0 48 1 50 28 50 24 0 32
-7 52 -50 20 -43 28 -50 52 -50 34 0 34 4 3 54 l-24 40 29 18 c25 15 30 24 30
56 0 67 -15 77 -124 80 l-96 4 0 -126z"/>
        
        <path d="M6725 7794 c-230 -33 -381 -71 -526 -134 -535 -232 -896 -667 -1040
-1254 -48 -199 -63 -328 -62 -556 0 -216 17 -382 53 -540 159 -679 624 -1128
1330 -1284 222 -49 343 -60 650 -60 290 -1 365 5 580 46 297 55 554 137 783
250 138 68 157 80 149 95 -6 10 -96 198 -202 418 -106 220 -194 402 -196 404
-1 2 -45 -17 -96 -42 -185 -89 -433 -164 -635 -193 -157 -22 -434 -22 -567 0
-272 45 -477 169 -561 340 -34 68 -65 162 -65 199 0 16 65 17 1216 17 l1216 0
-5 298 c-5 313 -15 405 -63 619 -53 237 -156 479 -292 683 -94 142 -265 317
-400 408 -183 125 -431 225 -662 267 -70 13 -159 19 -335 20 -132 2 -253 1
-270 -1z m382 -969 c255 -48 477 -280 494 -516 l4 -44 -638 -3 -637 -2 0 39
c0 22 11 75 25 119 94 299 412 471 752 407z"/>
        
        <path d="M10665 7790 c-187 -12 -310 -27 -475 -60 -295 -59 -636 -200 -872
-362 l-87 -59 236 -357 c130 -196 240 -364 246 -373 9 -15 16 -13 61 16 178
114 450 209 684 240 143 19 387 19 484 1 254 -49 389 -186 405 -414 l6 -84
-59 6 c-32 3 -189 8 -349 12 -320 7 -456 -3 -672 -52 -628 -140 -1043 -508
-1138 -1008 -48 -249 -19 -561 70 -752 79 -172 196 -306 354 -405 115 -72 221
-114 376 -148 109 -23 140 -25 335 -25 246 0 351 14 519 70 171 57 320 150
482 302 l77 72 5 -33 c3 -17 14 -92 23 -164 l18 -133 608 0 609 0 -4 1223 c-3
1081 -6 1231 -20 1300 -53 256 -130 435 -265 616 -225 303 -589 497 -1047 556
-147 19 -436 26 -610 15z m617 -2142 l70 -11 -4 -186 c-6 -209 -19 -268 -83
-376 -88 -150 -260 -235 -472 -235 -263 1 -406 123 -420 361 -7 105 17 189 75
261 122 153 303 212 621 202 79 -2 175 -9 213 -16z"/>

        <path d="M15295 7754 c-286 -48 -521 -166 -711 -358 l-102 -102 -16 145 c-9
81 -20 167 -23 194 l-6 47 -623 0 -624 0 0 -1800 0 -1800 645 0 644 0 4 1028
c3 951 4 1031 21 1087 35 118 75 186 155 265 118 117 248 170 416 170 250 0
387 -107 458 -359 22 -75 22 -83 25 -1133 l3 -1058 609 0 609 0 3 1033 c4
1144 0 1072 70 1217 38 78 148 192 225 233 76 40 192 67 292 67 250 0 392
-113 464 -369 21 -75 22 -84 25 -1128 l3 -1053 649 0 650 0 0 1123 c-1 1160
-5 1351 -39 1523 -81 417 -309 731 -655 899 -220 107 -382 139 -706 140 -224
0 -241 -1 -354 -28 -163 -39 -267 -77 -421 -152 -149 -73 -288 -162 -368 -235
-30 -27 -57 -50 -59 -50 -3 0 -37 38 -76 84 -163 191 -415 327 -688 370 -124
20 -384 20 -499 0z"/>
    </g>
</svg>
