<?xml version="1.0" standalone="no"?>
<!DOCTYPE svg PUBLIC "-//W3C//DTD SVG 20010904//EN"
 "http://www.w3.org/TR/2001/REC-SVG-20010904/DTD/svg10.dtd">
<svg version="1.0" xmlns="http://www.w3.org/2000/svg"
 width="1280.000000pt" height="288.000000pt" viewBox="0 0 1280.000000 288.000000"
 preserveAspectRatio="xMidYMid meet">
<metadata>
Created by potrace 1.16, written by Peter Selinger 2001-2019
</metadata>
<g transform="translate(0.000000,288.000000) scale(0.100000,-0.100000)"
fill="#000000" stroke="none">
<path fill="red" d="M1200 2865 c-586 -99 -1050 -548 -1177 -1138 -25 -117 -25 -457 0
-574 124 -574 556 -1006 1130 -1130 118 -26 457 -25 575 0 568 122 1001 552
1127 1118 23 102 31 384 15 502 -41 305 -187 594 -410 817 -217 217 -488 357
-785 405 -110 18 -370 18 -475 0z m400 -330 c241 -36 448 -141 621 -314 384
-383 436 -977 126 -1420 -61 -87 -186 -211 -273 -271 -102 -70 -242 -135 -359
-167 -91 -24 -116 -27 -275 -27 -159 0 -184 3 -275 27 -113 31 -293 115 -375
176 -555 415 -616 1197 -131 1682 251 251 596 367 941 314z"/>
<path fill="red" d="M1617 1732 l-117 -117 82 -83 83 -82 -83 -83 c-45 -45 -82 -87 -82
-92 0 -6 52 -62 115 -125 l115 -115 87 88 88 87 87 -87 87 -86 48 41 c26 22
81 74 120 114 l73 73 -90 90 -90 90 85 85 85 85 -120 120 -120 120 -85 -85
-85 -85 -83 83 -82 82 -118 -118z"/>
<path fill="red" d="M687 1722 l-117 -117 82 -83 83 -82 -83 -83 c-45 -45 -82 -87 -82
-92 0 -6 52 -62 115 -125 l115 -115 87 88 88 87 87 -87 88 -88 120 120 120
120 -87 87 -88 88 85 85 84 85 -44 46 c-25 25 -80 78 -123 116 l-78 71 -82
-81 -82 -82 -80 80 c-44 44 -82 80 -85 80 -3 0 -58 -53 -123 -118z"/>
<path d="M3895 2256 c-156 -38 -247 -143 -262 -299 l-6 -67 -53 0 -54 0 0
-125 0 -125 55 0 55 0 0 -350 0 -350 150 0 150 0 0 350 0 350 85 0 85 0 0 125
0 125 -86 0 -86 0 7 28 c16 65 53 92 126 92 l39 0 0 130 0 130 -77 -1 c-43 0
-100 -6 -128 -13z"/>
<path d="M11820 1600 l0 -660 145 0 145 0 0 268 c0 155 4 283 11 305 23 83
111 146 206 147 63 0 99 -13 136 -48 50 -48 57 -97 57 -399 l0 -273 141 0 140
0 -3 348 -3 347 -31 65 c-40 82 -92 134 -174 174 -61 29 -72 31 -180 31 -129
0 -190 -15 -259 -66 l-41 -29 0 225 0 225 -145 0 -145 0 0 -660z"/>
<path d="M4490 1895 c-159 -45 -268 -148 -320 -305 -30 -90 -31 -247 -1 -341
40 -126 116 -217 227 -273 75 -37 131 -49 229 -49 104 0 171 18 245 68 l50 34
0 -45 0 -44 135 0 135 0 0 480 0 480 -140 0 -140 0 0 -46 0 -46 -35 26 c-68
52 -122 69 -230 73 -68 2 -117 -2 -155 -12z m280 -242 c80 -32 130 -111 138
-214 8 -109 -33 -198 -112 -244 -122 -71 -276 -25 -336 102 -25 54 -30 166
-10 218 51 134 187 192 320 138z"/>
<path d="M5710 1903 c-197 -33 -360 -175 -406 -352 -22 -89 -15 -235 15 -313
48 -124 155 -228 285 -277 176 -66 401 -42 531 57 53 40 130 141 118 153 -5 5
-54 33 -110 63 l-103 56 -52 -54 c-61 -63 -112 -81 -197 -73 -118 12 -200 101
-209 227 -6 91 11 149 59 204 95 107 273 105 360 -5 17 -21 35 -39 40 -39 5 0
57 25 114 56 l105 56 -20 38 c-46 90 -167 174 -288 199 -51 11 -189 13 -242 4z"/>
<path d="M6650 1894 c-132 -35 -258 -132 -314 -242 -79 -157 -70 -371 23 -506
100 -145 260 -220 471 -219 160 0 267 34 365 117 l40 34 -79 86 -78 86 -32
-25 c-57 -43 -123 -67 -194 -68 -87 -2 -152 17 -202 60 -34 29 -80 97 -80 118
0 3 162 5 360 5 l360 0 1 38 c5 139 -19 237 -80 329 -90 133 -239 204 -430
202 -42 0 -101 -7 -131 -15z m238 -220 c20 -8 50 -27 65 -42 28 -27 67 -91 67
-112 0 -6 -76 -10 -225 -10 -149 0 -225 4 -225 10 0 21 39 85 67 112 15 15 44
34 63 42 46 20 141 20 188 0z"/>
<path d="M7840 1896 c-71 -21 -95 -32 -134 -66 l-36 -32 0 51 0 51 -135 0
-135 0 0 -650 0 -650 140 0 140 0 0 215 0 216 38 -30 c49 -39 95 -58 177 -71
146 -23 298 24 404 125 101 96 141 199 141 365 0 244 -127 418 -347 475 -69
18 -191 18 -253 1z m180 -246 c85 -43 122 -105 128 -215 4 -68 1 -89 -18 -133
-88 -204 -380 -182 -440 33 -16 57 -9 159 15 205 61 121 198 168 315 110z"/>
<path d="M10125 1895 c-27 -8 -53 -14 -56 -15 -3 0 -34 -18 -67 -40 l-62 -40
0 50 0 50 -135 0 -135 0 0 -480 0 -480 145 0 145 0 0 278 c0 252 2 281 20 320
36 80 104 122 197 122 101 0 162 -47 182 -140 6 -30 11 -162 11 -315 l0 -265
141 0 140 0 -3 348 -3 347 -31 65 c-40 82 -92 135 -173 173 -56 26 -77 31
-165 34 -67 2 -118 -2 -151 -12z"/>
<path d="M11150 1895 c-263 -65 -417 -283 -382 -544 34 -255 238 -422 517
-424 161 -2 280 39 366 126 42 42 88 112 79 120 -11 9 -213 117 -219 117 -3
-1 -19 -19 -34 -41 -35 -51 -112 -89 -182 -89 -91 0 -186 61 -218 140 -55 133
-10 283 102 344 102 55 219 34 293 -54 19 -22 39 -40 45 -40 11 0 193 97 207
110 13 13 -36 91 -85 134 -50 46 -145 92 -218 106 -73 14 -204 11 -271 -5z"/>
<path d="M8560 1597 c0 -394 12 -456 105 -556 82 -88 232 -133 369 -111 81 13
120 28 181 70 l45 31 0 -46 0 -45 140 0 140 0 0 480 0 480 -145 0 -145 0 0
-257 c0 -142 -5 -278 -11 -303 -14 -63 -52 -116 -99 -140 -110 -56 -226 -24
-271 74 -17 37 -19 70 -19 334 l0 292 -145 0 -145 0 0 -303z"/>
</g>
</svg>
