<?xml version="1.0" standalone="no"?>
<!DOCTYPE svg PUBLIC "-//W3C//DTD SVG 20010904//EN"
 "http://www.w3.org/TR/2001/REC-SVG-20010904/DTD/svg10.dtd">
<svg version="1.0" xmlns="http://www.w3.org/2000/svg"
 width="1267.000000pt" height="411.000000pt" viewBox="0 0 1267.000000 411.000000"
 preserveAspectRatio="xMidYMid meet">
<metadata>
Created by potrace 1.16, written by Peter Selinger 2001-2019
</metadata>
<g transform="translate(0.000000,411.000000) scale(0.100000,-0.100000)"
fill="gray" stroke="none">
<path d="M2467 4084 c-2 -2 -37 -8 -78 -14 -41 -6 -110 -20 -154 -31 -44 -11
-98 -24 -120 -29 -22 -4 -69 -15 -105 -25 -89 -22 -214 -51 -280 -65 -95 -20
-105 -24 -105 -45 0 -14 8 -21 25 -23 42 -6 107 -59 149 -123 l41 -61 0 -613
c0 -565 -1 -613 -17 -619 -9 -4 -258 -6 -552 -5 -435 1 -547 4 -596 16 -33 8
-70 17 -83 20 -33 8 -92 66 -92 91 0 11 -5 24 -10 27 -23 14 -146 -63 -242
-151 -24 -21 -68 -60 -98 -85 -30 -26 -72 -63 -92 -83 l-38 -37 0 -88 0 -88
92 -85 c104 -96 125 -113 221 -187 102 -79 167 -99 167 -52 0 23 59 78 93 86
15 4 31 14 36 23 7 12 12 6 22 -27 14 -47 31 -60 53 -42 13 11 12 17 0 46 -8
19 -14 36 -14 37 0 2 259 2 575 0 538 -2 575 -3 575 -20 0 -9 0 -326 0 -704 0
-517 -3 -694 -13 -720 -29 -79 -92 -141 -167 -163 -25 -8 -35 -16 -35 -30 0
-16 9 -21 45 -27 68 -10 230 -47 385 -87 214 -57 322 -77 485 -91 138 -12 365
4 490 35 14 3 45 11 70 16 25 6 61 14 80 19 35 9 179 43 255 60 22 5 79 18
127 30 47 11 96 20 108 20 16 0 21 5 18 21 -2 15 -18 27 -52 40 -60 22 -104
64 -142 132 l-29 52 -5 310 -5 310 -345 0 -345 0 -2 -185 c-4 -238 -13 -259
-113 -259 -47 0 -58 3 -74 25 -30 42 -35 136 -36 677 l0 517 148 0 c149 0 191
-8 245 -43 14 -9 29 -17 32 -17 17 0 86 -77 95 -106 9 -28 17 -34 39 -34 21 0
54 28 162 138 74 75 148 155 164 177 17 22 32 42 35 45 22 22 52 77 57 103 4
25 -3 46 -26 85 -30 52 -88 132 -130 182 -11 14 -24 30 -28 35 -22 29 -142
165 -174 198 -48 48 -94 52 -102 9 -10 -50 -91 -118 -180 -151 -48 -17 -80
-21 -192 -21 -134 0 -135 0 -141 24 -3 13 -4 228 -2 477 4 474 7 501 49 542
28 26 102 23 130 -5 35 -38 39 -62 39 -234 l0 -164 350 0 350 0 0 275 c0 226
3 283 16 322 15 43 67 123 87 131 4 2 13 9 20 15 24 23 57 37 83 37 21 0 25 4
22 22 -2 19 -12 25 -48 31 -25 4 -78 15 -117 24 -40 8 -75 15 -78 15 -2 -1
-19 4 -37 9 -39 12 -147 41 -238 64 -36 9 -81 20 -100 25 -37 9 -102 22 -208
40 -55 10 -386 13 -395 4z"/>
<path d="M10970 2565 c-33 -35 -107 -47 -293 -45 -89 1 -166 1 -170 1 -5 -1
-1 -11 7 -23 9 -12 16 -37 16 -55 0 -40 -34 -75 -165 -174 l-94 -70 51 -87
c131 -223 211 -343 253 -380 l45 -40 148 -4 c150 -4 174 -9 219 -51 21 -19 31
-20 180 -13 546 23 604 31 797 107 209 83 706 355 691 379 -7 11 -376 192
-495 243 -193 82 -330 126 -460 148 -128 22 -645 89 -684 89 -13 0 -33 -11
-46 -25z"/>
<path d="M3458 2524 c-3 -3 17 -28 46 -57 56 -57 226 -304 226 -327 0 -8 -20
-42 -45 -75 -24 -33 -54 -73 -65 -90 -86 -124 -172 -235 -194 -252 l-26 -21
28 -3 c15 -2 79 -2 142 1 l115 5 1 43 c0 24 5 47 11 50 5 4 38 49 72 100 34
50 65 92 69 92 4 0 29 -33 55 -73 27 -40 59 -87 73 -106 17 -24 24 -47 24 -79
0 -36 3 -43 16 -38 9 3 73 6 142 6 l127 0 -45 43 c-25 23 -67 74 -93 112 -26
39 -81 119 -122 178 -41 59 -75 110 -75 114 0 3 22 35 48 72 26 36 74 106 106
154 32 48 74 100 93 114 25 19 31 28 21 34 -16 11 -229 11 -243 1 -6 -4 -12
-22 -13 -41 -2 -31 -75 -154 -106 -180 -18 -15 -126 153 -126 196 l0 33 -128
0 c-71 0 -131 -2 -134 -6z"/>
<path d="M4492 2508 c-130 -40 -222 -112 -243 -192 -16 -58 -5 -148 25 -210
15 -30 51 -76 84 -107 109 -101 149 -126 347 -209 69 -29 352 -100 400 -100
12 0 15 13 15 64 l0 64 -67 7 c-38 4 -90 14 -118 22 -314 92 -495 240 -495
403 0 51 49 116 104 141 93 41 246 44 369 7 47 -14 57 -4 57 59 0 78 11 74
-214 72 -169 -1 -211 -4 -264 -21z"/>
<path d="M5883 2520 c-87 -13 -193 -49 -298 -103 -83 -42 -115 -66 -185 -137
-132 -132 -180 -248 -180 -431 0 -82 -3 -100 -21 -123 l-20 -26 126 0 c117 0
127 1 120 18 -24 57 -34 192 -17 220 7 9 56 12 213 10 l204 -3 -1 -103 c-1
-63 -5 -107 -12 -114 -7 -7 -12 -16 -12 -20 0 -4 54 -8 120 -8 118 0 120 0
110 20 -14 27 -15 753 0 780 5 10 10 21 10 24 0 8 -93 5 -157 -4z m-55 -292
l-3 -173 -192 -3 c-161 -2 -193 0 -193 12 0 24 76 128 137 188 59 58 202 148
235 148 17 0 18 -12 16 -172z"/>
<path d="M6236 2503 c4 -16 9 -186 11 -380 3 -291 1 -358 -11 -387 -8 -19 -12
-37 -8 -40 3 -3 171 -6 374 -6 l368 0 0 71 0 71 -32 -7 c-18 -4 -138 -10 -265
-12 l-233 -4 0 316 c0 294 1 318 20 354 10 21 16 41 13 45 -4 3 -60 6 -126 6
l-119 0 8 -27z"/>
<path d="M7117 2524 c-3 -4 0 -19 8 -35 21 -40 21 -694 1 -752 -11 -30 -11
-39 -2 -43 7 -3 61 -3 122 -2 91 3 108 5 105 18 -19 75 -22 141 -19 434 2 251
6 338 16 348 32 32 14 38 -106 38 -65 0 -121 -3 -125 -6z"/>
<path d="M7548 2525 c-3 -3 1 -27 8 -52 11 -35 14 -119 13 -352 0 -268 -4
-350 -20 -411 -3 -11 4 -15 26 -14 72 2 241 29 280 44 11 4 40 13 65 19 25 7
54 16 65 20 11 5 50 21 86 35 144 58 299 175 336 254 20 41 23 134 5 140 -7 2
-12 9 -12 16 0 17 -108 86 -135 86 -39 0 -35 12 14 37 41 20 50 29 55 58 9 47
-7 73 -62 98 -45 21 -63 22 -382 25 -185 2 -338 0 -342 -3z m571 -110 c6 -6 7
-16 1 -25 -7 -12 -42 -16 -185 -18 l-175 -3 0 25 c0 13 6 27 13 30 22 9 336 1
346 -9z m-8 -168 c20 -9 51 -28 68 -43 56 -47 40 -119 -47 -199 -56 -53 -295
-155 -360 -155 -9 0 -12 55 -12 211 l0 211 158 -4 c116 -4 166 -9 193 -21z"/>
<path d="M8590 2500 c0 -17 -11 -52 -24 -78 -34 -65 -41 -126 -21 -181 22 -64
74 -138 142 -202 93 -88 153 -131 298 -209 109 -58 293 -120 408 -136 l49 -7
-16 32 c-15 28 -16 75 -13 399 1 202 7 377 11 390 l8 22 -114 0 c-63 0 -117
-3 -120 -6 -4 -3 0 -21 8 -39 11 -27 14 -96 14 -320 l0 -286 -22 7 c-53 15
-188 86 -236 121 -137 104 -198 183 -222 288 -14 63 10 117 78 175 29 23 49
47 46 51 -3 5 -66 9 -140 9 l-134 0 0 -30z"/>
<path d="M9578 2525 c-4 -4 -1 -20 7 -36 22 -42 22 -716 0 -758 -8 -16 -13
-30 -10 -32 2 -2 58 -3 125 -1 l122 3 -16 24 c-12 18 -16 51 -16 134 l0 110
68 48 c37 26 73 53 81 61 18 18 31 5 82 -81 23 -40 62 -99 86 -132 52 -72 72
-127 53 -150 -11 -13 4 -15 136 -15 l148 0 -48 47 c-40 41 -190 269 -252 383
-10 19 -22 37 -26 38 -26 11 2 46 88 113 135 104 155 126 152 169 -3 30 -9 38
-43 55 -37 19 -64 20 -385 23 -190 2 -348 0 -352 -3z m507 -108 c17 -13 16
-16 -16 -50 -19 -21 -88 -77 -154 -125 l-120 -89 -5 56 c-7 70 -4 196 5 210
10 17 266 14 290 -2z"/>
</g>
</svg>
