<svg version="1.0" xmlns="http://www.w3.org/2000/svg"
 width="1280.000000pt" height="216.000000pt" viewBox="0 0 1280.000000 216.000000"
 preserveAspectRatio="xMidYMid meet">

    <g transform="translate(0.000000,216.000000) scale(0.100000,-0.100000)"
fill="red" stroke="none">
        
        <path d="M3010 2144 c-595 -108 -988 -601 -930 -1168 27 -263 120 -466 294
-642 208 -210 476 -318 821 -331 382 -14 702 102 940 341 175 177 270 380 297
632 40 382 -124 753 -426 969 -97 69 -260 142 -393 177 -109 28 -133 31 -318
34 -150 2 -221 -1 -285 -12z m368 -209 c277 -66 468 -341 502 -725 10 -116 -1
-298 -25 -413 -74 -360 -297 -579 -590 -581 -263 -1 -471 164 -574 456 -94
268 -80 645 34 903 123 277 387 423 653 360z"/>
        
        <path d="M0 2072 c0 -12 11 -24 31 -32 16 -7 42 -29 57 -48 l27 -35 3 -944 2
-943 250 0 250 0 2 488 3 489 320 -375 c346 -406 405 -463 548 -532 154 -73
302 -100 557 -99 217 1 275 8 275 33 0 14 -18 25 -81 46 -206 70 -299 145
-600 485 -167 188 -514 597 -514 605 0 5 205 203 456 442 l456 433 -257 3
-257 2 -451 -444 -452 -444 -5 393 c-5 378 -6 395 -26 421 -51 69 -49 69 -335
72 -250 3 -259 2 -259 -16z"/>
        
        <path d="M4665 2081 c-6 -11 4 -21 54 -54 19 -12 42 -38 52 -57 18 -33 19 -79
19 -967 l0 -933 170 0 170 0 0 731 0 731 78 -99 c42 -55 322 -385 621 -732
l544 -633 117 3 c110 4 119 6 153 32 72 54 67 -17 67 1037 l0 950 -165 0 -165
0 0 -641 0 -642 -37 49 c-79 106 -953 1118 -1006 1167 -68 61 -104 67 -403 67
-153 0 -265 -4 -269 -9z"/>
        
        <path d="M7650 2070 c0 -11 5 -20 10 -20 19 0 50 -64 50 -103 0 -29 -99 -249
-425 -948 -234 -500 -425 -914 -425 -919 0 -6 74 -10 189 -10 l189 0 103 230
104 229 455 1 455 0 100 -230 100 -229 284 -1 c222 0 282 3 278 13 -23 61
-884 1908 -898 1929 -11 14 -42 38 -71 52 -51 26 -55 26 -275 26 -216 0 -223
-1 -223 -20z m453 -975 l134 -300 -330 -3 c-182 -1 -332 0 -334 2 -2 2 70 169
161 370 91 201 166 372 166 378 0 7 16 -23 35 -67 19 -44 95 -215 168 -380z"/>
        
        <path d="M9440 2076 c0 -7 16 -26 36 -41 55 -42 68 -82 54 -169 -6 -39 -74
-454 -150 -922 -77 -468 -140 -856 -140 -862 0 -9 44 -12 160 -12 88 0 160 2
160 5 0 3 47 311 105 685 58 373 105 690 105 704 0 28 16 36 22 11 2 -8 136
-327 298 -710 l295 -694 85 -1 86 0 259 612 c143 337 280 664 306 726 l46 113
6 -48 c4 -26 55 -353 114 -725 l108 -678 253 0 c211 0 252 2 252 14 0 8 -68
428 -150 933 -165 1005 -158 979 -238 1037 l-44 31 -181 3 -182 3 -253 -590
c-139 -324 -258 -604 -265 -620 -6 -17 -14 -31 -17 -31 -3 1 -113 255 -245
566 -147 347 -251 579 -269 601 -56 68 -79 73 -363 73 -209 0 -253 -2 -253
-14z"/>
        
        <path d="M12160 2073 c0 -10 16 -27 37 -38 49 -27 74 -64 84 -122 4 -26 8
-452 8 -945 l1 -898 255 0 255 0 0 954 0 953 -23 34 c-12 18 -38 44 -56 56
-33 22 -40 23 -297 23 -245 0 -264 -1 -264 -17z"/>
    </g>
</svg>
