<?xml version="1.0" standalone="no"?>
<!DOCTYPE svg PUBLIC "-//W3C//DTD SVG 20010904//EN"
 "http://www.w3.org/TR/2001/REC-SVG-20010904/DTD/svg10.dtd">
<svg version="1.0" xmlns="http://www.w3.org/2000/svg"
 width="900.000000pt" height="900.000000pt" viewBox="0 0 900.000000 900.000000"
 preserveAspectRatio="xMidYMid meet">
<metadata>
Created by potrace 1.16, written by Peter Selinger 2001-2019
</metadata>
<g transform="translate(0.000000,900.000000) scale(0.100000,-0.100000)"
fill="#000000" stroke="none">

        <path fill="red" d="M5429 7383 l-56 -4 -16 -107 c-9 -59 -19 -118 -21 -131 -12 -59 -16
-116 -6 -101 10 15 89 249 95 283 2 9 10 24 18 32 13 12 16 12 21 -7 3 -12 3
-24 1 -27 -3 -2 -5 1 -5 7 0 7 -4 12 -10 12 -5 0 -10 -8 -10 -18 0 -10 -14
-58 -30 -108 -17 -49 -29 -98 -28 -109 2 -12 11 5 22 40 17 56 25 83 40 129 4
10 9 17 11 14 3 -3 -8 -56 -24 -119 -16 -63 -28 -116 -25 -118 2 -2 10 2 18 8
9 7 41 20 72 30 64 19 80 37 37 44 l-28 4 27 2 27 1 -20 67 c-10 38 -19 94
-19 125 0 49 -3 58 -17 56 -10 -1 -43 -3 -74 -5z"/>

        <path d="M4601 7137 c-47 -19 -74 -44 -210 -191 -86 -94 -173 -188 -195 -210
l-38 -41 30 40 c17 22 59 74 92 115 52 65 120 164 92 135 -20 -21 -165 -199
-366 -450 -228 -283 -273 -335 -294 -335 -12 0 -11 5 3 28 10 15 -15 -7 -54
-48 -91 -95 -77 -65 39 84 49 64 88 116 85 116 -16 0 -281 -348 -394 -518 -30
-45 -56 -80 -57 -79 -2 2 3 25 11 52 8 26 13 50 11 52 -4 5 -79 -133 -159
-292 -49 -99 -107 -188 -93 -143 24 78 166 405 232 536 46 90 75 157 67 150
-15 -12 -15 -11 -4 10 7 12 17 20 23 16 7 -4 8 -3 4 4 -6 11 42 95 251 432 49
80 100 163 113 185 l23 40 -37 -35 c-90 -84 -329 -424 -761 -1083 -137 -207
-250 -375 -252 -373 -2 2 11 35 30 72 19 38 69 146 112 239 43 94 97 210 122
259 24 48 43 90 41 92 -12 12 -253 -399 -438 -746 -52 -96 -100 -180 -108
-186 -9 -7 -12 -16 -7 -24 5 -8 4 -11 -2 -7 -6 4 -22 -16 -37 -43 -44 -80 -40
-58 5 33 23 45 37 78 32 72 -9 -9 -186 -311 -212 -363 -7 -12 -16 -20 -21 -17
-5 3 -32 -35 -61 -85 -53 -90 -78 -117 -39 -41 11 23 18 41 16 41 -3 0 -33
-54 -67 -120 -34 -66 -64 -118 -66 -116 -6 6 154 350 278 599 33 64 57 117 54
117 -9 0 -351 -582 -408 -696 -29 -56 -75 -116 -85 -110 -4 2 -20 -21 -35 -53
-30 -63 -73 -115 -88 -106 -24 15 5 308 46 465 13 52 22 96 20 98 -7 7 -96
-287 -141 -462 -45 -179 -77 -280 -94 -301 -6 -7 -19 -30 -29 -50 l-18 -38
-16 59 -16 59 4 -55 4 -55 -15 65 c-41 182 -129 538 -132 531 -1 -4 13 -129
33 -277 40 -309 51 -478 31 -496 -12 -11 -9 -60 9 -148 11 -54 -14 7 -35 88
-12 46 -24 81 -26 79 -4 -3 12 -133 32 -257 5 -33 -3 -27 -148 115 -84 83
-180 175 -212 205 l-60 55 59 -70 c33 -38 87 -101 120 -140 100 -114 87 -107
-63 33 -78 72 -144 132 -147 132 -6 0 190 -222 436 -495 70 -77 194 -211 277
-297 83 -87 159 -172 168 -190 15 -29 9 -25 -57 31 -41 35 -103 91 -139 125
-36 33 -76 70 -90 80 -14 11 33 -37 103 -105 114 -111 184 -199 158 -199 -6 0
-13 5 -16 10 -3 6 -16 10 -27 10 -20 0 -21 -1 -3 -20 25 -28 11 -25 -38 8 -23
16 -55 35 -72 43 -45 22 -430 240 -595 337 -80 47 -156 92 -170 100 -41 23 33
-40 119 -102 104 -75 227 -151 494 -306 125 -73 226 -134 224 -137 -6 -6 -194
24 -320 51 -61 13 -125 27 -142 30 -16 3 20 -12 80 -33 l110 -39 -95 4 c-354
15 -363 13 -110 -21 159 -22 295 -56 428 -108 94 -36 103 -42 87 -54 -13 -9
-53 -13 -124 -14 -58 -1 -146 -4 -196 -8 l-90 -6 175 -10 175 -10 -100 -5
c-98 -5 -98 -11 0 -23 18 -3 10 -5 -20 -6 -27 0 -171 -8 -320 -16 -148 -8
-303 -15 -343 -16 -127 -3 -82 -22 123 -52 l90 -14 -185 4 -185 4 65 -26 c36
-14 115 -36 176 -49 330 -71 604 -209 604 -304 0 -36 -102 -78 -274 -112 -109
-22 -146 -40 -105 -51 13 -4 71 -8 129 -9 l105 -2 -55 -13 c-53 -12 -49 -13
102 -14 195 -1 617 -26 803 -47 363 -40 750 -138 963 -241 40 -20 71 -37 70
-38 -2 -2 -95 24 -208 56 -204 59 -296 75 -145 26 44 -15 69 -25 55 -22 -14 2
-92 13 -173 25 -153 22 -228 23 -97 1 227 -37 607 -154 866 -266 127 -55 330
-157 359 -180 l20 -16 -20 9 c-47 23 -316 114 -321 109 -6 -6 59 -47 74 -47 6
0 14 -4 17 -10 4 -6 -1 -7 -12 -3 -49 17 3 -9 91 -46 129 -55 311 -146 461
-232 105 -59 341 -156 352 -145 6 6 -66 47 -152 87 -104 50 -55 46 88 -5 267
-97 589 -244 812 -371 118 -67 360 -222 443 -285 23 -17 42 -29 42 -27 0 13
-388 304 -609 457 -193 133 -364 241 -549 348 -73 42 -129 78 -124 80 4 1 34
-7 65 -17 31 -11 57 -16 57 -11 0 6 -31 26 -70 45 -38 19 -70 38 -70 41 0 3 5
2 10 -1 6 -3 10 -2 10 3 0 5 -21 18 -46 29 l-46 20 37 7 c20 4 62 5 93 1 32
-3 77 -8 102 -10 43 -5 40 -3 -55 43 -102 50 -146 85 -129 102 26 25 411 160
589 205 83 22 87 24 45 25 -78 1 -23 17 110 30 247 24 761 20 1018 -8 108 -12
71 7 -44 23 -565 77 -565 77 -454 85 81 6 78 11 -15 31 l-60 13 50 8 c58 10
457 2 622 -12 61 -6 207 -21 325 -35 296 -34 282 -33 582 -60 149 -13 271 -23
273 -21 9 9 -246 70 -497 121 -310 62 -415 91 -465 129 -54 42 -47 61 38 102
101 48 430 155 648 209 222 55 220 55 194 65 l-20 9 20 1 c14 1 10 5 -15 15
-31 13 1 14 260 10 162 -2 284 -2 270 1 -14 3 -133 21 -265 40 -132 19 -265
39 -295 45 -66 12 -140 38 -140 49 0 14 106 60 138 60 36 0 50 14 24 26 -12 6
-1 10 38 14 l55 7 -59 1 c-33 1 -57 4 -55 6 4 5 188 23 508 51 96 9 177 18
180 21 14 16 -935 -12 -1297 -37 -171 -12 -216 -8 -110 10 51 8 21 9 -152 6
-118 -2 -233 -1 -255 3 -38 8 -33 9 75 30 212 41 446 74 660 95 19 2 7 5 -27
5 -34 1 -95 -2 -135 -8 -106 -14 -391 -41 -395 -36 -2 2 51 16 118 32 67 15
117 30 111 32 -5 1 -77 -13 -158 -33 -96 -23 -192 -39 -269 -45 -66 -5 -121
-7 -123 -6 -9 9 494 174 823 270 105 30 208 62 230 71 l40 15 -35 -6 c-71 -12
-451 -97 -645 -144 -110 -27 -218 -51 -240 -55 -22 -4 -89 -22 -148 -42 -230
-75 -88 -9 263 122 120 45 94 40 -91 -18 -281 -88 -383 -108 -464 -90 l-40 9
65 38 c36 22 138 77 228 123 89 47 162 86 162 88 0 4 -97 -35 -194 -79 -91
-41 -80 -30 24 24 148 76 92 58 -79 -25 -84 -41 -158 -75 -164 -75 -7 1 14 14
46 31 61 32 78 48 25 25 -18 -8 -75 -33 -127 -55 -51 -23 -95 -40 -96 -39 -9
11 496 443 816 697 135 108 261 209 280 224 76 64 -28 -7 -171 -116 -174 -133
-332 -260 -620 -501 -118 -99 -224 -186 -235 -194 -11 -9 52 56 140 144 88 87
158 163 157 167 -1 5 2 6 7 3 5 -3 26 11 48 32 22 20 30 30 19 21 -38 -29 -52
-31 -16 -3 19 16 35 27 35 24 2 -8 59 43 165 143 104 100 98 98 -25 -9 -76
-66 -74 -62 50 70 144 154 410 411 795 766 300 277 349 324 333 316 -7 -4 -93
-65 -193 -136 -100 -72 -186 -127 -192 -124 -6 4 -8 3 -5 -3 4 -6 -15 -25 -41
-44 l-47 -34 23 30 c13 17 29 30 35 30 7 0 12 5 12 11 0 11 98 98 170 151 17
12 27 23 24 23 -11 0 -293 -225 -529 -424 -52 -44 -103 -86 -112 -94 -10 -9
-18 -13 -18 -10 0 3 48 48 106 99 58 52 127 114 152 137 l47 44 -45 -34 c-178
-133 -280 -228 -466 -433 -110 -121 -214 -235 -232 -255 l-32 -35 -19 22 c-27
32 -45 175 -38 297 4 55 3 95 -2 90 -5 -5 -16 -63 -25 -129 -24 -171 -28 -188
-51 -191 -11 -2 -22 2 -26 8 -4 6 -10 -23 -13 -63 -4 -41 -12 -117 -18 -169
l-11 -95 -101 -110 c-56 -61 -137 -151 -182 -200 -44 -50 -132 -147 -195 -216
-63 -70 -215 -239 -339 -376 -124 -138 -228 -248 -232 -244 -3 3 -8 20 -11 36
-2 19 -5 10 -6 -23 0 -33 -5 -51 -11 -47 -6 4 -8 11 -5 16 4 5 1 9 -4 9 -6 0
-11 -13 -11 -28 0 -17 -10 -38 -25 -52 -14 -13 -25 -29 -25 -36 0 -7 -9 -18
-20 -24 -17 -9 -20 -8 -20 7 0 10 -9 45 -19 78 l-19 60 -1 -62 c-1 -34 -5 -65
-11 -68 -5 -3 -10 -1 -10 6 0 26 -17 -8 -35 -69 -10 -35 -22 -65 -27 -68 -4
-3 -8 -15 -8 -26 0 -19 -100 -134 -279 -320 -111 -116 -225 -160 -396 -154
-111 4 -184 25 -270 77 -47 28 -160 126 -406 351 -46 42 -136 122 -199 179
-125 111 -172 155 -359 329 -68 63 -142 131 -164 150 -66 57 -224 197 -348
310 -125 112 -316 282 -329 290 -4 3 -10 28 -13 55 -4 28 -17 92 -29 144 -18
80 -23 91 -30 70 -5 -13 -6 -64 -3 -114 l7 -89 -83 74 c-219 197 -279 286
-287 429 -5 87 14 169 52 230 30 47 136 165 151 169 8 2 19 -23 29 -66 10 -38
28 -98 42 -133 24 -63 25 -63 19 -19 -14 99 -25 218 -25 264 0 39 3 47 15 42
10 -3 15 1 15 12 1 9 21 39 45 66 l45 50 -7 -51 c-10 -86 7 -99 24 -18 8 38
20 83 28 101 7 17 202 241 434 497 232 257 421 471 421 477 0 5 4 10 9 10 5 0
16 -24 25 -52 8 -29 22 -62 30 -73 13 -18 14 -15 20 35 4 30 8 83 10 117 3 53
9 67 37 102 19 22 37 41 41 41 3 0 9 -22 13 -48 11 -82 22 -77 28 13 l6 86
114 127 c443 494 909 1007 916 1010 4 1 11 -30 14 -70 12 -130 18 -132 44 -17
12 57 26 124 29 149 4 33 17 57 48 93 l41 48 -3 -83 c-2 -60 0 -79 7 -68 6 8
11 22 11 31 0 9 11 56 25 104 l26 87 136 152 c75 83 152 168 172 189 40 42 31
45 -48 14z"/>

        <path fill="red" d="M5533 6165 c0 -8 3 -12 7 -10 4 2 22 -9 40 -25 21 -19 26 -28 15 -26
-10 1 -23 10 -30 20 -12 16 -14 16 -20 -4 -4 -12 -2 -27 3 -32 6 -6 8 -18 5
-27 -4 -12 -3 -13 5 -2 6 8 12 9 16 3 8 -13 -14 -30 -34 -27 -10 2 -17 -5 -17
-17 -2 -20 -1 -20 12 -2 12 17 13 15 10 -16 -2 -19 -5 -36 -6 -37 -6 -9 -4
-30 4 -40 5 -7 4 -19 -2 -30 -8 -14 -11 -15 -11 -3 0 9 -6 6 -16 -10 l-15 -25
5 25 c3 14 6 29 6 33 0 5 3 6 8 4 4 -3 7 13 8 36 0 22 -2 35 -4 29 -2 -7 -7
-10 -12 -7 -5 3 -19 -9 -31 -27 -13 -17 -18 -28 -11 -24 15 9 16 -6 1 -21 -8
-8 -8 -17 0 -31 15 -29 13 -41 -3 -19 -12 15 -15 15 -19 3 -3 -8 3 -25 14 -38
11 -13 18 -18 15 -13 -2 6 -1 17 5 25 6 11 9 6 9 -17 0 -17 -3 -39 -7 -48 -5
-15 -8 -14 -19 6 -10 19 -13 20 -14 7 0 -10 19 -31 43 -47 23 -16 49 -37 57
-46 67 -72 108 -105 131 -105 20 0 35 -13 67 -57 45 -64 92 -113 92 -95 0 7 5
12 11 12 5 0 7 -5 3 -11 -6 -11 43 -69 59 -69 5 0 18 -11 29 -25 11 -14 24
-25 29 -25 5 0 25 -17 44 -37 30 -33 34 -43 29 -74 -5 -31 -1 -40 22 -58 21
-17 29 -19 36 -9 6 9 8 8 6 -6 -2 -10 7 -25 20 -33 25 -17 22 -24 26 70 1 26
-2 47 -7 47 -5 0 -4 6 2 13 6 8 9 16 6 19 -3 2 0 19 5 37 5 18 10 59 11 92 1
33 7 63 12 66 6 4 8 -15 4 -53 -4 -32 -9 -102 -13 -154 -3 -52 -7 -110 -8
-128 -2 -26 4 -39 27 -58 27 -23 31 -23 47 -9 9 8 22 40 29 71 10 44 15 53 26
44 32 -26 82 105 70 185 -17 117 -25 133 -88 190 -67 61 -77 59 -77 -11 0 -27
-6 -46 -17 -55 -14 -12 -15 -12 -9 0 5 7 10 30 12 50 3 20 7 49 9 65 4 22 2
27 -10 22 -10 -3 -18 1 -22 12 -8 24 -155 172 -170 172 -7 0 -12 6 -11 12 2 7
-7 14 -19 16 -13 2 -23 10 -23 17 0 8 -18 25 -40 37 -21 13 -44 33 -49 45 -6
13 -17 23 -26 23 -8 0 -15 4 -15 10 0 5 -24 26 -53 45 -30 20 -75 60 -101 90
-26 30 -54 55 -62 55 -8 0 -14 4 -14 9 0 5 -10 16 -23 24 -19 12 -24 13 -24 2z
m47 -79 c6 -15 9 -17 9 -4 1 9 8 15 16 14 20 -3 55 -36 52 -50 -1 -6 3 -10 10
-9 12 3 11 -16 -3 -51 -6 -15 -4 -17 6 -11 8 5 11 4 6 -3 -3 -6 -2 -13 4 -17
6 -4 7 -12 3 -18 -4 -7 -8 -15 -8 -19 0 -3 -3 -9 -7 -13 -8 -9 -5 16 5 31 4 7
-1 18 -10 25 -15 12 -16 12 -10 -3 3 -10 2 -20 -3 -23 -9 -6 -8 -24 2 -41 4
-6 1 -11 -7 -11 -7 0 -12 8 -10 18 2 10 0 21 -6 24 -5 4 -10 1 -10 -4 -1 -6
-2 -17 -3 -23 -3 -17 14 -39 24 -33 7 4 6 -24 0 -32 -2 -2 -4 -7 -5 -13 -1 -5
-4 -13 -5 -17 -1 -5 -2 -12 -1 -16 1 -5 -3 -6 -9 -2 -8 5 -7 11 1 21 6 8 8 14
4 14 -4 0 -2 6 4 13 8 11 6 18 -9 32 -11 10 -20 13 -20 7 0 -6 5 -14 10 -17 8
-5 7 -11 -1 -21 -6 -8 -8 -14 -4 -14 4 0 3 -6 -4 -13 -8 -10 -7 -17 2 -27 10
-12 9 -12 -6 -1 -10 8 -14 18 -9 25 10 13 9 82 -1 92 -7 7 -8 5 -10 -53 -1
-17 -5 -35 -9 -39 -4 -4 -4 -12 1 -18 5 -6 13 -31 19 -56 5 -25 13 -54 17 -65
7 -20 6 -20 -9 -1 -9 11 -16 31 -16 46 0 14 -7 36 -16 48 -8 12 -12 22 -9 22
3 0 3 5 -1 11 -4 8 -9 7 -15 -2 -5 -8 -2 -20 7 -30 12 -14 12 -16 -1 -16 -8 0
-12 4 -10 8 3 3 -3 13 -12 20 -14 12 -15 11 -10 -11 4 -14 4 -19 1 -11 -5 11
-8 11 -16 0 -7 -10 -8 -8 -3 6 11 30 7 73 -11 107 -12 22 -13 33 -4 43 7 8 9
18 6 23 -3 5 1 18 9 28 14 18 14 18 15 -2 0 -12 -5 -35 -11 -52 -7 -20 -7 -37
-1 -48 9 -15 10 -15 17 6 l7 23 15 -24 c8 -13 12 -16 9 -6 -3 10 -1 27 4 38 6
11 7 25 3 32 -11 18 -12 36 -3 42 5 3 6 13 3 21 -3 9 4 28 15 44 21 28 21 28
1 45 -10 10 -19 24 -19 32 0 19 19 6 30 -21z"/>

        <path fill="red" d="M5249 5755 c-1 -3 -2 -18 -3 -35 0 -16 -5 -29 -11 -27 -5 1 -9 10 -9
19 1 10 -2 15 -6 13 -9 -6 -8 -25 3 -42 4 -6 3 -14 -2 -17 -9 -6 -27 31 -23
47 1 5 -2 6 -8 2 -6 -4 -5 -16 5 -35 13 -25 13 -29 -2 -41 -14 -12 -15 -11
-10 11 4 14 4 19 1 12 -3 -6 -10 -9 -15 -6 -6 3 -5 12 3 22 12 15 11 16 -4 3
-16 -12 -19 -10 -27 10 -7 17 -10 19 -10 7 -1 -9 4 -20 9 -23 6 -4 7 -11 4
-17 -4 -7 -2 -8 4 -4 6 3 16 -2 22 -13 6 -12 6 -22 1 -26 -5 -3 -12 3 -14 12
-4 17 -5 17 -6 0 -1 -11 -6 -15 -13 -11 -7 4 -8 3 -4 -4 4 -7 2 -12 -3 -12 -6
0 -11 9 -11 21 0 11 4 18 9 15 5 -4 7 4 3 16 -12 46 -24 -26 -27 -162 -2 -74
-1 -123 1 -107 10 51 62 31 118 -45 51 -68 138 -132 155 -115 8 8 14 8 23 -1
10 -10 10 -15 -1 -21 -11 -7 -8 -16 14 -45 15 -20 30 -35 32 -32 2 2 14 -5 26
-15 12 -10 32 -27 44 -36 17 -14 25 -36 33 -88 9 -63 14 -74 51 -107 49 -44
90 -56 123 -34 21 13 26 13 36 1 7 -8 37 -29 66 -46 30 -17 54 -36 54 -44 0
-7 16 -22 35 -33 l34 -21 20 25 c10 13 18 32 16 42 -1 9 0 11 2 4 3 -9 18 -1
44 23 21 19 44 35 50 35 7 0 9 12 7 30 -3 17 -1 33 4 36 4 3 8 -11 8 -30 0
-26 4 -36 15 -36 21 0 25 15 29 106 3 76 -5 114 -23 114 -5 0 -33 16 -63 35
l-53 35 -6 -60 c-3 -33 -9 -64 -14 -68 -4 -4 -6 7 -3 25 2 18 1 30 -4 27 -4
-3 -8 2 -8 10 0 9 4 16 10 16 8 0 8 38 1 92 -1 4 -27 25 -58 45 -32 21 -65 47
-73 58 -8 11 -35 39 -59 62 -35 31 -49 39 -59 31 -16 -13 -23 -6 -37 35 -7 22
-17 33 -32 35 -13 2 -23 8 -23 13 0 5 -11 9 -25 9 -18 0 -28 7 -35 26 -8 21
-15 25 -34 20 -28 -7 -48 13 -48 49 0 18 -6 25 -20 25 -15 0 -18 -4 -13 -17 7
-15 35 -108 50 -163 14 -49 58 -166 66 -174 5 -6 9 -1 10 15 0 13 3 18 6 11 2
-6 9 -10 13 -7 5 3 12 0 16 -7 4 -7 4 -10 -1 -6 -12 11 -35 -11 -35 -33 0 -9
8 -25 17 -34 14 -15 30 -75 19 -75 -2 0 -16 30 -32 68 -16 37 -32 70 -37 73
-5 3 -8 9 -8 13 3 20 -1 26 -15 26 -12 0 -15 7 -12 25 3 14 1 28 -3 31 -5 3
-9 16 -9 28 0 15 -7 26 -20 29 -11 3 -20 10 -20 17 0 6 5 8 10 5 6 -3 10 3 10
14 0 25 -20 71 -32 71 -5 0 -2 -13 7 -30 18 -34 18 -40 4 -40 -5 0 -8 4 -4 9
3 5 1 12 -4 15 -5 3 -14 20 -20 36 -5 17 -6 28 -1 25 14 -9 23 36 10 49 -10 8
-11 5 -6 -14 l7 -25 -15 25 c-10 18 -11 30 -4 44 8 14 7 17 -3 11 -9 -6 -11
-3 -6 8 4 10 2 17 -4 17 -6 0 -9 6 -6 14 7 18 -6 34 -72 90 -51 43 -91 64 -57
31 8 -8 19 -15 25 -15 16 0 38 -38 36 -62 -2 -22 -19 -28 -21 -8 -1 6 -3 12
-4 15 -4 7 -7 23 -9 38 -1 9 -4 8 -10 -2 -7 -11 -10 -9 -16 8 -4 13 -9 20 -12
18 -2 -3 0 -14 5 -24 5 -10 6 -27 1 -38 -7 -17 -8 -18 -10 -2 -3 26 -4 31 -10
42 -4 6 -5 18 -4 28 3 15 -3 26 -6 12z m60 -62 c-1 -5 0 -11 1 -15 1 -5 3 -11
5 -15 1 -5 5 -16 10 -26 7 -17 8 -17 20 0 7 9 12 22 11 28 -2 5 -1 7 1 2 3 -4
8 -5 13 -2 4 3 14 -3 21 -12 8 -9 9 -14 3 -10 -7 4 -14 0 -18 -8 -3 -8 -1 -17
4 -20 4 -3 11 1 13 7 4 8 6 9 6 2 1 -6 -6 -17 -15 -24 -8 -8 -14 -9 -12 -4 2
5 -1 11 -7 13 -6 2 -9 -10 -7 -27 2 -17 -1 -32 -5 -35 -5 -3 -10 9 -11 26 -2
17 -7 36 -11 40 -11 11 -8 -64 4 -83 7 -13 6 -13 -7 -2 -9 7 -15 22 -13 32 2
10 -3 24 -10 30 -11 9 -13 6 -11 -18 1 -17 9 -38 16 -49 13 -16 13 -17 -1 -6
-9 7 -19 10 -22 7 -4 -4 -5 3 -2 14 2 12 0 24 -5 27 -5 3 -6 13 -3 22 4 11 2
14 -5 9 -13 -8 -11 -63 3 -86 8 -13 6 -13 -8 -1 -9 7 -15 17 -12 21 3 4 -3 14
-12 21 -15 12 -16 12 -9 -6 4 -11 4 -16 0 -12 -11 11 -34 -26 -23 -39 6 -7 1
-18 -14 -30 -22 -19 -22 -19 -4 2 9 11 14 24 10 28 -5 4 -9 12 -9 17 -3 22 -5
23 -14 9 -5 -9 -5 -19 1 -26 7 -8 6 -14 -1 -19 -6 -4 -9 -3 -8 2 2 4 -1 8 -7
8 -5 0 -9 -4 -7 -8 1 -5 -3 -5 -9 -1 -7 4 -10 2 -7 -7 3 -8 11 -13 17 -11 7 1
9 -3 6 -9 -5 -8 -12 -6 -22 4 -9 9 -12 20 -7 28 4 7 9 25 10 39 3 24 2 24 -11
6 -8 -10 -12 -22 -10 -27 3 -4 2 -10 -3 -13 -6 -3 -9 61 -3 83 1 2 10 -4 20
-13 13 -12 21 -14 26 -6 3 5 11 8 16 5 5 -4 9 -2 9 4 0 5 -5 13 -10 16 -6 4
-8 10 -6 14 3 4 -2 8 -10 8 -10 0 -11 -4 -4 -11 5 -5 10 -14 10 -18 0 -13 -27
-9 -39 6 -9 11 -8 15 6 20 10 4 19 6 20 4 1 -2 25 19 53 47 33 33 50 44 50 33
0 -28 20 -31 30 -4 9 24 22 36 19 19z"/>

        <path d="M4297 5432 c-21 -23 -22 -38 -2 -46 20 -7 19 -26 -1 -26 -10 0 -14
-5 -10 -16 3 -9 2 -12 -5 -9 -6 4 -8 13 -5 21 3 8 0 14 -7 14 -30 0 -45 -28
-57 -100 -24 -157 -24 -158 1 -180 35 -28 39 -25 40 28 1 26 5 61 9 77 6 23 3
-104 -4 -136 0 -4 20 -26 47 -49 46 -41 47 -41 47 -16 0 13 4 27 8 30 4 2 6
-10 4 -29 -2 -18 1 -36 7 -39 17 -11 31 29 35 106 3 40 7 80 11 89 3 9 5 20 4
25 -2 5 0 32 4 59 19 136 19 139 -24 181 -34 33 -42 37 -59 27 -12 -8 -20 -9
-22 -2 -2 6 -11 2 -21 -9z"/>

        <path d="M4448 5335 c-4 -22 -7 -58 -8 -80 0 -22 -2 -49 -4 -60 -2 -11 -7 -54
-10 -95 -4 -41 -9 -85 -11 -97 -4 -17 -1 -20 15 -16 10 3 26 16 35 29 12 19
13 27 3 43 -10 17 -9 24 11 45 13 14 28 23 32 20 10 -6 10 60 0 96 -4 15 -2
35 6 50 15 29 18 84 3 60 -7 -12 -12 -11 -31 5 -20 18 -22 18 -16 3 4 -10 2
-18 -3 -18 -5 0 -10 12 -12 28 -3 23 -5 22 -10 -13z"/>

        <path fill="red" d="M4746 5165 c-6 -27 -4 -85 6 -180 14 -120 14 -141 2 -148 -10 -6 -11
-13 -4 -26 6 -12 5 -29 -3 -51 -9 -26 -9 -34 1 -37 17 -6 15 -60 -3 -67 -35
-13 -12 -314 40 -522 28 -110 34 -150 31 -212 -2 -43 -2 -65 1 -49 2 15 9 27
15 27 17 0 137 -100 143 -120 3 -10 17 -26 31 -34 24 -17 25 -16 139 101 70
72 115 126 115 138 0 12 -22 43 -50 70 -27 27 -50 44 -50 37 0 -7 -4 -12 -9
-12 -6 0 -10 8 -9 18 0 9 -9 40 -21 67 l-21 50 5 -80 c11 -181 13 -299 7 -280
-4 11 -13 31 -19 45 -10 23 -25 89 -54 243 -6 31 -14 55 -19 52 -4 -3 -6 14
-4 37 2 24 1 35 -2 26 -3 -10 -7 -18 -9 -18 -2 0 -28 26 -57 57 -29 31 -86 91
-125 132 -75 78 -95 121 -77 161 8 17 22 8 121 -80 61 -55 114 -107 116 -117
2 -10 2 2 0 27 -3 25 -12 63 -20 85 -9 22 -17 56 -18 76 -1 20 -5 41 -9 47 -3
5 0 25 8 43 15 37 20 110 16 259 -2 75 -4 86 -9 53 -4 -24 -11 -46 -14 -50 -4
-4 -46 31 -92 77 -83 83 -84 84 -87 139 l-3 56 -9 -40z"/>

        <path fill="red" d="M3937 5115 l5 -80 -56 -55 c-78 -76 -76 -86 28 -182 74 -68 85 -83
94 -125 l10 -48 1 50 c0 30 -7 67 -19 92 -14 31 -17 50 -10 72 5 20 1 62 -16
137 -13 60 -24 125 -24 144 -1 19 -5 44 -10 55 -5 12 -6 -12 -3 -60z"/>

        <path d="M6283 4909 c-70 -77 -128 -147 -128 -154 0 -7 46 -54 103 -105 l103
-93 24 24 c12 13 71 78 129 143 130 146 131 151 46 232 -70 67 -108 94 -132
94 -10 0 -75 -63 -145 -141z m200 -5 c26 -25 47 -48 47 -51 0 -9 -152 -173
-161 -173 -4 0 -31 22 -60 48 l-53 49 79 86 c44 48 84 87 90 87 5 0 31 -21 58
-46z"/>

        <path fill="red" d="M4238 4893 c-2 -38 0 -76 4 -85 5 -10 4 -26 -1 -37 -8 -14 -4 -24 19
-46 20 -19 26 -32 20 -39 -21 -27 -24 -273 -2 -252 3 4 23 -10 44 -31 l38 -37
1 29 c0 31 5 141 14 336 4 95 3 118 -9 128 -17 14 -18 8 -34 -134 -7 -57 -9
-67 -10 -35 -1 25 3 78 7 119 l9 74 -41 38 c-23 21 -45 39 -49 39 -3 0 -8 -30
-10 -67z"/>

        <path d="M5111 4803 c0 -34 6 -83 15 -108 10 -31 12 -50 6 -58 -11 -12 -20
-110 -28 -282 -4 -67 -2 -95 5 -86 12 18 10 19 137 -96 51 -46 100 -83 111
-83 25 0 154 141 154 167 0 10 -4 36 -10 58 -5 22 -20 91 -34 153 -13 62 -27
115 -30 119 -13 13 -56 -8 -60 -30 l-4 -22 -2 23 c0 13 -5 21 -10 17 -5 -3
-13 0 -17 6 -4 8 -11 4 -20 -12 -13 -23 -13 -23 -8 8 5 27 2 34 -22 50 -16 10
-37 28 -47 40 -10 13 -34 30 -52 39 -38 18 -64 59 -75 119 -7 37 -8 36 -9 -22z"/>

        <path fill="red" d="M4401 4809 c1 -13 -2 -32 -6 -41 -5 -12 -3 -18 6 -18 10 0 10 -3 3
-8 -7 -4 -15 -80 -21 -197 l-9 -190 55 -57 c31 -32 61 -58 68 -58 7 0 13 -4
13 -10 0 -19 63 -70 87 -70 21 0 30 -13 63 -82 21 -46 39 -81 39 -78 1 3 -16
57 -37 120 -22 63 -45 140 -51 170 -7 30 -24 88 -38 129 -22 66 -24 87 -21
190 2 64 1 130 -3 146 -4 19 -7 23 -8 10 -3 -50 -17 -48 -80 10 -54 50 -61 54
-60 34z"/>

        <path d="M3659 4708 c-115 -125 -116 -132 -29 -219 112 -111 158 -194 139
-247 -11 -28 14 -41 42 -24 28 18 31 16 69 -43 19 -30 40 -55 47 -55 7 0 21
-20 32 -44 25 -58 79 -116 212 -227 99 -83 127 -114 115 -126 -3 -3 -26 15
-53 40 -26 24 -74 59 -105 77 -32 17 -58 37 -58 44 0 14 -109 112 -158 142
-19 11 -33 25 -31 30 1 5 -16 22 -39 37 l-41 28 20 33 c16 28 17 35 5 45 -11
9 -18 7 -33 -12 l-19 -24 -124 83 c-69 47 -126 88 -128 93 -1 4 4 14 13 21 14
11 13 14 -2 25 -10 8 -31 11 -50 8 -21 -4 -33 -2 -33 6 0 6 -11 28 -24 49 -14
20 -28 49 -31 65 -8 29 -32 36 -53 15 -17 -17 -15 -43 8 -89 l21 -39 -28 -35
c-15 -19 -36 -38 -46 -41 -17 -5 -18 -16 -12 -117 3 -62 8 -129 11 -149 4 -24
2 -38 -5 -38 -6 0 -12 17 -13 38 -1 20 -3 51 -4 67 -1 17 -3 65 -4 108 -1 42
-3 77 -6 77 -3 0 -15 -6 -27 -14 -12 -8 -52 -20 -88 -26 -64 -11 -67 -13 -84
-51 -15 -33 -16 -45 -7 -78 13 -41 86 -131 107 -131 7 0 25 -14 39 -31 14 -17
26 -25 26 -19 0 6 5 8 10 5 6 -4 8 -11 4 -16 -3 -5 6 -26 21 -45 21 -27 30
-33 36 -23 6 10 10 5 15 -17 3 -17 40 -73 81 -125 110 -139 120 -149 148 -149
14 0 25 -6 25 -13 0 -14 41 -57 54 -57 5 0 17 -11 27 -24 11 -14 32 -26 46
-28 22 -2 44 -26 108 -115 103 -145 98 -140 130 -119 29 19 45 15 26 -7 -14
-18 11 -41 54 -51 41 -10 91 -42 148 -95 40 -37 50 -42 59 -30 8 11 9 10 4 -4
-8 -24 12 -60 29 -53 9 3 15 -3 17 -17 2 -17 11 -23 40 -25 105 -9 31 108
-341 537 -83 96 -151 179 -151 184 0 5 17 -1 38 -13 20 -12 65 -39 100 -58 34
-20 62 -41 62 -47 0 -5 95 -75 212 -155 116 -80 224 -155 239 -168 16 -13 42
-51 60 -85 36 -73 58 -100 34 -42 -9 22 -39 104 -65 183 -27 78 -56 149 -64
158 -9 8 -16 21 -16 28 0 8 -7 19 -15 26 -8 7 -15 20 -15 29 0 9 -10 36 -22
61 -12 25 -23 55 -24 67 -3 27 -23 65 -24 44 0 -11 -3 -11 -15 -1 -8 7 -12 16
-9 21 3 5 -8 37 -24 72 -16 34 -41 99 -55 144 -16 48 -36 92 -52 107 -19 19
-24 30 -17 43 16 30 6 102 -16 126 -11 12 -24 36 -28 52 -10 42 -32 83 -68
128 -29 37 -31 42 -30 130 1 51 -1 75 -3 55 -2 -21 -8 -38 -12 -38 -4 0 -43
43 -86 95 -44 52 -85 95 -91 95 -6 0 -17 -7 -24 -15 -15 -18 -51 -20 -68 -3
-18 18 -15 25 18 32 33 6 36 14 17 40 -12 16 -21 9 -98 -76z"/>

        <path d="M5638 4709 c-21 -11 -38 -24 -38 -30 0 -5 -16 -23 -35 -40 -19 -17
-35 -37 -35 -44 0 -10 -10 -12 -35 -8 -24 4 -35 2 -35 -6 0 -22 63 -296 70
-304 4 -4 71 65 150 154 l143 161 -32 30 c-17 16 -39 40 -47 54 -9 13 -22 24
-29 24 -7 0 -15 7 -19 15 -7 19 -13 18 -58 -6z"/>

        <path d="M5661 4221 c-89 -96 -92 -101 -87 -138 6 -34 2 -33 -10 6 -3 10 -14
5 -39 -19 l-35 -34 87 -84 c49 -45 98 -90 111 -99 22 -16 25 -15 55 15 l31 31
-43 38 -42 38 77 88 c42 48 82 87 89 87 6 0 24 -13 40 -30 36 -38 46 -38 74 1
l23 31 -38 39 c-21 21 -46 39 -56 39 -10 0 -18 6 -18 14 0 24 -68 76 -99 76
-24 0 -46 -18 -120 -99z"/>

        <path d="M4305 4175 c8 -141 13 -162 56 -202 21 -20 36 -40 33 -45 -3 -4 8
-34 25 -65 38 -72 72 -181 65 -208 -3 -11 4 -41 15 -65 11 -25 21 -39 21 -32
0 14 42 -16 141 -100 68 -59 97 -62 134 -14 24 32 25 37 14 82 -13 54 -47 114
-66 114 -7 0 -25 17 -40 38 -47 64 -183 232 -284 353 -85 101 -98 122 -107
170 -11 53 -11 53 -7 -26z"/>

        <path d="M2910 3882 c-14 -9 -58 -51 -98 -93 l-73 -77 53 -45 c93 -79 327
-237 351 -237 2 0 3 12 1 28 -2 15 3 3 12 -25 16 -52 17 -53 55 -53 34 0 39
-3 39 -23 0 -17 23 -39 99 -92 110 -77 126 -97 109 -144 -16 -41 2 -81 36 -81
20 0 25 -6 31 -40 7 -44 48 -77 107 -86 38 -6 97 26 105 56 4 16 22 6 122 -68
64 -48 128 -95 143 -105 60 -38 100 -57 108 -52 4 3 11 -1 14 -7 4 -12 165
147 166 164 0 4 -21 22 -46 40 -26 18 -59 44 -73 59 -14 14 -51 39 -81 57 -98
56 -219 159 -258 221 -32 49 -68 80 -260 222 -123 90 -239 176 -257 192 -18
15 -35 27 -39 27 -3 0 -16 9 -28 19 -86 74 -165 130 -176 126 -7 -3 -11 -1 -8
4 8 12 -49 31 -93 31 -20 0 -47 -8 -61 -18z"/>

        <path fill="red" d="M5085 3535 c-22 -8 -65 -14 -95 -14 l-55 -1 0 -133 c1 -72 2 -140 3
-149 3 -28 80 -78 119 -78 74 0 123 59 107 129 l-6 26 26 -30 c14 -16 29 -42
32 -57 4 -16 10 -28 14 -28 5 0 23 18 40 40 l32 40 -26 0 c-15 0 -43 7 -64 16
l-37 17 40 9 c104 23 123 128 36 201 -37 31 -96 35 -166 12z"/>

        <path d="M4530 3465 c0 -42 48 -272 65 -308 l15 -32 -6 52 c-5 47 -3 56 25 90
36 46 46 82 29 104 -7 9 -39 40 -70 69 -57 52 -58 53 -58 25z"/>
        
        <path d="M4341 2755 c-72 -81 -131 -154 -131 -162 0 -27 20 -51 95 -117 47
-41 85 -66 99 -66 24 0 69 43 220 213 l69 78 -25 26 -25 25 -113 -125 -113
-125 -54 46 c-29 26 -53 51 -53 55 0 5 48 63 107 128 l106 120 -25 26 -25 25
-132 -147z"/>

        <path d="M4024 1929 c-44 -13 -101 -72 -114 -119 -9 -33 -6 -56 15 -139 14
-55 25 -115 25 -133 l0 -33 41 45 41 45 -41 -51 c-51 -65 -54 -86 -8 -78 65
11 73 15 107 60 19 25 40 51 46 58 5 6 30 38 55 70 24 32 53 70 64 84 l19 25
-34 -6 -35 -7 30 25 c42 34 90 56 109 49 9 -3 16 -2 16 2 0 10 -91 94 -102 94
-4 0 -8 -12 -8 -27 0 -16 -11 -50 -24 -78 -24 -50 -24 -50 -25 -17 -2 55 -35
107 -81 126 -45 18 -51 18 -96 5z"/>

        <path d="M4231 1685 c-34 -41 -60 -75 -57 -75 2 0 -9 -13 -25 -29 -16 -16 -29
-37 -29 -45 0 -9 -6 -16 -14 -16 -16 0 -27 -23 -18 -36 16 -22 51 -13 74 19
12 17 33 43 46 57 12 14 50 60 83 103 l60 77 -26 10 c-14 6 -28 10 -29 10 -2
0 -31 -34 -65 -75z"/>
        
        <path d="M4317 1678 c-77 -92 -157 -195 -157 -202 0 -3 7 -6 15 -6 8 0 14 3
13 8 -2 4 1 8 6 9 5 0 13 8 18 17 5 9 15 16 22 16 17 0 28 27 21 50 -3 9 3 23
12 32 20 17 53 20 53 5 0 -5 -8 -6 -17 -3 -9 4 -20 1 -25 -6 -11 -18 -10 -30
2 -23 19 12 -35 -70 -59 -89 -22 -19 -23 -20 -5 -26 22 -8 46 -2 39 10 -3 4 1
10 9 13 7 3 24 20 37 39 l24 33 -27 -18 c-23 -14 -26 -14 -22 -2 4 8 17 18 29
21 21 5 44 27 85 79 13 17 13 18 0 10 -13 -8 -13 -6 -2 7 18 23 -1 60 -26 51
-15 -6 -15 -5 -3 10 7 9 11 17 8 17 -3 0 -25 -24 -50 -52z"/>
    </g>
</svg>
