<?xml version="1.0" standalone="no"?>
<!DOCTYPE svg PUBLIC "-//W3C//DTD SVG 20010904//EN"
 "http://www.w3.org/TR/2001/REC-SVG-20010904/DTD/svg10.dtd">
<svg version="1.0" xmlns="http://www.w3.org/2000/svg"
 width="1200.000000pt" height="300.000000pt" viewBox="0 0 1200.000000 300.000000"
 preserveAspectRatio="xMidYMid meet">
<metadata>
Created by potrace 1.16, written by Peter Selinger 2001-2019
</metadata>
<g transform="translate(0.000000,300.000000) scale(0.100000,-0.100000)"
fill="#000000" stroke="none">
<path d="M936 2950 c-8 -20 -852 -2439 -860 -2467 l-7 -23 243 0 243 0 59 160
59 160 271 0 271 0 59 -160 59 -160 245 0 c191 0 243 3 239 13 -2 6 -195 557
-427 1222 -232 666 -428 1224 -435 1240 -9 22 -14 26 -19 15z m62 -1512 l59
-198 -124 0 c-96 0 -124 3 -120 13 2 6 17 53 31 102 63 207 88 286 91 283 2
-2 30 -92 63 -200z"/>
<path d="M2298 2546 c-65 -122 -118 -226 -118 -229 0 -4 230 -7 510 -7 l510 0
0 -930 0 -930 235 0 235 0 0 930 0 930 348 0 347 0 410 -1087 c476 -1267 435
-1161 445 -1143 4 8 192 505 418 1105 226 600 414 1098 417 1108 7 16 67 17
1066 17 582 0 1059 3 1059 7 0 4 -54 107 -121 230 l-121 223 -1107 0 -1107 0
-254 -664 c-140 -366 -256 -663 -258 -661 -2 2 -117 299 -256 662 l-252 658
-1144 2 -1145 3 -117 -224z"/>
<path d="M9990 1345 l0 -875 225 0 225 0 2 352 3 353 393 -385 c216 -212 397
-386 402 -388 7 -2 10 315 10 882 l0 886 -230 0 -230 0 -2 -314 -3 -314 -394
339 c-217 186 -395 339 -397 339 -2 0 -4 -394 -4 -875z"/>
<path d="M2431 2189 c-284 -37 -541 -223 -667 -484 -65 -133 -86 -225 -88
-375 -1 -199 41 -343 149 -506 271 -406 836 -505 1243 -217 34 24 62 47 62 51
-1 9 -279 326 -291 330 -4 2 -27 -11 -50 -28 -108 -78 -285 -92 -412 -32 -301
140 -344 535 -82 734 106 81 248 107 371 70 38 -12 91 -35 117 -52 26 -16 49
-30 51 -30 2 0 70 75 150 166 l147 166 -38 30 c-113 90 -280 158 -433 177 -95
12 -136 12 -229 0z"/>
<path d="M8908 2189 c-345 -50 -627 -306 -720 -653 -30 -112 -30 -326 0 -437
93 -344 368 -593 717 -650 101 -16 278 -6 373 21 302 85 532 320 618 630 14
50 18 101 18 220 0 177 -11 232 -75 368 -166 358 -540 559 -931 501z m214
-450 c282 -60 429 -363 299 -618 -30 -57 -104 -136 -159 -168 -219 -128 -488
-49 -603 178 -122 242 14 531 284 604 65 17 111 18 179 4z"/>
<path d="M6060 1325 l0 -855 225 0 225 0 0 855 0 855 -225 0 -225 0 0 -855z"/>
<path d="M7637 2173 c-4 -3 -7 -388 -7 -855 l0 -848 230 0 230 0 0 855 0 855
-223 0 c-123 0 -227 -3 -230 -7z"/>
<path d="M3910 1315 l0 -855 230 0 230 0 0 855 0 855 -230 0 -230 0 0 -855z"/>
<path d="M6901 2154 c-179 -63 -273 -239 -243 -454 6 -43 23 -107 38 -142 31
-75 112 -200 180 -279 199 -231 234 -279 234 -321 0 -32 -24 -69 -54 -86 -25
-14 -67 -18 -228 -20 l-198 -4 0 -189 0 -189 298 0 c315 0 352 4 445 52 49 25
114 83 143 129 79 126 69 330 -27 508 -51 95 -90 147 -234 312 -63 72 -126
155 -141 185 -24 48 -25 57 -14 84 20 49 40 54 228 58 l172 4 0 184 0 184
-277 0 c-224 -1 -287 -4 -322 -16z"/>
<path d="M11605 846 c-93 -44 -144 -126 -145 -231 0 -103 64 -203 156 -241 45
-19 156 -18 202 1 49 21 110 80 133 130 25 54 25 165 0 220 -23 51 -98 118
-149 133 -64 19 -141 15 -197 -12z m193 -32 c141 -58 178 -234 73 -347 -102
-111 -288 -80 -352 58 -81 174 102 364 279 289z"/>
<path d="M11600 625 l0 -145 35 0 35 0 0 55 0 55 39 0 c45 0 53 -9 61 -65 5
-38 7 -40 42 -43 l36 -3 -5 43 c-3 24 -11 55 -18 69 -10 21 -9 30 2 44 21 30
16 83 -12 110 -22 23 -32 25 -120 25 l-95 0 0 -145z"/>
</g>
</svg>
